<?xml version="1.0" standalone="no"?><!DOCTYPE svg PUBLIC "-//W3C//DTD SVG 1.1//EN" "http://www.w3.org/Graphics/SVG/1.1/DTD/svg11.dtd" ><svg version="1.1" xmlns="http://www.w3.org/2000/svg"><defs><font horiz-adv-x="0" id="font"><font-face ascent="832" bbox="-188 -250 1260 991" cap-height="678" descent="-168" font-family="Gustan Book" font-stretch="normal" font-style="normal" font-weight="600" units-per-em="1000" x-height="510" /><missing-glyph d="M800 115V665L525 390ZM160 665V115L435 390ZM480 435 759 714H201ZM201 66H759L480 345ZM90 780H870V0H90Z" horiz-adv-x="960" /><glyph d="M195 238H439L353 490Q341 526 333.5 550Q326 574 318 600H316Q308 574 300.5 550Q293 526 281 490ZM464 167H170L113 0H19L260 678H374L616 0H522Z" glyph-name="A" horiz-adv-x="635" unicode="A" /><glyph d="M231 238H495V594H493Q486 584 474.5 567Q463 550 450 531Q437 512 423.5 493.5Q410 475 400 462ZM913 0H496V167H180L53 0H-61L461 678H905V607H587V381H863V310H587V71H913Z" glyph-name="AE" horiz-adv-x="951" unicode="&#198;" /><glyph d="M757 734H680L788 846H897ZM339 238H603V594H601Q594 584 582.5 567Q571 550 558 531Q545 512 531.5 493.5Q518 475 508 462ZM1021 0H604V167H288L161 0H47L569 678H1013V607H695V381H971V310H695V71H1021Z" glyph-name="AEacute" horiz-adv-x="1059" unicode="&#508;" /><glyph d="M816 767H485V835H816ZM339 238H603V594H601Q594 584 582.5 567Q571 550 558 531Q545 512 531.5 493.5Q518 475 508 462ZM1021 0H604V167H288L161 0H47L569 678H1013V607H695V381H971V310H695V71H1021Z" glyph-name="AEmacron" horiz-adv-x="1059" unicode="&#482;" /><glyph d="M359 734H282L390 846H499ZM195 238H439L353 490Q341 526 333.5 550Q326 574 318 600H316Q308 574 300.5 550Q293 526 281 490ZM464 167H170L113 0H19L260 678H374L616 0H522Z" glyph-name="Aacute" horiz-adv-x="635" unicode="&#193;" /><glyph d="M317 786Q332 786 348 788.5Q364 791 377.5 798Q391 805 401 816.5Q411 828 414 846H485Q475 783 430 755.5Q385 728 317 728Q249 728 204 755.5Q159 783 149 846H220Q223 828 233 816.5Q243 805 256.5 798Q270 791 286 788.5Q302 786 317 786ZM316 600Q308 574 300.5 550Q293 526 281 490L195 238H439L353 490Q341 526 333.5 550Q326 574 318 600ZM464 167H170L113 0H19L260 678H374L616 0H522Z" glyph-name="Abreve" horiz-adv-x="635" unicode="&#258;" /><glyph d="M168 846H249L317 776L385 846H466L356 730H277ZM195 238H439L353 490Q341 526 333.5 550Q326 574 318 600H316Q308 574 300.5 550Q293 526 281 490ZM464 167H170L113 0H19L260 678H374L616 0H522Z" glyph-name="Acaron" horiz-adv-x="635" unicode="&#461;" /><glyph d="M466 734H385L317 804L249 734H168L278 850H357ZM195 238H439L353 490Q341 526 333.5 550Q326 574 318 600H316Q308 574 300.5 550Q293 526 281 490ZM464 167H170L113 0H19L260 678H374L616 0H522Z" glyph-name="Acircumflex" horiz-adv-x="635" unicode="&#194;" /><glyph d="M456 755H367V841H456ZM266 755H177V841H266ZM316 600Q308 574 300.5 550Q293 526 281 490L195 238H439L353 490Q341 526 333.5 550Q326 574 318 600ZM464 167H170L113 0H19L260 678H374L616 0H522Z" glyph-name="Adieresis" horiz-adv-x="635" unicode="&#196;" /><glyph d="M457 755H368V841H457ZM267 755H178V841H267ZM483 905H152V973H483ZM316 600Q308 574 300.5 550Q293 526 281 490L195 238H439L353 490Q341 526 333.5 550Q326 574 318 600ZM464 167H170L113 0H19L260 678H374L616 0H522Z" glyph-name="Adieresismacron" horiz-adv-x="635" unicode="&#478;" /><glyph d="M364 755H272V844H364ZM316 600Q308 574 300.5 550Q293 526 281 490L195 238H439L353 490Q341 526 333.5 550Q326 574 318 600ZM464 167H170L113 0H19L260 678H374L616 0H522Z" glyph-name="Adotabove" horiz-adv-x="635" unicode="&#550;" /><glyph d="M88 846H184L292 734H228ZM228 846H324L432 734H368ZM195 238H439L353 490Q341 526 333.5 550Q326 574 318 600H316Q308 574 300.5 550Q293 526 281 490ZM464 167H170L113 0H19L260 678H374L616 0H522Z" glyph-name="Adoublegrave" horiz-adv-x="635" unicode="&#512;" /><glyph d="M140 846H249L357 734H280ZM195 238H439L353 490Q341 526 333.5 550Q326 574 318 600H316Q308 574 300.5 550Q293 526 281 490ZM464 167H170L113 0H19L260 678H374L616 0H522Z" glyph-name="Agrave" horiz-adv-x="635" unicode="&#192;" /><glyph d="M317 794Q302 794 286 791.5Q270 789 256.5 782Q243 775 233 763.5Q223 752 220 734H149Q159 797 204 824.5Q249 852 317 852Q385 852 430 824.5Q475 797 485 734H414Q411 752 401 763.5Q391 775 377.5 782Q364 789 348 791.5Q332 794 317 794ZM316 600Q308 574 300.5 550Q293 526 281 490L195 238H439L353 490Q341 526 333.5 550Q326 574 318 600ZM464 167H170L113 0H19L260 678H374L616 0H522Z" glyph-name="Ainvertedbreve" horiz-adv-x="635" unicode="&#514;" /><glyph d="M483 767H152V835H483ZM316 600Q308 574 300.5 550Q293 526 281 490L195 238H439L353 490Q341 526 333.5 550Q326 574 318 600ZM464 167H170L113 0H19L260 678H374L616 0H522Z" glyph-name="Amacron" horiz-adv-x="635" unicode="&#256;" /><glyph d="M521 0 401 351Q378 417 356.5 480.5Q335 544 318 595H316Q299 544 277.5 480.5Q256 417 233 351L113 0H19L260 678H374L616 0Z" glyph-name="Anocross" horiz-adv-x="635" unicode="&#59185;" /><glyph d="M616 0Q591 -14 576 -37Q561 -60 561 -80Q561 -96 571 -107Q581 -118 605 -118Q619 -118 635 -116Q651 -114 668 -109V-164Q653 -170 631.5 -172Q610 -174 593 -174Q535 -174 510.5 -151Q486 -128 486 -93Q486 -65 504 -39.5Q522 -14 544 0ZM316 600Q308 574 300.5 550Q293 526 281 490L195 238H439L353 490Q341 526 333.5 550Q326 574 318 600ZM464 167H170L113 0H19L260 678H374L616 0H522Z" glyph-name="Aogonek" horiz-adv-x="635" unicode="&#260;" /><glyph d="M354 808Q354 841 318 841Q281 841 281 808Q281 776 318 776Q354 776 354 808ZM407 808Q407 769 384 752Q361 735 318 735Q275 735 251.5 752Q228 769 228 808Q228 847 251.5 864Q275 881 318 881Q361 881 384 864Q407 847 407 808ZM316 600Q308 574 300.5 550Q293 526 281 490L195 238H439L353 490Q341 526 333.5 550Q326 574 318 600ZM464 167H170L113 0H19L260 678H374L616 0H522Z" glyph-name="Aring" horiz-adv-x="635" unicode="&#197;" /><glyph d="M351 808Q351 841 315 841Q278 841 278 808Q278 776 315 776Q351 776 351 808ZM404 809Q404 770 381 753Q358 736 315 736Q272 736 248.5 753Q225 770 225 809Q225 830 238.5 847.5Q252 865 275 888L347 960H409L329 880Q358 880 381 860.5Q404 841 404 809ZM195 238H439L353 490Q341 526 333.5 550Q326 574 318 600H316Q308 574 300.5 550Q293 526 281 490ZM464 167H170L113 0H19L260 678H374L616 0H522Z" glyph-name="Aringacute" horiz-adv-x="635" unicode="&#506;" /><glyph d="M392 824Q414 824 439 835Q464 846 484 860V794Q469 783 443 771Q417 759 393 759Q374 759 354.5 764Q335 769 316.5 775.5Q298 782 279.5 787Q261 792 243 792Q221 792 196 781Q171 770 151 756V822Q166 833 192 845.5Q218 858 242 858Q261 858 280 852.5Q299 847 317.5 841Q336 835 354.5 829.5Q373 824 392 824ZM195 238H439L353 490Q341 526 333.5 550Q326 574 318 600H316Q308 574 300.5 550Q293 526 281 490ZM464 167H170L113 0H19L260 678H374L616 0H522Z" glyph-name="Atilde" horiz-adv-x="635" unicode="&#195;" /><glyph d="M90 0V678H319Q381 678 428.5 669Q476 660 508 628Q528 608 539.5 577.5Q551 547 551 505Q551 472 544 447.5Q537 423 525 404.5Q513 386 497 373.5Q481 361 464 352V350Q483 343 502 329.5Q521 316 536.5 296Q552 276 561.5 249Q571 222 571 188Q571 143 558 109Q545 75 524 54Q489 20 437.5 10Q386 0 319 0ZM324 381Q360 381 386 387Q412 393 432 413Q456 437 456 495Q456 551 432 575Q412 595 386 601Q360 607 324 607H181V381ZM337 71Q375 71 402.5 77.5Q430 84 451 105Q465 119 470.5 140.5Q476 162 476 192Q476 222 470.5 242Q465 262 451 276Q430 298 402.5 304Q375 310 337 310H181V71Z" glyph-name="B" horiz-adv-x="617" unicode="B" /><glyph d="M56 337Q56 435 75 502.5Q94 570 130 611.5Q166 653 219 671.5Q272 690 341 690Q373 690 414.5 686Q456 682 505 667V592Q463 606 425 610.5Q387 615 358 615Q308 615 269.5 603Q231 591 205 559.5Q179 528 165 474.5Q151 421 151 339Q151 256 165 203Q179 150 205 120Q231 90 269.5 78.5Q308 67 358 67Q393 67 437 74Q481 81 518 95V16Q498 7 474 1.5Q450 -4 426 -7Q402 -10 379.5 -11Q357 -12 341 -12Q272 -12 219 6Q166 24 130 65Q94 106 75 172.5Q56 239 56 337Z" glyph-name="C" horiz-adv-x="554" unicode="C" /><glyph d="M345 734H268L376 846H485ZM56 337Q56 435 75 502.5Q94 570 130 611.5Q166 653 219 671.5Q272 690 341 690Q373 690 414.5 686Q456 682 505 667V592Q463 606 425 610.5Q387 615 358 615Q308 615 269.5 603Q231 591 205 559.5Q179 528 165 474.5Q151 421 151 339Q151 256 165 203Q179 150 205 120Q231 90 269.5 78.5Q308 67 358 67Q393 67 437 74Q481 81 518 95V16Q498 7 474 1.5Q450 -4 426 -7Q402 -10 379.5 -11Q357 -12 341 -12Q272 -12 219 6Q166 24 130 65Q94 106 75 172.5Q56 239 56 337Z" glyph-name="Cacute" horiz-adv-x="554" unicode="&#262;" /><glyph d="M179 846H260L328 776L396 846H477L367 730H288ZM56 337Q56 435 75 502.5Q94 570 130 611.5Q166 653 219 671.5Q272 690 341 690Q373 690 414.5 686Q456 682 505 667V592Q463 606 425 610.5Q387 615 358 615Q308 615 269.5 603Q231 591 205 559.5Q179 528 165 474.5Q151 421 151 339Q151 256 165 203Q179 150 205 120Q231 90 269.5 78.5Q308 67 358 67Q393 67 437 74Q481 81 518 95V16Q498 7 474 1.5Q450 -4 426 -7Q402 -10 379.5 -11Q357 -12 341 -12Q272 -12 219 6Q166 24 130 65Q94 106 75 172.5Q56 239 56 337Z" glyph-name="Ccaron" horiz-adv-x="554" unicode="&#268;" /><glyph d="M300 -10Q241 -6 195.5 15.5Q150 37 119 78Q88 119 72 183Q56 247 56 337Q56 435 75 502.5Q94 570 130 611.5Q166 653 219 671.5Q272 690 341 690Q373 690 414.5 686Q456 682 505 667V592Q463 606 425 610.5Q387 615 358 615Q308 615 269.5 603Q231 591 205 559.5Q179 528 165 474.5Q151 421 151 339Q151 256 165 203Q179 150 205 120Q231 90 269.5 78.5Q308 67 358 67Q393 67 437 74Q481 81 518 95V16Q486 2 445.5 -3.5Q405 -9 372 -11L361 -37Q391 -45 406.5 -59.5Q422 -74 422 -100Q422 -138 387.5 -156Q353 -174 298 -174Q287 -174 267.5 -172Q248 -170 225 -164V-110Q242 -115 260 -116.5Q278 -118 290 -118Q319 -118 331.5 -112.5Q344 -107 344 -94Q344 -81 326.5 -75.5Q309 -70 291 -68L285 -44Z" glyph-name="Ccedilla" horiz-adv-x="554" unicode="&#199;" /><glyph d="M474 734H393L325 804L257 734H176L286 850H365ZM56 337Q56 435 75 502.5Q94 570 130 611.5Q166 653 219 671.5Q272 690 341 690Q373 690 414.5 686Q456 682 505 667V592Q463 606 425 610.5Q387 615 358 615Q308 615 269.5 603Q231 591 205 559.5Q179 528 165 474.5Q151 421 151 339Q151 256 165 203Q179 150 205 120Q231 90 269.5 78.5Q308 67 358 67Q393 67 437 74Q481 81 518 95V16Q498 7 474 1.5Q450 -4 426 -7Q402 -10 379.5 -11Q357 -12 341 -12Q272 -12 219 6Q166 24 130 65Q94 106 75 172.5Q56 239 56 337Z" glyph-name="Ccircumflex" horiz-adv-x="554" unicode="&#264;" /><glyph d="M371 755H279V844H371ZM56 337Q56 435 75 502.5Q94 570 130 611.5Q166 653 219 671.5Q272 690 341 690Q373 690 414.5 686Q456 682 505 667V592Q463 606 425 610.5Q387 615 358 615Q308 615 269.5 603Q231 591 205 559.5Q179 528 165 474.5Q151 421 151 339Q151 256 165 203Q179 150 205 120Q231 90 269.5 78.5Q308 67 358 67Q393 67 437 74Q481 81 518 95V16Q498 7 474 1.5Q450 -4 426 -7Q402 -10 379.5 -11Q357 -12 341 -12Q272 -12 219 6Q166 24 130 65Q94 106 75 172.5Q56 239 56 337Z" glyph-name="Cdotaccent" horiz-adv-x="554" unicode="&#266;" /><glyph d="M393 327H59V394H393Z" glyph-name="Crossbar" horiz-adv-x="448" unicode="&#59204;" /><glyph d="M425 325H49V396H425Z" glyph-name="Crossbar.cap" horiz-adv-x="448" unicode="&#59205;" /><glyph d="M603 126H250V192H603Z" glyph-name="Crossbar.small" horiz-adv-x="448" unicode="&#59206;" /><glyph d="M612 339Q612 242 591 175.5Q570 109 528 67Q492 31 445.5 15.5Q399 0 330 0H90V678H330Q399 678 445.5 662.5Q492 647 528 611Q570 569 591 502.5Q612 436 612 339ZM517 339Q517 424 501.5 479.5Q486 535 456 565Q432 589 400.5 598Q369 607 328 607H181V71H328Q369 71 400.5 80Q432 89 456 113Q486 143 501.5 198.5Q517 254 517 339Z" glyph-name="D" horiz-adv-x="668" unicode="D" /><glyph d="M160 846H241L309 776L377 846H458L348 730H269ZM612 339Q612 242 591 175.5Q570 109 528 67Q492 31 445.5 15.5Q399 0 330 0H90V678H330Q399 678 445.5 662.5Q492 647 528 611Q570 569 591 502.5Q612 436 612 339ZM517 339Q517 424 501.5 479.5Q486 535 456 565Q432 589 400.5 598Q369 607 328 607H181V71H328Q369 71 400.5 80Q432 89 456 113Q486 143 501.5 198.5Q517 254 517 339Z" glyph-name="Dcaron" horiz-adv-x="668" unicode="&#270;" /><glyph d="M313 -34Q375 -39 398.5 -59Q422 -79 422 -103Q422 -139 388.5 -156.5Q355 -174 304 -174Q291 -174 269.5 -172.5Q248 -171 225 -164V-110Q241 -115 258.5 -117Q276 -119 291 -119Q314 -119 329 -114.5Q344 -110 344 -99Q344 -85 327 -81Q310 -77 293 -75ZM612 339Q612 242 591 175.5Q570 109 528 67Q492 31 445.5 15.5Q399 0 330 0H90V678H330Q399 678 445.5 662.5Q492 647 528 611Q570 569 591 502.5Q612 436 612 339ZM517 339Q517 424 501.5 479.5Q486 535 456 565Q432 589 400.5 598Q369 607 328 607H181V71H328Q369 71 400.5 80Q432 89 456 113Q486 143 501.5 198.5Q517 254 517 339Z" glyph-name="Dcedilla" horiz-adv-x="668" unicode="&#7696;" /><glyph d="M396 310H212V71H359Q400 71 431.5 80Q463 89 487 113Q517 143 532.5 198.5Q548 254 548 339Q548 424 532.5 479.5Q517 535 487 565Q463 589 431.5 598Q400 607 359 607H212V381H396ZM643 339Q643 242 622 175.5Q601 109 559 67Q523 31 476.5 15.5Q430 0 361 0H121V310H20V381H121V678H361Q430 678 476.5 662.5Q523 647 559 611Q601 569 622 502.5Q643 436 643 339Z" glyph-name="Dcroat" horiz-adv-x="699" unicode="&#272;" /><glyph d="M364 -181H275V-96H364ZM612 339Q612 242 591 175.5Q570 109 528 67Q492 31 445.5 15.5Q399 0 330 0H90V678H330Q399 678 445.5 662.5Q492 647 528 611Q570 569 591 502.5Q612 436 612 339ZM517 339Q517 424 501.5 479.5Q486 535 456 565Q432 589 400.5 598Q369 607 328 607H181V71H328Q369 71 400.5 80Q432 89 456 113Q486 143 501.5 198.5Q517 254 517 339Z" glyph-name="Ddotbelow" horiz-adv-x="668" unicode="&#7692;" /><glyph d="M535 67Q560 67 591 66.5Q622 66 639 65V66L436 494Q424 520 411.5 552Q399 584 390 606H388Q379 584 365 552Q351 520 339 494L137 66V65Q154 66 185 66.5Q216 67 241 67ZM724 0H52L50 54L347 684H428L726 54Z" glyph-name="Delta" horiz-adv-x="776" unicode="&#8710;" /><glyph d="M507 0H90V678H499V607H181V381H457V310H181V71H507Z" glyph-name="E" horiz-adv-x="545" unicode="E" /><glyph d="M331 734H254L362 846H471ZM507 0H90V678H499V607H181V381H457V310H181V71H507Z" glyph-name="Eacute" horiz-adv-x="545" unicode="&#201;" /><glyph d="M331 734H254L362 846H471ZM352 -181H263V-96H352ZM507 0H90V678H499V607H181V381H457V310H181V71H507Z" glyph-name="Eacutedotbelow" horiz-adv-x="545" unicode="&#59233;" /><glyph d="M299 786Q314 786 330 788.5Q346 791 359.5 798Q373 805 383 816.5Q393 828 396 846H467Q457 783 412 755.5Q367 728 299 728Q231 728 186 755.5Q141 783 131 846H202Q205 828 215 816.5Q225 805 238.5 798Q252 791 268 788.5Q284 786 299 786ZM507 0H90V678H499V607H181V381H457V310H181V71H507Z" glyph-name="Ebreve" horiz-adv-x="545" unicode="&#276;" /><glyph d="M150 846H231L299 776L367 846H448L338 730H259ZM507 0H90V678H499V607H181V381H457V310H181V71H507Z" glyph-name="Ecaron" horiz-adv-x="545" unicode="&#282;" /><glyph d="M447 734H366L298 804L230 734H149L259 850H338ZM507 0H90V678H499V607H181V381H457V310H181V71H507Z" glyph-name="Ecircumflex" horiz-adv-x="545" unicode="&#202;" /><glyph d="M438 755H349V841H438ZM248 755H159V841H248ZM507 0H90V678H499V607H181V381H457V310H181V71H507Z" glyph-name="Edieresis" horiz-adv-x="545" unicode="&#203;" /><glyph d="M345 755H253V844H345ZM507 0H90V678H499V607H181V381H457V310H181V71H507Z" glyph-name="Edotaccent" horiz-adv-x="545" unicode="&#278;" /><glyph d="M88 846H184L292 734H228ZM228 846H324L432 734H368ZM507 0H90V678H499V607H181V381H457V310H181V71H507Z" glyph-name="Edoublegrave" horiz-adv-x="545" unicode="&#516;" /><glyph d="M149 846H258L366 734H289ZM507 0H90V678H499V607H181V381H457V310H181V71H507Z" glyph-name="Egrave" horiz-adv-x="545" unicode="&#200;" /><glyph d="M352 -181H263V-96H352ZM149 846H258L366 734H289ZM507 0H90V678H499V607H181V381H457V310H181V71H507Z" glyph-name="Egravedotbelow" horiz-adv-x="545" unicode="&#59237;" /><glyph d="M299 794Q284 794 268 791.5Q252 789 238.5 782Q225 775 215 763.5Q205 752 202 734H131Q141 797 186 824.5Q231 852 299 852Q367 852 412 824.5Q457 797 467 734H396Q393 752 383 763.5Q373 775 359.5 782Q346 789 330 791.5Q314 794 299 794ZM507 0H90V678H499V607H181V381H457V310H181V71H507Z" glyph-name="Einvertedbreve" horiz-adv-x="545" unicode="&#518;" /><glyph d="M464 767H133V835H464ZM507 0H90V678H499V607H181V381H457V310H181V71H507Z" glyph-name="Emacron" horiz-adv-x="545" unicode="&#274;" /><glyph d="M447 -168Q473 -127 490 -87.5Q507 -48 519 5L258 409Q247 426 237.5 441Q228 456 219 471Q210 486 200 502.5Q190 519 178 539H175Q176 499 176.5 452Q177 405 177.5 357.5Q178 310 178 264.5Q178 219 178 182V0H90V678H187L451 269Q462 252 471.5 237Q481 222 490 207Q499 192 509 175.5Q519 159 531 139H534Q533 179 532.5 226Q532 273 531.5 320.5Q531 368 531 413Q531 458 531 496V678H619V128Q619 81 614.5 41.5Q610 2 600 -33.5Q590 -69 574 -102Q558 -135 536 -168Z" glyph-name="Eng" horiz-adv-x="709" unicode="&#330;" /><glyph d="M90 0V678H499V607H181V381H457V310H181V71H507V0Q482 -14 467 -37Q452 -60 452 -80Q452 -96 462 -107Q472 -118 496 -118Q510 -118 526 -116Q542 -114 559 -109V-164Q544 -170 522.5 -172Q501 -174 484 -174Q426 -174 401.5 -151Q377 -128 377 -93Q377 -65 395 -39.5Q413 -14 435 0Z" glyph-name="Eogonek" horiz-adv-x="545" unicode="&#280;" /><glyph d="M396 310H212V71H359Q400 71 431.5 80Q463 89 487 113Q517 143 532.5 198.5Q548 254 548 339Q548 424 532.5 479.5Q517 535 487 565Q463 589 431.5 598Q400 607 359 607H212V381H396ZM643 339Q643 242 622 175.5Q601 109 559 67Q523 31 476.5 15.5Q430 0 361 0H121V310H20V381H121V678H361Q430 678 476.5 662.5Q523 647 559 611Q601 569 622 502.5Q643 436 643 339Z" glyph-name="Eth" horiz-adv-x="699" unicode="&#208;" /><glyph d="M171 311V258H367L341 196H177Q189 129 226 94.5Q263 60 336 60Q363 60 399 65Q435 70 473 84V12Q431 -2 396 -7Q361 -12 327 -12Q219 -12 161 37.5Q103 87 89 196H8L34 258H84V311H17L43 373H90Q97 418 113.5 454.5Q130 491 158 516.5Q186 542 227.5 555.5Q269 569 327 569Q355 569 388.5 566Q422 563 458 551V481Q425 493 393.5 496Q362 499 336 499Q264 499 227.5 467.5Q191 436 178 373H413L386 311Z" glyph-name="Euro" horiz-adv-x="515" unicode="&#8364;" /><glyph d="M89 318H139V371H72L98 433H144Q152 503 172.5 552Q193 601 225.5 632Q258 663 301 676.5Q344 690 397 690Q426 690 460.5 686Q495 682 538 667V592Q502 606 470.5 610.5Q439 615 414 615Q379 615 349.5 606.5Q320 598 298 577Q276 556 261 521Q246 486 239 433H483L456 371H234V318H437L411 256H238Q244 199 258.5 162.5Q273 126 295.5 105Q318 84 348 75.5Q378 67 414 67Q445 67 482 74Q519 81 551 95V16Q534 7 513 1.5Q492 -4 471 -7Q450 -10 430.5 -11Q411 -12 397 -12Q343 -12 299 2Q255 16 222.5 47.5Q190 79 169.5 130.5Q149 182 142 256H63Z" glyph-name="Euro.LP" horiz-adv-x="660" unicode="&#58657;" /><glyph d="M90 0V678H507V607H181V381H457V310H181V0Z" glyph-name="F" horiz-adv-x="515" unicode="F" /><glyph d="M328 381H587V37Q529 8 471 -2.5Q413 -13 358 -13Q285 -13 229 5Q173 23 134.5 64.5Q96 106 76 172.5Q56 239 56 336Q56 438 77 506Q98 574 138 615Q178 656 236 673Q294 690 369 690Q384 690 405 689Q426 688 450 685.5Q474 683 499 678.5Q524 674 548 667V592Q504 603 460 609Q416 615 384 615Q327 615 283 604Q239 593 210 562.5Q181 532 166 477.5Q151 423 151 336Q151 252 167 198.5Q183 145 210.5 115Q238 85 274.5 73.5Q311 62 351 62Q385 62 420 65Q455 68 496 82V310H328Z" glyph-name="G" horiz-adv-x="665" unicode="G" /><glyph d="M380 734H303L411 846H520ZM328 381H587V37Q529 8 471 -2.5Q413 -13 358 -13Q285 -13 229 5Q173 23 134.5 64.5Q96 106 76 172.5Q56 239 56 336Q56 438 77 506Q98 574 138 615Q178 656 236 673Q294 690 369 690Q384 690 405 689Q426 688 450 685.5Q474 683 499 678.5Q524 674 548 667V592Q504 603 460 609Q416 615 384 615Q327 615 283 604Q239 593 210 562.5Q181 532 166 477.5Q151 423 151 336Q151 252 167 198.5Q183 145 210.5 115Q238 85 274.5 73.5Q311 62 351 62Q385 62 420 65Q455 68 496 82V310H328Z" glyph-name="Gacute" horiz-adv-x="665" unicode="&#500;" /><glyph d="M347 786Q362 786 378 788.5Q394 791 407.5 798Q421 805 431 816.5Q441 828 444 846H515Q505 783 460 755.5Q415 728 347 728Q279 728 234 755.5Q189 783 179 846H250Q253 828 263 816.5Q273 805 286.5 798Q300 791 316 788.5Q332 786 347 786ZM328 381H587V37Q529 8 471 -2.5Q413 -13 358 -13Q285 -13 229 5Q173 23 134.5 64.5Q96 106 76 172.5Q56 239 56 336Q56 438 77 506Q98 574 138 615Q178 656 236 673Q294 690 369 690Q384 690 405 689Q426 688 450 685.5Q474 683 499 678.5Q524 674 548 667V592Q504 603 460 609Q416 615 384 615Q327 615 283 604Q239 593 210 562.5Q181 532 166 477.5Q151 423 151 336Q151 252 167 198.5Q183 145 210.5 115Q238 85 274.5 73.5Q311 62 351 62Q385 62 420 65Q455 68 496 82V310H328Z" glyph-name="Gbreve" horiz-adv-x="665" unicode="&#286;" /><glyph d="M211 846H292L360 776L428 846H509L399 730H320ZM328 381H587V37Q529 8 471 -2.5Q413 -13 358 -13Q285 -13 229 5Q173 23 134.5 64.5Q96 106 76 172.5Q56 239 56 336Q56 438 77 506Q98 574 138 615Q178 656 236 673Q294 690 369 690Q384 690 405 689Q426 688 450 685.5Q474 683 499 678.5Q524 674 548 667V592Q504 603 460 609Q416 615 384 615Q327 615 283 604Q239 593 210 562.5Q181 532 166 477.5Q151 423 151 336Q151 252 167 198.5Q183 145 210.5 115Q238 85 274.5 73.5Q311 62 351 62Q385 62 420 65Q455 68 496 82V310H328Z" glyph-name="Gcaron" horiz-adv-x="665" unicode="&#486;" /><glyph d="M499 734H418L350 804L282 734H201L311 850H390ZM328 381H587V37Q529 8 471 -2.5Q413 -13 358 -13Q285 -13 229 5Q173 23 134.5 64.5Q96 106 76 172.5Q56 239 56 336Q56 438 77 506Q98 574 138 615Q178 656 236 673Q294 690 369 690Q384 690 405 689Q426 688 450 685.5Q474 683 499 678.5Q524 674 548 667V592Q504 603 460 609Q416 615 384 615Q327 615 283 604Q239 593 210 562.5Q181 532 166 477.5Q151 423 151 336Q151 252 167 198.5Q183 145 210.5 115Q238 85 274.5 73.5Q311 62 351 62Q385 62 420 65Q455 68 496 82V310H328Z" glyph-name="Gcircumflex" horiz-adv-x="665" unicode="&#284;" /><glyph d="M327 -76H419L345 -247H290ZM328 381H587V37Q529 8 471 -2.5Q413 -13 358 -13Q285 -13 229 5Q173 23 134.5 64.5Q96 106 76 172.5Q56 239 56 336Q56 438 77 506Q98 574 138 615Q178 656 236 673Q294 690 369 690Q384 690 405 689Q426 688 450 685.5Q474 683 499 678.5Q524 674 548 667V592Q504 603 460 609Q416 615 384 615Q327 615 283 604Q239 593 210 562.5Q181 532 166 477.5Q151 423 151 336Q151 252 167 198.5Q183 145 210.5 115Q238 85 274.5 73.5Q311 62 351 62Q385 62 420 65Q455 68 496 82V310H328Z" glyph-name="Gcommaaccent" horiz-adv-x="665" unicode="&#290;" /><glyph d="M682 566H590L664 737H719ZM328 381H587V37Q529 8 471 -2.5Q413 -13 358 -13Q285 -13 229 5Q173 23 134.5 64.5Q96 106 76 172.5Q56 239 56 336Q56 438 77 506Q98 574 138 615Q178 656 236 673Q294 690 369 690Q384 690 405 689Q426 688 450 685.5Q474 683 499 678.5Q524 674 548 667V592Q504 603 460 609Q416 615 384 615Q327 615 283 604Q239 593 210 562.5Q181 532 166 477.5Q151 423 151 336Q151 252 167 198.5Q183 145 210.5 115Q238 85 274.5 73.5Q311 62 351 62Q385 62 420 65Q455 68 496 82V310H328Z" glyph-name="Gcommaturnedabove" horiz-adv-x="725" unicode="&#57607;" /><glyph d="M394 755H302V844H394ZM328 381H587V37Q529 8 471 -2.5Q413 -13 358 -13Q285 -13 229 5Q173 23 134.5 64.5Q96 106 76 172.5Q56 239 56 336Q56 438 77 506Q98 574 138 615Q178 656 236 673Q294 690 369 690Q384 690 405 689Q426 688 450 685.5Q474 683 499 678.5Q524 674 548 667V592Q504 603 460 609Q416 615 384 615Q327 615 283 604Q239 593 210 562.5Q181 532 166 477.5Q151 423 151 336Q151 252 167 198.5Q183 145 210.5 115Q238 85 274.5 73.5Q311 62 351 62Q385 62 420 65Q455 68 496 82V310H328Z" glyph-name="Gdotaccent" horiz-adv-x="665" unicode="&#288;" /><glyph d="M688 157H587V37Q529 8 471 -2.5Q413 -13 358 -13Q285 -13 229 5Q173 23 134.5 64.5Q96 106 76 172.5Q56 239 56 336Q56 438 77 506Q98 574 138 615Q178 656 236 673Q294 690 369 690Q384 690 405 689Q426 688 450 685.5Q474 683 499 678.5Q524 674 548 667V592Q504 603 460 609Q416 615 384 615Q327 615 283 604Q239 593 210 562.5Q181 532 166 477.5Q151 423 151 336Q151 252 167 198.5Q183 145 210.5 115Q238 85 274.5 73.5Q311 62 351 62Q385 62 420 65Q455 68 496 82V157H312V228H496V310H328V381H587V228H688Z" glyph-name="Gstroke" horiz-adv-x="665" unicode="&#484;" /><glyph d="M422 824Q444 824 469 835Q494 846 514 860V794Q499 783 473 771Q447 759 423 759Q404 759 384.5 764Q365 769 346.5 775.5Q328 782 309.5 787Q291 792 273 792Q251 792 226 781Q201 770 181 756V822Q196 833 222 845.5Q248 858 272 858Q291 858 310 852.5Q329 847 347.5 841Q366 835 384.5 829.5Q403 824 422 824ZM328 381H587V37Q529 8 471 -2.5Q413 -13 358 -13Q285 -13 229 5Q173 23 134.5 64.5Q96 106 76 172.5Q56 239 56 336Q56 438 77 506Q98 574 138 615Q178 656 236 673Q294 690 369 690Q384 690 405 689Q426 688 450 685.5Q474 683 499 678.5Q524 674 548 667V592Q504 603 460 609Q416 615 384 615Q327 615 283 604Q239 593 210 562.5Q181 532 166 477.5Q151 423 151 336Q151 252 167 198.5Q183 145 210.5 115Q238 85 274.5 73.5Q311 62 351 62Q385 62 420 65Q455 68 496 82V310H328Z" glyph-name="Gtilde" horiz-adv-x="665" unicode="&#57605;" /><glyph d="M602 0H511V310H181V0H90V678H181V381H511V678H602Z" glyph-name="H" horiz-adv-x="692" unicode="H" /><glyph d="M511 381V473H181V381ZM602 0H511V310H181V0H90V678H181V544H511V678H602Z" glyph-name="Hbar" horiz-adv-x="692" unicode="&#294;" /><glyph d="M197 846H278L346 776L414 846H495L385 730H306ZM602 0H511V310H181V0H90V678H181V381H511V678H602Z" glyph-name="Hcaron" horiz-adv-x="692" unicode="&#542;" /><glyph d="M495 734H414L346 804L278 734H197L307 850H386ZM602 0H511V310H181V0H90V678H181V381H511V678H602Z" glyph-name="Hcircumflex" horiz-adv-x="692" unicode="&#292;" /><glyph d="M391 -181H302V-96H391ZM602 0H511V310H181V0H90V678H181V381H511V678H602Z" glyph-name="Hdotbelow" horiz-adv-x="692" unicode="&#7716;" /><glyph d="M512 -140H181V-72H512ZM602 0H511V310H181V0H90V678H181V381H511V678H602Z" glyph-name="Hmacronbelow" horiz-adv-x="692" unicode="&#57609;" /><glyph d="M181 0H90V678H181Z" glyph-name="I" horiz-adv-x="271" unicode="I" /><glyph d="M285 -118Q327 -52 346 16.5Q365 85 365 172V678H456V193Q456 143 452 101Q448 59 438 21.5Q428 -16 412.5 -50Q397 -84 373 -118ZM181 0H90V678H181Z" glyph-name="IJ" horiz-adv-x="546" unicode="&#306;" /><glyph d="M181 0H90V678H181ZM174 734H97L205 846H314Z" glyph-name="Iacute" horiz-adv-x="271" unicode="&#205;" /><glyph d="M181 0H90V678H181ZM135 786Q150 786 166 788.5Q182 791 195.5 798Q209 805 219 816.5Q229 828 232 846H303Q293 783 248 755.5Q203 728 135 728Q67 728 22 755.5Q-23 783 -33 846H38Q41 828 51 816.5Q61 805 74.5 798Q88 791 104 788.5Q120 786 135 786Z" glyph-name="Ibreve" horiz-adv-x="271" unicode="&#300;" /><glyph d="M181 0H90V678H181ZM-14 846H67L135 776L203 846H284L174 730H95Z" glyph-name="Icaron" horiz-adv-x="271" unicode="&#463;" /><glyph d="M181 0H90V678H181ZM284 734H203L135 804L67 734H-14L96 850H175Z" glyph-name="Icircumflex" horiz-adv-x="271" unicode="&#206;" /><glyph d="M181 0H90V678H181ZM275 755H186V841H275ZM85 755H-4V841H85Z" glyph-name="Idieresis" horiz-adv-x="271" unicode="&#207;" /><glyph d="M181 0H90V678H181ZM181 755H89V844H181Z" glyph-name="Idotaccent" horiz-adv-x="271" unicode="&#304;" /><glyph d="M181 0H90V678H181ZM180 -181H91V-96H180Z" glyph-name="Idotbelow" horiz-adv-x="271" unicode="&#7882;" /><glyph d="M181 0H90V678H181ZM-105 846H-9L99 734H35ZM35 846H131L239 734H175Z" glyph-name="Idoublegrave" horiz-adv-x="271" unicode="&#520;" /><glyph d="M181 0H90V678H181ZM-44 846H65L173 734H96Z" glyph-name="Igrave" horiz-adv-x="271" unicode="&#204;" /><glyph d="M181 0H90V678H181ZM135 794Q120 794 104 791.5Q88 789 74.5 782Q61 775 51 763.5Q41 752 38 734H-33Q-23 797 22 824.5Q67 852 135 852Q203 852 248 824.5Q293 797 303 734H232Q229 752 219 763.5Q209 775 195.5 782Q182 789 166 791.5Q150 794 135 794Z" glyph-name="Iinvertedbreve" horiz-adv-x="271" unicode="&#522;" /><glyph d="M181 0H90V678H181ZM301 767H-30V835H301Z" glyph-name="Imacron" horiz-adv-x="271" unicode="&#298;" /><glyph d="M181 0Q156 -14 141 -37Q126 -60 126 -80Q126 -96 136 -107Q146 -118 170 -118Q184 -118 200 -116Q216 -114 233 -109V-164Q218 -170 196.5 -172Q175 -174 158 -174Q100 -174 75.5 -151Q51 -128 51 -93Q51 -65 69 -39.5Q87 -14 109 0H90V678H181Z" glyph-name="Iogonek" horiz-adv-x="271" unicode="&#302;" /><glyph d="M210 824Q232 824 257 835Q282 846 302 860V794Q287 783 261 771Q235 759 211 759Q192 759 172.5 764Q153 769 134.5 775.5Q116 782 97.5 787Q79 792 61 792Q39 792 14 781Q-11 770 -31 756V822Q-16 833 10 845.5Q36 858 60 858Q79 858 98 852.5Q117 847 135.5 841Q154 835 172.5 829.5Q191 824 210 824ZM181 0H90V678H181Z" glyph-name="Itilde" horiz-adv-x="271" unicode="&#296;" /><glyph d="M14 -118Q56 -52 75 16.5Q94 85 94 172V678H185V193Q185 143 181 101Q177 59 167 21.5Q157 -16 141.5 -50Q126 -84 102 -118Z" glyph-name="J" horiz-adv-x="275" unicode="J" /><glyph d="M14 -118Q56 -52 75 16.5Q94 85 94 172V678H185V193Q185 143 181 101Q177 59 167 21.5Q157 -16 141.5 -50Q126 -84 102 -118ZM-9 846H72L140 776L208 846H289L179 730H100Z" glyph-name="Jcaron" horiz-adv-x="275" unicode="&#57611;" /><glyph d="M14 -118Q56 -52 75 16.5Q94 85 94 172V678H185V193Q185 143 181 101Q177 59 167 21.5Q157 -16 141.5 -50Q126 -84 102 -118ZM289 734H208L140 804L72 734H-9L101 850H180Z" glyph-name="Jcircumflex" horiz-adv-x="275" unicode="&#308;" /><glyph d="M603 0H497L281 310H181V0H90V678H181V381H280L474 678H574L359 350Z" glyph-name="K" horiz-adv-x="614" unicode="K" /><glyph d="M159 846H240L308 776L376 846H457L347 730H268ZM603 0H497L281 310H181V0H90V678H181V381H280L474 678H574L359 350Z" glyph-name="Kcaron" horiz-adv-x="614" unicode="&#488;" /><glyph d="M289 -34Q351 -39 374.5 -59Q398 -79 398 -103Q398 -139 364.5 -156.5Q331 -174 280 -174Q267 -174 245.5 -172.5Q224 -171 201 -164V-110Q217 -115 234.5 -117Q252 -119 267 -119Q290 -119 305 -114.5Q320 -110 320 -99Q320 -85 303 -81Q286 -77 269 -75ZM603 0H497L281 310H181V0H90V678H181V381H280L474 678H574L359 350Z" glyph-name="Kcedilla" horiz-adv-x="614" unicode="&#57613;" /><glyph d="M278 -76H370L296 -247H241ZM603 0H497L281 310H181V0H90V678H181V381H280L474 678H574L359 350Z" glyph-name="Kcommaaccent" horiz-adv-x="614" unicode="&#310;" /><glyph d="M603 0H497L281 310H181V0H90V678H181V381H280L474 678H574L359 350Z" glyph-name="Kgreenlandic" horiz-adv-x="614" unicode="&#59283;" /><glyph d="M479 588Q456 565 439.5 538.5Q423 512 407.5 483.5Q392 455 376 427.5Q360 400 339 376L603 0H497L281 310H181V0H90V678H181V381H232Q243 385 257 399Q282 424 299.5 454Q317 484 333 515Q349 546 367 577Q385 608 411 634Q432 655 461 670Q490 685 540 685Q563 685 578.5 681Q594 677 605 670V602Q594 609 576 611.5Q558 614 544 614Q523 614 508 608Q493 602 479 588Z" glyph-name="Khook" horiz-adv-x="614" unicode="&#408;" /><glyph d="M501 0H90V678H181V71H501Z" glyph-name="L" horiz-adv-x="506" unicode="L" /><glyph d="M174 734H97L205 846H314ZM501 0H90V678H181V71H501Z" glyph-name="Lacute" horiz-adv-x="506" unicode="&#313;" /><glyph d="M396 678H488L414 507H359ZM501 0H90V678H181V71H501Z" glyph-name="Lcaron" horiz-adv-x="536" unicode="&#317;" /><glyph d="M291 -34Q353 -39 376.5 -59Q400 -79 400 -103Q400 -139 366.5 -156.5Q333 -174 282 -174Q269 -174 247.5 -172.5Q226 -171 203 -164V-110Q219 -115 236.5 -117Q254 -119 269 -119Q292 -119 307 -114.5Q322 -110 322 -99Q322 -85 305 -81Q288 -77 271 -75ZM501 0H90V678H181V71H501Z" glyph-name="Lcedilla" horiz-adv-x="506" unicode="&#57615;" /><glyph d="M261 -76H353L279 -247H224ZM501 0H90V678H181V71H501Z" glyph-name="Lcommaaccent" horiz-adv-x="506" unicode="&#315;" /><glyph d="M468 303H379V388H468ZM501 0H90V678H181V71H501Z" glyph-name="Ldot" horiz-adv-x="536" unicode="&#319;" /><glyph d="M350 -181H261V-96H350ZM501 0H90V678H181V71H501Z" glyph-name="Ldotbelow" horiz-adv-x="506" unicode="&#7734;" /><glyph d="M350 -181H261V-96H350ZM301 767H-30V835H301ZM501 0H90V678H181V71H501Z" glyph-name="Ldotbelowmacron" horiz-adv-x="506" unicode="&#7736;" /><glyph d="M521 0H110V235L5 168V249L110 316V678H201V375L395 500V418L201 294V71H521Z" glyph-name="Lslash" horiz-adv-x="526" unicode="&#321;" /><glyph d="M632 678H749V0H659V190Q659 280 661.5 379Q664 478 665 568H662Q643 525 627.5 489.5Q612 454 592 414L454 142H385L247 414Q227 454 211.5 489.5Q196 525 177 568H174Q175 478 177.5 379Q180 280 180 190V0H90V678H207L418 264H421Z" glyph-name="M" horiz-adv-x="839" unicode="M" /><glyph d="M412 -34Q474 -39 497.5 -59Q521 -79 521 -103Q521 -139 487.5 -156.5Q454 -174 403 -174Q390 -174 368.5 -172.5Q347 -171 324 -164V-110Q340 -115 357.5 -117Q375 -119 390 -119Q413 -119 428 -114.5Q443 -110 443 -99Q443 -85 426 -81Q409 -77 392 -75ZM632 678H749V0H659V190Q659 280 661.5 379Q664 478 665 568H662Q643 525 627.5 489.5Q612 454 592 414L454 142H385L247 414Q227 454 211.5 489.5Q196 525 177 568H174Q175 478 177.5 379Q180 280 180 190V0H90V678H207L418 264H421Z" glyph-name="Mcedilla" horiz-adv-x="839" unicode="&#57619;" /><glyph d="M465 -181H376V-96H465ZM632 678H749V0H659V190Q659 280 661.5 379Q664 478 665 568H662Q643 525 627.5 489.5Q612 454 592 414L454 142H385L247 414Q227 454 211.5 489.5Q196 525 177 568H174Q175 478 177.5 379Q180 280 180 190V0H90V678H207L418 264H421Z" glyph-name="Mdotbelow" horiz-adv-x="839" unicode="&#7746;" /><glyph d="M585 767H254V835H585ZM632 678H749V0H659V190Q659 280 661.5 379Q664 478 665 568H662Q643 525 627.5 489.5Q612 454 592 414L454 142H385L247 414Q227 454 211.5 489.5Q196 525 177 568H174Q175 478 177.5 379Q180 280 180 190V0H90V678H207L418 264H421Z" glyph-name="Mmacron" horiz-adv-x="839" unicode="&#57617;" /><glyph d="M451 269Q473 235 490.5 205Q508 175 531 134H534Q533 174 532.5 221Q532 268 531.5 315.5Q531 363 531 408Q531 453 531 491V678H619V0H522L258 409Q236 443 218.5 473Q201 503 178 544H175Q176 504 176.5 457Q177 410 177.5 362.5Q178 315 178 269.5Q178 224 178 187V0H90V678H187Z" glyph-name="N" horiz-adv-x="709" unicode="N" /><glyph d="M387 734H310L418 846H527ZM451 269Q473 235 490.5 205Q508 175 531 134H534Q533 174 532.5 221Q532 268 531.5 315.5Q531 363 531 408Q531 453 531 491V678H619V0H522L258 409Q236 443 218.5 473Q201 503 178 544H175Q176 504 176.5 457Q177 410 177.5 362.5Q178 315 178 269.5Q178 224 178 187V0H90V678H187Z" glyph-name="Nacute" horiz-adv-x="709" unicode="&#323;" /><glyph d="M204 846H285L353 776L421 846H502L392 730H313ZM451 269Q473 235 490.5 205Q508 175 531 134H534Q533 174 532.5 221Q532 268 531.5 315.5Q531 363 531 408Q531 453 531 491V678H619V0H522L258 409Q236 443 218.5 473Q201 503 178 544H175Q176 504 176.5 457Q177 410 177.5 362.5Q178 315 178 269.5Q178 224 178 187V0H90V678H187Z" glyph-name="Ncaron" horiz-adv-x="709" unicode="&#327;" /><glyph d="M343 -34Q405 -39 428.5 -59Q452 -79 452 -103Q452 -139 418.5 -156.5Q385 -174 334 -174Q321 -174 299.5 -172.5Q278 -171 255 -164V-110Q271 -115 288.5 -117Q306 -119 321 -119Q344 -119 359 -114.5Q374 -110 374 -99Q374 -85 357 -81Q340 -77 323 -75ZM451 269Q473 235 490.5 205Q508 175 531 134H534Q533 174 532.5 221Q532 268 531.5 315.5Q531 363 531 408Q531 453 531 491V678H619V0H522L258 409Q236 443 218.5 473Q201 503 178 544H175Q176 504 176.5 457Q177 410 177.5 362.5Q178 315 178 269.5Q178 224 178 187V0H90V678H187Z" glyph-name="Ncedilla" horiz-adv-x="709" unicode="&#57625;" /><glyph d="M304 -76H396L322 -247H267ZM451 269Q473 235 490.5 205Q508 175 531 134H534Q533 174 532.5 221Q532 268 531.5 315.5Q531 363 531 408Q531 453 531 491V678H619V0H522L258 409Q236 443 218.5 473Q201 503 178 544H175Q176 504 176.5 457Q177 410 177.5 362.5Q178 315 178 269.5Q178 224 178 187V0H90V678H187Z" glyph-name="Ncommaaccent" horiz-adv-x="709" unicode="&#325;" /><glyph d="M451 269Q473 235 490.5 205Q508 175 531 134H534Q533 174 532.5 221Q532 268 531.5 315.5Q531 363 531 408Q531 453 531 491V678H619V71H698V-118H616V0H522L258 409Q236 443 218.5 473Q201 503 178 544H175Q176 504 176.5 457Q177 410 177.5 362.5Q178 315 178 269.5Q178 224 178 187V0H90V678H187Z" glyph-name="Ndescender" horiz-adv-x="709" unicode="&#59398;" /><glyph d="M493 755H404V841H493ZM303 755H214V841H303ZM451 269Q473 235 490.5 205Q508 175 531 134H534Q533 174 532.5 221Q532 268 531.5 315.5Q531 363 531 408Q531 453 531 491V678H619V0H522L258 409Q236 443 218.5 473Q201 503 178 544H175Q176 504 176.5 457Q177 410 177.5 362.5Q178 315 178 269.5Q178 224 178 187V0H90V678H187Z" glyph-name="Ndieresis" horiz-adv-x="709" unicode="&#57621;" /><glyph d="M400 755H308V844H400ZM451 269Q473 235 490.5 205Q508 175 531 134H534Q533 174 532.5 221Q532 268 531.5 315.5Q531 363 531 408Q531 453 531 491V678H619V0H522L258 409Q236 443 218.5 473Q201 503 178 544H175Q176 504 176.5 457Q177 410 177.5 362.5Q178 315 178 269.5Q178 224 178 187V0H90V678H187Z" glyph-name="Ndotaccent" horiz-adv-x="709" unicode="&#7748;" /><glyph d="M398 -181H309V-96H398ZM451 269Q473 235 490.5 205Q508 175 531 134H534Q533 174 532.5 221Q532 268 531.5 315.5Q531 363 531 408Q531 453 531 491V678H619V0H522L258 409Q236 443 218.5 473Q201 503 178 544H175Q176 504 176.5 457Q177 410 177.5 362.5Q178 315 178 269.5Q178 224 178 187V0H90V678H187Z" glyph-name="Ndotbelow" horiz-adv-x="709" unicode="&#7750;" /><glyph d="M204 846H313L421 734H344ZM451 269Q473 235 490.5 205Q508 175 531 134H534Q533 174 532.5 221Q532 268 531.5 315.5Q531 363 531 408Q531 453 531 491V678H619V0H522L258 409Q236 443 218.5 473Q201 503 178 544H175Q176 504 176.5 457Q177 410 177.5 362.5Q178 315 178 269.5Q178 224 178 187V0H90V678H187Z" glyph-name="Ngrave" horiz-adv-x="709" unicode="&#504;" /><glyph d="M521 767H190V835H521ZM451 269Q473 235 490.5 205Q508 175 531 134H534Q533 174 532.5 221Q532 268 531.5 315.5Q531 363 531 408Q531 453 531 491V678H619V0H522L258 409Q236 443 218.5 473Q201 503 178 544H175Q176 504 176.5 457Q177 410 177.5 362.5Q178 315 178 269.5Q178 224 178 187V0H90V678H187Z" glyph-name="Nmacron" horiz-adv-x="709" unicode="&#57623;" /><glyph d="M429 824Q451 824 476 835Q501 846 521 860V794Q506 783 480 771Q454 759 430 759Q411 759 391.5 764Q372 769 353.5 775.5Q335 782 316.5 787Q298 792 280 792Q258 792 233 781Q208 770 188 756V822Q203 833 229 845.5Q255 858 279 858Q298 858 317 852.5Q336 847 354.5 841Q373 835 391.5 829.5Q410 824 429 824ZM451 269Q473 235 490.5 205Q508 175 531 134H534Q533 174 532.5 221Q532 268 531.5 315.5Q531 363 531 408Q531 453 531 491V678H619V0H522L258 409Q236 443 218.5 473Q201 503 178 544H175Q176 504 176.5 457Q177 410 177.5 362.5Q178 315 178 269.5Q178 224 178 187V0H90V678H187Z" glyph-name="Ntilde" horiz-adv-x="709" unicode="&#209;" /><glyph d="M151 339Q151 269 160 217Q169 165 191 131Q213 97 250.5 80Q288 63 345 63Q402 63 439.5 80Q477 97 499 131Q521 165 530 217Q539 269 539 339Q539 409 530 461Q521 513 499 547Q477 581 439.5 598Q402 615 345 615Q288 615 250.5 598Q213 581 191 547Q169 513 160 461Q151 409 151 339ZM634 339Q634 257 620.5 192Q607 127 574 81.5Q541 36 485.5 12Q430 -12 345 -12Q260 -12 204.5 12Q149 36 116 81.5Q83 127 69.5 192Q56 257 56 339Q56 421 69.5 486Q83 551 116 596.5Q149 642 204.5 666Q260 690 345 690Q430 690 485.5 666Q541 642 574 596.5Q607 551 620.5 486Q634 421 634 339Z" glyph-name="O" horiz-adv-x="690" unicode="O" /><glyph d="M151 339Q151 269 160 217Q169 165 191 131Q213 97 250.5 80Q288 63 345 63Q402 63 439.5 80Q477 97 499 131Q521 165 530 217Q539 269 539 339Q539 409 530 461Q521 513 499 547Q477 581 439.5 598Q402 615 345 615Q288 615 250.5 598Q213 581 191 547Q169 513 160 461Q151 409 151 339ZM958 0H541V59H539Q511 24 465 6Q419 -12 345 -12Q260 -12 204.5 12Q149 36 116 81.5Q83 127 69.5 192Q56 257 56 339Q56 421 69.5 486Q83 551 116 596.5Q149 642 204.5 666Q260 690 345 690Q418 690 464.5 672Q511 654 539 620H541V678H950V607H632V381H908V310H632V71H958Z" glyph-name="OE" horiz-adv-x="996" unicode="&#338;" /><glyph d="M378 734H301L409 846H518ZM151 339Q151 269 160 217Q169 165 191 131Q213 97 250.5 80Q288 63 345 63Q402 63 439.5 80Q477 97 499 131Q521 165 530 217Q539 269 539 339Q539 409 530 461Q521 513 499 547Q477 581 439.5 598Q402 615 345 615Q288 615 250.5 598Q213 581 191 547Q169 513 160 461Q151 409 151 339ZM634 339Q634 257 620.5 192Q607 127 574 81.5Q541 36 485.5 12Q430 -12 345 -12Q260 -12 204.5 12Q149 36 116 81.5Q83 127 69.5 192Q56 257 56 339Q56 421 69.5 486Q83 551 116 596.5Q149 642 204.5 666Q260 690 345 690Q430 690 485.5 666Q541 642 574 596.5Q607 551 620.5 486Q634 421 634 339Z" glyph-name="Oacute" horiz-adv-x="690" unicode="&#211;" /><glyph d="M345 786Q360 786 376 788.5Q392 791 405.5 798Q419 805 429 816.5Q439 828 442 846H513Q503 783 458 755.5Q413 728 345 728Q277 728 232 755.5Q187 783 177 846H248Q251 828 261 816.5Q271 805 284.5 798Q298 791 314 788.5Q330 786 345 786ZM151 339Q151 269 160 217Q169 165 191 131Q213 97 250.5 80Q288 63 345 63Q402 63 439.5 80Q477 97 499 131Q521 165 530 217Q539 269 539 339Q539 409 530 461Q521 513 499 547Q477 581 439.5 598Q402 615 345 615Q288 615 250.5 598Q213 581 191 547Q169 513 160 461Q151 409 151 339ZM634 339Q634 257 620.5 192Q607 127 574 81.5Q541 36 485.5 12Q430 -12 345 -12Q260 -12 204.5 12Q149 36 116 81.5Q83 127 69.5 192Q56 257 56 339Q56 421 69.5 486Q83 551 116 596.5Q149 642 204.5 666Q260 690 345 690Q430 690 485.5 666Q541 642 574 596.5Q607 551 620.5 486Q634 421 634 339Z" glyph-name="Obreve" horiz-adv-x="690" unicode="&#334;" /><glyph d="M196 846H277L345 776L413 846H494L384 730H305ZM151 339Q151 269 160 217Q169 165 191 131Q213 97 250.5 80Q288 63 345 63Q402 63 439.5 80Q477 97 499 131Q521 165 530 217Q539 269 539 339Q539 409 530 461Q521 513 499 547Q477 581 439.5 598Q402 615 345 615Q288 615 250.5 598Q213 581 191 547Q169 513 160 461Q151 409 151 339ZM634 339Q634 257 620.5 192Q607 127 574 81.5Q541 36 485.5 12Q430 -12 345 -12Q260 -12 204.5 12Q149 36 116 81.5Q83 127 69.5 192Q56 257 56 339Q56 421 69.5 486Q83 551 116 596.5Q149 642 204.5 666Q260 690 345 690Q430 690 485.5 666Q541 642 574 596.5Q607 551 620.5 486Q634 421 634 339Z" glyph-name="Ocaron" horiz-adv-x="690" unicode="&#465;" /><glyph d="M151 339Q151 269 160 217Q169 165 191 131Q213 97 250.5 80Q288 63 345 63Q402 63 439.5 80Q477 97 499 131Q521 165 530 217Q539 269 539 339Q539 409 530 461Q521 513 499 547Q477 581 439.5 598Q402 615 345 615Q288 615 250.5 598Q213 581 191 547Q169 513 160 461Q151 409 151 339ZM308 -10Q234 -5 185.5 21Q137 47 108.5 92Q80 137 68 199Q56 261 56 339Q56 421 69.5 486Q83 551 116 596.5Q149 642 204.5 666Q260 690 345 690Q430 690 485.5 666Q541 642 574 596.5Q607 551 620.5 486Q634 421 634 339Q634 261 622 198.5Q610 136 581 91Q552 46 503 20Q454 -6 380 -11L369 -37Q399 -45 414.5 -59.5Q430 -74 430 -100Q430 -138 395.5 -156Q361 -174 306 -174Q295 -174 275.5 -172Q256 -170 233 -164V-110Q250 -115 268 -116.5Q286 -118 298 -118Q327 -118 339.5 -112.5Q352 -107 352 -94Q352 -81 334.5 -75.5Q317 -70 299 -68L293 -44Z" glyph-name="Ocedilla" horiz-adv-x="690" unicode="&#57631;" /><glyph d="M151 339Q151 269 160 217Q169 165 191 131Q213 97 250.5 80Q288 63 345 63Q402 63 439.5 80Q477 97 499 131Q521 165 530 217Q539 269 539 339Q539 409 530 461Q521 513 499 547Q477 581 439.5 598Q402 615 345 615Q288 615 250.5 598Q213 581 191 547Q169 513 160 461Q151 409 151 339ZM634 339Q634 257 620.5 192Q607 127 574 81.5Q541 36 485.5 12Q430 -12 345 -12Q260 -12 204.5 12Q149 36 116 81.5Q83 127 69.5 192Q56 257 56 339Q56 421 69.5 486Q83 551 116 596.5Q149 642 204.5 666Q260 690 345 690Q430 690 485.5 666Q541 642 574 596.5Q607 551 620.5 486Q634 421 634 339ZM494 734H413L345 804L277 734H196L306 850H385Z" glyph-name="Ocircumflex" horiz-adv-x="690" unicode="&#212;" /><glyph d="M725 566H633L707 737H762ZM151 339Q151 269 160 217Q169 165 191 131Q213 97 250.5 80Q288 63 345 63Q402 63 439.5 80Q477 97 499 131Q521 165 530 217Q539 269 539 339Q539 409 530 461Q521 513 499 547Q477 581 439.5 598Q402 615 345 615Q288 615 250.5 598Q213 581 191 547Q169 513 160 461Q151 409 151 339ZM634 339Q634 257 620.5 192Q607 127 574 81.5Q541 36 485.5 12Q430 -12 345 -12Q260 -12 204.5 12Q149 36 116 81.5Q83 127 69.5 192Q56 257 56 339Q56 421 69.5 486Q83 551 116 596.5Q149 642 204.5 666Q260 690 345 690Q430 690 485.5 666Q541 642 574 596.5Q607 551 620.5 486Q634 421 634 339Z" glyph-name="Ocommaturnedabove" horiz-adv-x="768" unicode="&#57627;" /><glyph d="M151 339Q151 269 160 217Q169 165 191 131Q213 97 250.5 80Q288 63 345 63Q402 63 439.5 80Q477 97 499 131Q521 165 530 217Q539 269 539 339Q539 409 530 461Q521 513 499 547Q477 581 439.5 598Q402 615 345 615Q288 615 250.5 598Q213 581 191 547Q169 513 160 461Q151 409 151 339ZM634 339Q634 257 620.5 192Q607 127 574 81.5Q541 36 485.5 12Q430 -12 345 -12Q260 -12 204.5 12Q149 36 116 81.5Q83 127 69.5 192Q56 257 56 339Q56 421 69.5 486Q83 551 116 596.5Q149 642 204.5 666Q260 690 345 690Q430 690 485.5 666Q541 642 574 596.5Q607 551 620.5 486Q634 421 634 339ZM485 755H396V841H485ZM295 755H206V841H295Z" glyph-name="Odieresis" horiz-adv-x="690" unicode="&#214;" /><glyph d="M391 755H299V844H391ZM151 339Q151 269 160 217Q169 165 191 131Q213 97 250.5 80Q288 63 345 63Q402 63 439.5 80Q477 97 499 131Q521 165 530 217Q539 269 539 339Q539 409 530 461Q521 513 499 547Q477 581 439.5 598Q402 615 345 615Q288 615 250.5 598Q213 581 191 547Q169 513 160 461Q151 409 151 339ZM634 339Q634 257 620.5 192Q607 127 574 81.5Q541 36 485.5 12Q430 -12 345 -12Q260 -12 204.5 12Q149 36 116 81.5Q83 127 69.5 192Q56 257 56 339Q56 421 69.5 486Q83 551 116 596.5Q149 642 204.5 666Q260 690 345 690Q430 690 485.5 666Q541 642 574 596.5Q607 551 620.5 486Q634 421 634 339Z" glyph-name="Odotabove" horiz-adv-x="690" unicode="&#558;" /><glyph d="M391 754H299V843H391ZM511 905H180V973H511ZM151 339Q151 269 160 217Q169 165 191 131Q213 97 250.5 80Q288 63 345 63Q402 63 439.5 80Q477 97 499 131Q521 165 530 217Q539 269 539 339Q539 409 530 461Q521 513 499 547Q477 581 439.5 598Q402 615 345 615Q288 615 250.5 598Q213 581 191 547Q169 513 160 461Q151 409 151 339ZM634 339Q634 257 620.5 192Q607 127 574 81.5Q541 36 485.5 12Q430 -12 345 -12Q260 -12 204.5 12Q149 36 116 81.5Q83 127 69.5 192Q56 257 56 339Q56 421 69.5 486Q83 551 116 596.5Q149 642 204.5 666Q260 690 345 690Q430 690 485.5 666Q541 642 574 596.5Q607 551 620.5 486Q634 421 634 339Z" glyph-name="Odotabovemacron" horiz-adv-x="690" unicode="&#560;" /><glyph d="M390 -181H301V-96H390ZM151 339Q151 269 160 217Q169 165 191 131Q213 97 250.5 80Q288 63 345 63Q402 63 439.5 80Q477 97 499 131Q521 165 530 217Q539 269 539 339Q539 409 530 461Q521 513 499 547Q477 581 439.5 598Q402 615 345 615Q288 615 250.5 598Q213 581 191 547Q169 513 160 461Q151 409 151 339ZM634 339Q634 257 620.5 192Q607 127 574 81.5Q541 36 485.5 12Q430 -12 345 -12Q260 -12 204.5 12Q149 36 116 81.5Q83 127 69.5 192Q56 257 56 339Q56 421 69.5 486Q83 551 116 596.5Q149 642 204.5 666Q260 690 345 690Q430 690 485.5 666Q541 642 574 596.5Q607 551 620.5 486Q634 421 634 339Z" glyph-name="Odotbelow" horiz-adv-x="690" unicode="&#7884;" /><glyph d="M115 846H211L319 734H255ZM255 846H351L459 734H395ZM151 339Q151 269 160 217Q169 165 191 131Q213 97 250.5 80Q288 63 345 63Q402 63 439.5 80Q477 97 499 131Q521 165 530 217Q539 269 539 339Q539 409 530 461Q521 513 499 547Q477 581 439.5 598Q402 615 345 615Q288 615 250.5 598Q213 581 191 547Q169 513 160 461Q151 409 151 339ZM634 339Q634 257 620.5 192Q607 127 574 81.5Q541 36 485.5 12Q430 -12 345 -12Q260 -12 204.5 12Q149 36 116 81.5Q83 127 69.5 192Q56 257 56 339Q56 421 69.5 486Q83 551 116 596.5Q149 642 204.5 666Q260 690 345 690Q430 690 485.5 666Q541 642 574 596.5Q607 551 620.5 486Q634 421 634 339Z" glyph-name="Odoublegrave" horiz-adv-x="690" unicode="&#524;" /><glyph d="M167 846H276L384 734H307ZM151 339Q151 269 160 217Q169 165 191 131Q213 97 250.5 80Q288 63 345 63Q402 63 439.5 80Q477 97 499 131Q521 165 530 217Q539 269 539 339Q539 409 530 461Q521 513 499 547Q477 581 439.5 598Q402 615 345 615Q288 615 250.5 598Q213 581 191 547Q169 513 160 461Q151 409 151 339ZM634 339Q634 257 620.5 192Q607 127 574 81.5Q541 36 485.5 12Q430 -12 345 -12Q260 -12 204.5 12Q149 36 116 81.5Q83 127 69.5 192Q56 257 56 339Q56 421 69.5 486Q83 551 116 596.5Q149 642 204.5 666Q260 690 345 690Q430 690 485.5 666Q541 642 574 596.5Q607 551 620.5 486Q634 421 634 339Z" glyph-name="Ograve" horiz-adv-x="690" unicode="&#210;" /><glyph d="M437 734H373L481 846H577ZM297 734H233L341 846H437ZM151 339Q151 269 160 217Q169 165 191 131Q213 97 250.5 80Q288 63 345 63Q402 63 439.5 80Q477 97 499 131Q521 165 530 217Q539 269 539 339Q539 409 530 461Q521 513 499 547Q477 581 439.5 598Q402 615 345 615Q288 615 250.5 598Q213 581 191 547Q169 513 160 461Q151 409 151 339ZM634 339Q634 257 620.5 192Q607 127 574 81.5Q541 36 485.5 12Q430 -12 345 -12Q260 -12 204.5 12Q149 36 116 81.5Q83 127 69.5 192Q56 257 56 339Q56 421 69.5 486Q83 551 116 596.5Q149 642 204.5 666Q260 690 345 690Q430 690 485.5 666Q541 642 574 596.5Q607 551 620.5 486Q634 421 634 339Z" glyph-name="Ohungarumlaut" horiz-adv-x="690" unicode="&#336;" /><glyph d="M345 794Q330 794 314 791.5Q298 789 284.5 782Q271 775 261 763.5Q251 752 248 734H177Q187 797 232 824.5Q277 852 345 852Q413 852 458 824.5Q503 797 513 734H442Q439 752 429 763.5Q419 775 405.5 782Q392 789 376 791.5Q360 794 345 794ZM151 339Q151 269 160 217Q169 165 191 131Q213 97 250.5 80Q288 63 345 63Q402 63 439.5 80Q477 97 499 131Q521 165 530 217Q539 269 539 339Q539 409 530 461Q521 513 499 547Q477 581 439.5 598Q402 615 345 615Q288 615 250.5 598Q213 581 191 547Q169 513 160 461Q151 409 151 339ZM634 339Q634 257 620.5 192Q607 127 574 81.5Q541 36 485.5 12Q430 -12 345 -12Q260 -12 204.5 12Q149 36 116 81.5Q83 127 69.5 192Q56 257 56 339Q56 421 69.5 486Q83 551 116 596.5Q149 642 204.5 666Q260 690 345 690Q430 690 485.5 666Q541 642 574 596.5Q607 551 620.5 486Q634 421 634 339Z" glyph-name="Oinvertedbreve" horiz-adv-x="690" unicode="&#526;" /><glyph d="M511 767H180V835H511ZM151 339Q151 269 160 217Q169 165 191 131Q213 97 250.5 80Q288 63 345 63Q402 63 439.5 80Q477 97 499 131Q521 165 530 217Q539 269 539 339Q539 409 530 461Q521 513 499 547Q477 581 439.5 598Q402 615 345 615Q288 615 250.5 598Q213 581 191 547Q169 513 160 461Q151 409 151 339ZM634 339Q634 257 620.5 192Q607 127 574 81.5Q541 36 485.5 12Q430 -12 345 -12Q260 -12 204.5 12Q149 36 116 81.5Q83 127 69.5 192Q56 257 56 339Q56 421 69.5 486Q83 551 116 596.5Q149 642 204.5 666Q260 690 345 690Q430 690 485.5 666Q541 642 574 596.5Q607 551 620.5 486Q634 421 634 339Z" glyph-name="Omacron" horiz-adv-x="690" unicode="&#332;" /><glyph d="M151 339Q151 269 160 217Q169 165 191 131Q213 97 250.5 80Q288 63 345 63Q402 63 439.5 80Q477 97 499 131Q521 165 530 217Q539 269 539 339Q539 409 530 461Q521 513 499 547Q477 581 439.5 598Q402 615 345 615Q288 615 250.5 598Q213 581 191 547Q169 513 160 461Q151 409 151 339ZM634 339Q634 262 622 200Q610 138 581.5 93Q553 48 505.5 22Q458 -4 386 -10Q368 -24 357.5 -43.5Q347 -63 347 -80Q347 -96 357 -107Q367 -118 391 -118Q405 -118 421 -116Q437 -114 454 -109V-164Q439 -170 417.5 -172Q396 -174 379 -174Q321 -174 296.5 -151Q272 -128 272 -93Q272 -70 284.5 -48Q297 -26 315 -11Q239 -7 189 19Q139 45 109.5 90Q80 135 68 198Q56 261 56 339Q56 421 69.5 486Q83 551 116 596.5Q149 642 204.5 666Q260 690 345 690Q430 690 485.5 666Q541 642 574 596.5Q607 551 620.5 486Q634 421 634 339Z" glyph-name="Oogonek" horiz-adv-x="690" unicode="&#490;" /><glyph d="M511 767H180V835H511ZM151 339Q151 269 160 217Q169 165 191 131Q213 97 250.5 80Q288 63 345 63Q402 63 439.5 80Q477 97 499 131Q521 165 530 217Q539 269 539 339Q539 409 530 461Q521 513 499 547Q477 581 439.5 598Q402 615 345 615Q288 615 250.5 598Q213 581 191 547Q169 513 160 461Q151 409 151 339ZM634 339Q634 262 622 199.5Q610 137 581.5 92.5Q553 48 505 21.5Q457 -5 385 -10Q367 -24 356.5 -43.5Q346 -63 346 -80Q346 -96 356 -107Q366 -118 390 -118Q404 -118 420 -116Q436 -114 453 -109V-164Q438 -170 416.5 -172Q395 -174 378 -174Q320 -174 295.5 -151Q271 -128 271 -93Q271 -70 284 -48Q297 -26 314 -11Q239 -7 189 19Q139 45 109.5 90Q80 135 68 198Q56 261 56 339Q56 421 69.5 486Q83 551 116 596.5Q149 642 204.5 666Q260 690 345 690Q430 690 485.5 666Q541 642 574 596.5Q607 551 620.5 486Q634 421 634 339Z" glyph-name="Oogonekmacron" horiz-adv-x="690" unicode="&#492;" /><glyph d="M539 339Q539 430 523.5 490Q508 550 467 581L290 67Q302 65 315.5 64Q329 63 345 63Q402 63 439.5 80Q477 97 499 131Q521 165 530 217Q539 269 539 339ZM151 339Q151 247 166.5 186.5Q182 126 223 95L401 610Q388 612 374.5 613.5Q361 615 345 615Q288 615 250.5 598Q213 581 191 547Q169 513 160 461Q151 409 151 339ZM495 661Q574 623 604 541Q634 459 634 339Q634 257 620.5 192Q607 127 574 81.5Q541 36 485.5 12Q430 -12 345 -12Q299 -12 265 -5L237 -86H161L196 16Q156 34 129.5 64.5Q103 95 86.5 136Q70 177 63 228Q56 279 56 339Q56 421 69.5 486Q83 551 116 596.5Q149 642 204.5 666Q260 690 345 690Q368 690 388 688Q408 686 426 683L454 762H530Z" glyph-name="Oslash" horiz-adv-x="690" unicode="&#216;" /><glyph d="M371 734H294L402 846H511ZM539 339Q539 430 523.5 490Q508 550 467 581L290 67Q302 65 315.5 64Q329 63 345 63Q402 63 439.5 80Q477 97 499 131Q521 165 530 217Q539 269 539 339ZM151 339Q151 247 166.5 186.5Q182 126 223 95L401 610Q388 612 374.5 613.5Q361 615 345 615Q288 615 250.5 598Q213 581 191 547Q169 513 160 461Q151 409 151 339ZM495 661Q574 623 604 541Q634 459 634 339Q634 257 620.5 192Q607 127 574 81.5Q541 36 485.5 12Q430 -12 345 -12Q299 -12 265 -5L237 -86H161L196 16Q156 34 129.5 64.5Q103 95 86.5 136Q70 177 63 228Q56 279 56 339Q56 421 69.5 486Q83 551 116 596.5Q149 642 204.5 666Q260 690 345 690Q368 690 388 688Q408 686 426 683L454 762H530Z" glyph-name="Oslashacute" horiz-adv-x="690" unicode="&#510;" /><glyph d="M420 824Q442 824 467 835Q492 846 512 860V794Q497 783 471 771Q445 759 421 759Q402 759 382.5 764Q363 769 344.5 775.5Q326 782 307.5 787Q289 792 271 792Q249 792 224 781Q199 770 179 756V822Q194 833 220 845.5Q246 858 270 858Q289 858 308 852.5Q327 847 345.5 841Q364 835 382.5 829.5Q401 824 420 824ZM151 339Q151 269 160 217Q169 165 191 131Q213 97 250.5 80Q288 63 345 63Q402 63 439.5 80Q477 97 499 131Q521 165 530 217Q539 269 539 339Q539 409 530 461Q521 513 499 547Q477 581 439.5 598Q402 615 345 615Q288 615 250.5 598Q213 581 191 547Q169 513 160 461Q151 409 151 339ZM634 339Q634 257 620.5 192Q607 127 574 81.5Q541 36 485.5 12Q430 -12 345 -12Q260 -12 204.5 12Q149 36 116 81.5Q83 127 69.5 192Q56 257 56 339Q56 421 69.5 486Q83 551 116 596.5Q149 642 204.5 666Q260 690 345 690Q430 690 485.5 666Q541 642 574 596.5Q607 551 620.5 486Q634 421 634 339Z" glyph-name="Otilde" horiz-adv-x="690" unicode="&#213;" /><glyph d="M420 824Q442 824 467 835Q492 846 512 860V794Q497 783 471 771Q445 759 421 759Q402 759 382.5 764Q363 769 344.5 775.5Q326 782 307.5 787Q289 792 271 792Q249 792 224 781Q199 770 179 756V822Q194 833 220 845.5Q246 858 270 858Q289 858 308 852.5Q327 847 345.5 841Q364 835 382.5 829.5Q401 824 420 824ZM511 905H180V973H511ZM151 339Q151 269 160 217Q169 165 191 131Q213 97 250.5 80Q288 63 345 63Q402 63 439.5 80Q477 97 499 131Q521 165 530 217Q539 269 539 339Q539 409 530 461Q521 513 499 547Q477 581 439.5 598Q402 615 345 615Q288 615 250.5 598Q213 581 191 547Q169 513 160 461Q151 409 151 339ZM634 339Q634 257 620.5 192Q607 127 574 81.5Q541 36 485.5 12Q430 -12 345 -12Q260 -12 204.5 12Q149 36 116 81.5Q83 127 69.5 192Q56 257 56 339Q56 421 69.5 486Q83 551 116 596.5Q149 642 204.5 666Q260 690 345 690Q430 690 485.5 666Q541 642 574 596.5Q607 551 620.5 486Q634 421 634 339Z" glyph-name="Otildemacron" horiz-adv-x="690" unicode="&#556;" /><glyph d="M384 -234H306V-76H384ZM151 339Q151 269 160 217Q169 165 191 131Q213 97 250.5 80Q288 63 345 63Q402 63 439.5 80Q477 97 499 131Q521 165 530 217Q539 269 539 339Q539 409 530 461Q521 513 499 547Q477 581 439.5 598Q402 615 345 615Q288 615 250.5 598Q213 581 191 547Q169 513 160 461Q151 409 151 339ZM634 339Q634 257 620.5 192Q607 127 574 81.5Q541 36 485.5 12Q430 -12 345 -12Q260 -12 204.5 12Q149 36 116 81.5Q83 127 69.5 192Q56 257 56 339Q56 421 69.5 486Q83 551 116 596.5Q149 642 204.5 666Q260 690 345 690Q430 690 485.5 666Q541 642 574 596.5Q607 551 620.5 486Q634 421 634 339Z" glyph-name="Ounderlineaccent" horiz-adv-x="690" unicode="&#57633;" /><glyph d="M181 0H90V678H317Q392 678 439 666.5Q486 655 517 624Q571 570 571 458Q571 346 517 292Q486 261 439 249.5Q392 238 317 238H181ZM324 309Q370 309 396.5 314.5Q423 320 445 342Q462 359 469 388Q476 417 476 458Q476 499 467 528Q458 557 441 574Q430 585 419 591.5Q408 598 394.5 601.5Q381 605 364 606Q347 607 324 607H181V309Z" glyph-name="P" horiz-adv-x="601" unicode="P" /><glyph d="M463 767H132V835H463ZM181 0H90V678H317Q392 678 439 666.5Q486 655 517 624Q571 570 571 458Q571 346 517 292Q486 261 439 249.5Q392 238 317 238H181ZM324 309Q370 309 396.5 314.5Q423 320 445 342Q462 359 469 388Q476 417 476 458Q476 499 467 528Q458 557 441 574Q430 585 419 591.5Q408 598 394.5 601.5Q381 605 364 606Q347 607 324 607H181V309Z" glyph-name="Pmacron" horiz-adv-x="601" unicode="&#57635;" /><glyph d="M151 339Q151 269 160 217Q169 165 191 131Q213 97 250.5 80Q288 63 345 63Q402 63 439.5 80Q477 97 499 131Q521 165 530 217Q539 269 539 339Q539 409 530 461Q521 513 499 547Q477 581 439.5 598Q402 615 345 615Q288 615 250.5 598Q213 581 191 547Q169 513 160 461Q151 409 151 339ZM634 339Q634 226 608 146.5Q582 67 514 26L645 -118H531L425 -5Q391 -12 345 -12Q260 -12 204.5 12Q149 36 116 81.5Q83 127 69.5 192Q56 257 56 339Q56 421 69.5 486Q83 551 116 596.5Q149 642 204.5 666Q260 690 345 690Q430 690 485.5 666Q541 642 574 596.5Q607 551 620.5 486Q634 421 634 339Z" glyph-name="Q" horiz-adv-x="690" unicode="Q" /><glyph d="M181 607V344H343Q383 344 404.5 350Q426 356 445 375Q476 404 476 476Q476 547 445 576Q426 595 404.5 601Q383 607 343 607ZM339 678Q408 678 450 667Q492 656 520 627Q571 576 571 476Q571 425 557 387.5Q543 350 518 325Q478 285 401 276L593 0H487L297 273H181V0H90V678Z" glyph-name="R" horiz-adv-x="624" unicode="R" /><glyph d="M324 734H247L355 846H464ZM181 607V344H343Q383 344 404.5 350Q426 356 445 375Q476 404 476 476Q476 547 445 576Q426 595 404.5 601Q383 607 343 607ZM339 678Q408 678 450 667Q492 656 520 627Q571 576 571 476Q571 425 557 387.5Q543 350 518 325Q478 285 401 276L593 0H487L297 273H181V0H90V678Z" glyph-name="Racute" horiz-adv-x="624" unicode="&#340;" /><glyph d="M159 846H240L308 776L376 846H457L347 730H268ZM181 607V344H343Q383 344 404.5 350Q426 356 445 375Q476 404 476 476Q476 547 445 576Q426 595 404.5 601Q383 607 343 607ZM339 678Q408 678 450 667Q492 656 520 627Q571 576 571 476Q571 425 557 387.5Q543 350 518 325Q478 285 401 276L593 0H487L297 273H181V0H90V678Z" glyph-name="Rcaron" horiz-adv-x="624" unicode="&#344;" /><glyph d="M307 -34Q369 -39 392.5 -59Q416 -79 416 -103Q416 -139 382.5 -156.5Q349 -174 298 -174Q285 -174 263.5 -172.5Q242 -171 219 -164V-110Q235 -115 252.5 -117Q270 -119 285 -119Q308 -119 323 -114.5Q338 -110 338 -99Q338 -85 321 -81Q304 -77 287 -75ZM181 607V344H343Q383 344 404.5 350Q426 356 445 375Q476 404 476 476Q476 547 445 576Q426 595 404.5 601Q383 607 343 607ZM339 678Q408 678 450 667Q492 656 520 627Q571 576 571 476Q571 425 557 387.5Q543 350 518 325Q478 285 401 276L593 0H487L297 273H181V0H90V678Z" glyph-name="Rcedilla" horiz-adv-x="624" unicode="&#57639;" /><glyph d="M275 -76H367L293 -247H238ZM181 607V344H343Q383 344 404.5 350Q426 356 445 375Q476 404 476 476Q476 547 445 576Q426 595 404.5 601Q383 607 343 607ZM339 678Q408 678 450 667Q492 656 520 627Q571 576 571 476Q571 425 557 387.5Q543 350 518 325Q478 285 401 276L593 0H487L297 273H181V0H90V678Z" glyph-name="Rcommaaccent" horiz-adv-x="624" unicode="&#342;" /><glyph d="M371 -181H282V-96H371ZM181 607V344H343Q383 344 404.5 350Q426 356 445 375Q476 404 476 476Q476 547 445 576Q426 595 404.5 601Q383 607 343 607ZM339 678Q408 678 450 667Q492 656 520 627Q571 576 571 476Q571 425 557 387.5Q543 350 518 325Q478 285 401 276L593 0H487L297 273H181V0H90V678Z" glyph-name="Rdotbelow" horiz-adv-x="624" unicode="&#7770;" /><glyph d="M371 -181H282V-96H371ZM464 767H133V835H464ZM181 607V344H343Q383 344 404.5 350Q426 356 445 375Q476 404 476 476Q476 547 445 576Q426 595 404.5 601Q383 607 343 607ZM339 678Q408 678 450 667Q492 656 520 627Q571 576 571 476Q571 425 557 387.5Q543 350 518 325Q478 285 401 276L593 0H487L297 273H181V0H90V678Z" glyph-name="Rdotbelowmacron" horiz-adv-x="624" unicode="&#7772;" /><glyph d="M78 846H174L282 734H218ZM218 846H314L422 734H358ZM181 607V344H343Q383 344 404.5 350Q426 356 445 375Q476 404 476 476Q476 547 445 576Q426 595 404.5 601Q383 607 343 607ZM339 678Q408 678 450 667Q492 656 520 627Q571 576 571 476Q571 425 557 387.5Q543 350 518 325Q478 285 401 276L593 0H487L297 273H181V0H90V678Z" glyph-name="Rdoublegrave" horiz-adv-x="624" unicode="&#57637;" /><glyph d="M296 794Q281 794 265 791.5Q249 789 235.5 782Q222 775 212 763.5Q202 752 199 734H128Q138 797 183 824.5Q228 852 296 852Q364 852 409 824.5Q454 797 464 734H393Q390 752 380 763.5Q370 775 356.5 782Q343 789 327 791.5Q311 794 296 794ZM181 607V344H343Q383 344 404.5 350Q426 356 445 375Q476 404 476 476Q476 547 445 576Q426 595 404.5 601Q383 607 343 607ZM339 678Q408 678 450 667Q492 656 520 627Q571 576 571 476Q571 425 557 387.5Q543 350 518 325Q478 285 401 276L593 0H487L297 273H181V0H90V678Z" glyph-name="Rinvertedbreve" horiz-adv-x="624" unicode="&#530;" /><glyph d="M267 67Q363 67 404 100.5Q445 134 445 188Q445 228 432 251.5Q419 275 396.5 287Q374 299 342.5 302.5Q311 306 275 307Q231 308 192 317.5Q153 327 124 348.5Q95 370 78.5 406Q62 442 62 497Q62 554 83.5 591.5Q105 629 141 650.5Q177 672 223.5 681Q270 690 320 690Q332 690 352.5 689Q373 688 396 686Q419 684 443.5 679Q468 674 489 667V592Q441 608 395.5 611.5Q350 615 318 615Q241 615 199.5 586.5Q158 558 158 504Q158 465 171 444.5Q184 424 206 414Q228 404 258 401.5Q288 399 323 397Q364 394 403.5 386Q443 378 473.5 356.5Q504 335 522.5 297Q541 259 541 198Q541 136 517 95.5Q493 55 454 31Q415 7 365.5 -2.5Q316 -12 265 -12Q253 -12 228.5 -11Q204 -10 175.5 -7Q147 -4 118.5 1.5Q90 7 68 16V95Q92 86 120.5 80.5Q149 75 176 72Q203 69 227 68Q251 67 267 67Z" glyph-name="S" horiz-adv-x="582" unicode="S" /><glyph d="M326 734H249L357 846H466ZM267 67Q363 67 404 100.5Q445 134 445 188Q445 228 432 251.5Q419 275 396.5 287Q374 299 342.5 302.5Q311 306 275 307Q231 308 192 317.5Q153 327 124 348.5Q95 370 78.5 406Q62 442 62 497Q62 554 83.5 591.5Q105 629 141 650.5Q177 672 223.5 681Q270 690 320 690Q332 690 352.5 689Q373 688 396 686Q419 684 443.5 679Q468 674 489 667V592Q441 608 395.5 611.5Q350 615 318 615Q241 615 199.5 586.5Q158 558 158 504Q158 465 171 444.5Q184 424 206 414Q228 404 258 401.5Q288 399 323 397Q364 394 403.5 386Q443 378 473.5 356.5Q504 335 522.5 297Q541 259 541 198Q541 136 517 95.5Q493 55 454 31Q415 7 365.5 -2.5Q316 -12 265 -12Q253 -12 228.5 -11Q204 -10 175.5 -7Q147 -4 118.5 1.5Q90 7 68 16V95Q92 86 120.5 80.5Q149 75 176 72Q203 69 227 68Q251 67 267 67Z" glyph-name="Sacute" horiz-adv-x="582" unicode="&#346;" /><glyph d="M145 846H226L294 776L362 846H443L333 730H254ZM267 67Q363 67 404 100.5Q445 134 445 188Q445 228 432 251.5Q419 275 396.5 287Q374 299 342.5 302.5Q311 306 275 307Q231 308 192 317.5Q153 327 124 348.5Q95 370 78.5 406Q62 442 62 497Q62 554 83.5 591.5Q105 629 141 650.5Q177 672 223.5 681Q270 690 320 690Q332 690 352.5 689Q373 688 396 686Q419 684 443.5 679Q468 674 489 667V592Q441 608 395.5 611.5Q350 615 318 615Q241 615 199.5 586.5Q158 558 158 504Q158 465 171 444.5Q184 424 206 414Q228 404 258 401.5Q288 399 323 397Q364 394 403.5 386Q443 378 473.5 356.5Q504 335 522.5 297Q541 259 541 198Q541 136 517 95.5Q493 55 454 31Q415 7 365.5 -2.5Q316 -12 265 -12Q253 -12 228.5 -11Q204 -10 175.5 -7Q147 -4 118.5 1.5Q90 7 68 16V95Q92 86 120.5 80.5Q149 75 176 72Q203 69 227 68Q251 67 267 67Z" glyph-name="Scaron" horiz-adv-x="582" unicode="&#352;" /><glyph d="M256 -12Q241 -12 217.5 -10.5Q194 -9 167.5 -6Q141 -3 114.5 2.5Q88 8 68 16V95Q92 86 120.5 80.5Q149 75 176 72Q203 69 227 68Q251 67 267 67Q363 67 404 100.5Q445 134 445 188Q445 228 432 251.5Q419 275 396.5 287Q374 299 342.5 302.5Q311 306 275 307Q231 308 192 317.5Q153 327 124 348.5Q95 370 78.5 406Q62 442 62 497Q62 554 83.5 591.5Q105 629 141 650.5Q177 672 223.5 681Q270 690 320 690Q332 690 352.5 689Q373 688 396 686Q419 684 443.5 679Q468 674 489 667V592Q441 608 395.5 611.5Q350 615 318 615Q241 615 199.5 586.5Q158 558 158 504Q158 465 171 444.5Q184 424 206 414Q228 404 258 401.5Q288 399 323 397Q364 394 403.5 386Q443 378 473.5 356.5Q504 335 522.5 297Q541 259 541 198Q541 146 524 109.5Q507 73 478 48.5Q449 24 410.5 10.5Q372 -3 330 -8L318 -37Q348 -45 363.5 -59.5Q379 -74 379 -100Q379 -138 344.5 -156Q310 -174 255 -174Q244 -174 224.5 -172Q205 -170 182 -164V-110Q199 -115 217 -116.5Q235 -118 247 -118Q276 -118 288.5 -112.5Q301 -107 301 -94Q301 -81 283.5 -75.5Q266 -70 248 -68L242 -44Z" glyph-name="Scedilla" horiz-adv-x="582" unicode="&#350;" /><glyph d="M322 62Q360 62 397.5 72.5Q435 83 462 110Q512 160 522 285H146Q145 274 145 263Q145 252 145 245Q145 199 155 163.5Q165 128 189 104Q211 82 245.5 72Q280 62 322 62ZM524 356Q522 430 510 478.5Q498 527 464 562Q411 615 281 615Q239 615 188.5 610Q138 605 87 588V661Q138 678 197 684Q256 690 301 690Q467 690 543 607Q619 524 619 342Q619 243 596.5 175.5Q574 108 534.5 66.5Q495 25 440 7Q385 -11 320 -11Q181 -11 118.5 60Q56 131 56 270Q56 280 57.5 307Q59 334 61 356Z" glyph-name="Schwa" horiz-adv-x="675" unicode="&#399;" /><glyph d="M443 734H362L294 804L226 734H145L255 850H334ZM267 67Q363 67 404 100.5Q445 134 445 188Q445 228 432 251.5Q419 275 396.5 287Q374 299 342.5 302.5Q311 306 275 307Q231 308 192 317.5Q153 327 124 348.5Q95 370 78.5 406Q62 442 62 497Q62 554 83.5 591.5Q105 629 141 650.5Q177 672 223.5 681Q270 690 320 690Q332 690 352.5 689Q373 688 396 686Q419 684 443.5 679Q468 674 489 667V592Q441 608 395.5 611.5Q350 615 318 615Q241 615 199.5 586.5Q158 558 158 504Q158 465 171 444.5Q184 424 206 414Q228 404 258 401.5Q288 399 323 397Q364 394 403.5 386Q443 378 473.5 356.5Q504 335 522.5 297Q541 259 541 198Q541 136 517 95.5Q493 55 454 31Q415 7 365.5 -2.5Q316 -12 265 -12Q253 -12 228.5 -11Q204 -10 175.5 -7Q147 -4 118.5 1.5Q90 7 68 16V95Q92 86 120.5 80.5Q149 75 176 72Q203 69 227 68Q251 67 267 67Z" glyph-name="Scircumflex" horiz-adv-x="582" unicode="&#348;" /><glyph d="M262 -76H354L280 -247H225ZM267 67Q363 67 404 100.5Q445 134 445 188Q445 228 432 251.5Q419 275 396.5 287Q374 299 342.5 302.5Q311 306 275 307Q231 308 192 317.5Q153 327 124 348.5Q95 370 78.5 406Q62 442 62 497Q62 554 83.5 591.5Q105 629 141 650.5Q177 672 223.5 681Q270 690 320 690Q332 690 352.5 689Q373 688 396 686Q419 684 443.5 679Q468 674 489 667V592Q441 608 395.5 611.5Q350 615 318 615Q241 615 199.5 586.5Q158 558 158 504Q158 465 171 444.5Q184 424 206 414Q228 404 258 401.5Q288 399 323 397Q364 394 403.5 386Q443 378 473.5 356.5Q504 335 522.5 297Q541 259 541 198Q541 136 517 95.5Q493 55 454 31Q415 7 365.5 -2.5Q316 -12 265 -12Q253 -12 228.5 -11Q204 -10 175.5 -7Q147 -4 118.5 1.5Q90 7 68 16V95Q92 86 120.5 80.5Q149 75 176 72Q203 69 227 68Q251 67 267 67Z" glyph-name="Scommaaccent" horiz-adv-x="582" unicode="&#536;" /><glyph d="M345 -181H256V-96H345ZM267 67Q363 67 404 100.5Q445 134 445 188Q445 228 432 251.5Q419 275 396.5 287Q374 299 342.5 302.5Q311 306 275 307Q231 308 192 317.5Q153 327 124 348.5Q95 370 78.5 406Q62 442 62 497Q62 554 83.5 591.5Q105 629 141 650.5Q177 672 223.5 681Q270 690 320 690Q332 690 352.5 689Q373 688 396 686Q419 684 443.5 679Q468 674 489 667V592Q441 608 395.5 611.5Q350 615 318 615Q241 615 199.5 586.5Q158 558 158 504Q158 465 171 444.5Q184 424 206 414Q228 404 258 401.5Q288 399 323 397Q364 394 403.5 386Q443 378 473.5 356.5Q504 335 522.5 297Q541 259 541 198Q541 136 517 95.5Q493 55 454 31Q415 7 365.5 -2.5Q316 -12 265 -12Q253 -12 228.5 -11Q204 -10 175.5 -7Q147 -4 118.5 1.5Q90 7 68 16V95Q92 86 120.5 80.5Q149 75 176 72Q203 69 227 68Q251 67 267 67Z" glyph-name="Sdotbelow" horiz-adv-x="582" unicode="&#7778;" /><glyph d="M307 0H216V607H15V678H508V607H307Z" glyph-name="T" horiz-adv-x="523" unicode="T" /><glyph d="M450 310H307V0H216V310H74V381H216V607H15V678H508V607H307V381H450Z" glyph-name="Tbar" horiz-adv-x="523" unicode="&#358;" /><glyph d="M112 846H193L261 776L329 846H410L300 730H221ZM307 0H216V607H15V678H508V607H307Z" glyph-name="Tcaron" horiz-adv-x="523" unicode="&#356;" /><glyph d="M243 -34Q305 -39 328.5 -59Q352 -79 352 -103Q352 -139 318.5 -156.5Q285 -174 234 -174Q221 -174 199.5 -172.5Q178 -171 155 -164V-110Q171 -115 188.5 -117Q206 -119 221 -119Q244 -119 259 -114.5Q274 -110 274 -99Q274 -85 257 -81Q240 -77 223 -75ZM307 0H216V607H15V678H508V607H307Z" glyph-name="Tcedilla" horiz-adv-x="523" unicode="&#57641;" /><glyph d="M213 -76H305L231 -247H176ZM307 0H216V607H15V678H508V607H307Z" glyph-name="Tcommaaccent" horiz-adv-x="523" unicode="&#354;" /><glyph d="M306 -181H217V-96H306ZM307 0H216V607H15V678H508V607H307Z" glyph-name="Tdotbelow" horiz-adv-x="523" unicode="&#7788;" /><glyph d="M181 0H90V678H182V549H317Q392 549 439 537.5Q486 526 517 495Q571 441 571 329Q571 217 517 163Q486 132 439 120.5Q392 109 317 109H181ZM324 180Q370 180 396.5 185.5Q423 191 445 213Q462 230 469 259Q476 288 476 329Q476 370 467 399Q458 428 441 445Q430 456 419 462.5Q408 469 394.5 472.5Q381 476 364 477Q347 478 324 478H181V180Z" glyph-name="Thorn" horiz-adv-x="601" unicode="&#222;" /><glyph d="M333 -12Q261 -12 213.5 3.5Q166 19 134 51Q97 88 86 135Q75 182 75 231V678H166V213Q166 187 172 156Q178 125 204 99Q225 78 254.5 68Q284 58 333 58Q382 58 411.5 68Q441 78 462 99Q488 125 494 156Q500 187 500 213V678H591V231Q591 182 580 135Q569 88 532 51Q500 19 452.5 3.5Q405 -12 333 -12Z" glyph-name="U" horiz-adv-x="666" unicode="U" /><glyph d="M917 0H441Q396 -12 333 -12Q261 -12 213.5 3.5Q166 19 134 51Q97 88 86 135Q75 182 75 231V678H166V213Q166 187 172 156Q178 125 204 99Q225 78 254.5 68Q284 58 333 58Q382 58 411.5 68Q441 78 462 99Q484 121 492 148Q500 175 500 199V678H909V607H591V381H867V310H591V71H917Z" glyph-name="UE" horiz-adv-x="955" unicode="&#59481;" /><glyph d="M366 734H289L397 846H506ZM333 -12Q261 -12 213.5 3.5Q166 19 134 51Q97 88 86 135Q75 182 75 231V678H166V213Q166 187 172 156Q178 125 204 99Q225 78 254.5 68Q284 58 333 58Q382 58 411.5 68Q441 78 462 99Q488 125 494 156Q500 187 500 213V678H591V231Q591 182 580 135Q569 88 532 51Q500 19 452.5 3.5Q405 -12 333 -12Z" glyph-name="Uacute" horiz-adv-x="666" unicode="&#218;" /><glyph d="M333 786Q348 786 364 788.5Q380 791 393.5 798Q407 805 417 816.5Q427 828 430 846H501Q491 783 446 755.5Q401 728 333 728Q265 728 220 755.5Q175 783 165 846H236Q239 828 249 816.5Q259 805 272.5 798Q286 791 302 788.5Q318 786 333 786ZM333 -12Q261 -12 213.5 3.5Q166 19 134 51Q97 88 86 135Q75 182 75 231V678H166V213Q166 187 172 156Q178 125 204 99Q225 78 254.5 68Q284 58 333 58Q382 58 411.5 68Q441 78 462 99Q488 125 494 156Q500 187 500 213V678H591V231Q591 182 580 135Q569 88 532 51Q500 19 452.5 3.5Q405 -12 333 -12Z" glyph-name="Ubreve" horiz-adv-x="666" unicode="&#364;" /><glyph d="M184 846H265L333 776L401 846H482L372 730H293ZM333 -12Q261 -12 213.5 3.5Q166 19 134 51Q97 88 86 135Q75 182 75 231V678H166V213Q166 187 172 156Q178 125 204 99Q225 78 254.5 68Q284 58 333 58Q382 58 411.5 68Q441 78 462 99Q488 125 494 156Q500 187 500 213V678H591V231Q591 182 580 135Q569 88 532 51Q500 19 452.5 3.5Q405 -12 333 -12Z" glyph-name="Ucaron" horiz-adv-x="666" unicode="&#467;" /><glyph d="M482 734H401L333 804L265 734H184L294 850H373ZM333 -12Q261 -12 213.5 3.5Q166 19 134 51Q97 88 86 135Q75 182 75 231V678H166V213Q166 187 172 156Q178 125 204 99Q225 78 254.5 68Q284 58 333 58Q382 58 411.5 68Q441 78 462 99Q488 125 494 156Q500 187 500 213V678H591V231Q591 182 580 135Q569 88 532 51Q500 19 452.5 3.5Q405 -12 333 -12Z" glyph-name="Ucircumflex" horiz-adv-x="666" unicode="&#219;" /><glyph d="M473 755H384V841H473ZM283 755H194V841H283ZM333 -12Q261 -12 213.5 3.5Q166 19 134 51Q97 88 86 135Q75 182 75 231V678H166V213Q166 187 172 156Q178 125 204 99Q225 78 254.5 68Q284 58 333 58Q382 58 411.5 68Q441 78 462 99Q488 125 494 156Q500 187 500 213V678H591V231Q591 182 580 135Q569 88 532 51Q500 19 452.5 3.5Q405 -12 333 -12Z" glyph-name="Udieresis" horiz-adv-x="666" unicode="&#220;" /><glyph d="M378 -181H289V-96H378ZM333 -12Q261 -12 213.5 3.5Q166 19 134 51Q97 88 86 135Q75 182 75 231V678H166V213Q166 187 172 156Q178 125 204 99Q225 78 254.5 68Q284 58 333 58Q382 58 411.5 68Q441 78 462 99Q488 125 494 156Q500 187 500 213V678H591V231Q591 182 580 135Q569 88 532 51Q500 19 452.5 3.5Q405 -12 333 -12Z" glyph-name="Udotbelow" horiz-adv-x="666" unicode="&#7908;" /><glyph d="M108 846H204L312 734H248ZM248 846H344L452 734H388ZM333 -12Q261 -12 213.5 3.5Q166 19 134 51Q97 88 86 135Q75 182 75 231V678H166V213Q166 187 172 156Q178 125 204 99Q225 78 254.5 68Q284 58 333 58Q382 58 411.5 68Q441 78 462 99Q488 125 494 156Q500 187 500 213V678H591V231Q591 182 580 135Q569 88 532 51Q500 19 452.5 3.5Q405 -12 333 -12Z" glyph-name="Udoublegrave" horiz-adv-x="666" unicode="&#532;" /><glyph d="M167 846H276L384 734H307ZM333 -12Q261 -12 213.5 3.5Q166 19 134 51Q97 88 86 135Q75 182 75 231V678H166V213Q166 187 172 156Q178 125 204 99Q225 78 254.5 68Q284 58 333 58Q382 58 411.5 68Q441 78 462 99Q488 125 494 156Q500 187 500 213V678H591V231Q591 182 580 135Q569 88 532 51Q500 19 452.5 3.5Q405 -12 333 -12Z" glyph-name="Ugrave" horiz-adv-x="666" unicode="&#217;" /><glyph d="M416 734H352L460 846H556ZM276 734H212L320 846H416ZM333 -12Q261 -12 213.5 3.5Q166 19 134 51Q97 88 86 135Q75 182 75 231V678H166V213Q166 187 172 156Q178 125 204 99Q225 78 254.5 68Q284 58 333 58Q382 58 411.5 68Q441 78 462 99Q488 125 494 156Q500 187 500 213V678H591V231Q591 182 580 135Q569 88 532 51Q500 19 452.5 3.5Q405 -12 333 -12Z" glyph-name="Uhungarumlaut" horiz-adv-x="666" unicode="&#368;" /><glyph d="M333 794Q318 794 302 791.5Q286 789 272.5 782Q259 775 249 763.5Q239 752 236 734H165Q175 797 220 824.5Q265 852 333 852Q401 852 446 824.5Q491 797 501 734H430Q427 752 417 763.5Q407 775 393.5 782Q380 789 364 791.5Q348 794 333 794ZM333 -12Q261 -12 213.5 3.5Q166 19 134 51Q97 88 86 135Q75 182 75 231V678H166V213Q166 187 172 156Q178 125 204 99Q225 78 254.5 68Q284 58 333 58Q382 58 411.5 68Q441 78 462 99Q488 125 494 156Q500 187 500 213V678H591V231Q591 182 580 135Q569 88 532 51Q500 19 452.5 3.5Q405 -12 333 -12Z" glyph-name="Uinvertedbreve" horiz-adv-x="666" unicode="&#534;" /><glyph d="M499 767H168V835H499ZM333 -12Q261 -12 213.5 3.5Q166 19 134 51Q97 88 86 135Q75 182 75 231V678H166V213Q166 187 172 156Q178 125 204 99Q225 78 254.5 68Q284 58 333 58Q382 58 411.5 68Q441 78 462 99Q488 125 494 156Q500 187 500 213V678H591V231Q591 182 580 135Q569 88 532 51Q500 19 452.5 3.5Q405 -12 333 -12Z" glyph-name="Umacron" horiz-adv-x="666" unicode="&#362;" /><glyph d="M499 -157H168V-89H499ZM333 -12Q261 -12 213.5 3.5Q166 19 134 51Q97 88 86 135Q75 182 75 231V678H166V213Q166 187 172 156Q178 125 204 99Q225 78 254.5 68Q284 58 333 58Q382 58 411.5 68Q441 78 462 99Q488 125 494 156Q500 187 500 213V678H591V231Q591 182 580 135Q569 88 532 51Q500 19 452.5 3.5Q405 -12 333 -12Z" glyph-name="Umacronbelow" horiz-adv-x="666" unicode="&#57643;" /><glyph d="M532 51Q504 23 466.5 8.5Q429 -6 374 -10Q356 -24 345.5 -43.5Q335 -63 335 -80Q335 -96 345 -107Q355 -118 379 -118Q393 -118 409 -116Q425 -114 442 -109V-164Q427 -170 405.5 -172Q384 -174 367 -174Q309 -174 284.5 -151Q260 -128 260 -93Q260 -70 273 -48.5Q286 -27 303 -11Q243 -8 203 7Q163 22 134 51Q97 88 86 135Q75 182 75 231V678H166V213Q166 187 172 156Q178 125 204 99Q225 78 254.5 68Q284 58 333 58Q382 58 411.5 68Q441 78 462 99Q488 125 494 156Q500 187 500 213V678H591V231Q591 182 580 135Q569 88 532 51Z" glyph-name="Uogonek" horiz-adv-x="666" unicode="&#370;" /><glyph d="M423 808Q423 769 400 752Q377 735 334 735Q291 735 267.5 752Q244 769 244 808Q244 847 267.5 864Q291 881 334 881Q377 881 400 864Q423 847 423 808ZM370 808Q370 841 334 841Q297 841 297 808Q297 776 334 776Q370 776 370 808ZM333 -12Q261 -12 213.5 3.5Q166 19 134 51Q97 88 86 135Q75 182 75 231V678H166V213Q166 187 172 156Q178 125 204 99Q225 78 254.5 68Q284 58 333 58Q382 58 411.5 68Q441 78 462 99Q488 125 494 156Q500 187 500 213V678H591V231Q591 182 580 135Q569 88 532 51Q500 19 452.5 3.5Q405 -12 333 -12Z" glyph-name="Uring" horiz-adv-x="666" unicode="&#366;" /><glyph d="M408 824Q430 824 455 835Q480 846 500 860V794Q485 783 459 771Q433 759 409 759Q390 759 370.5 764Q351 769 332.5 775.5Q314 782 295.5 787Q277 792 259 792Q237 792 212 781Q187 770 167 756V822Q182 833 208 845.5Q234 858 258 858Q277 858 296 852.5Q315 847 333.5 841Q352 835 370.5 829.5Q389 824 408 824ZM333 -12Q261 -12 213.5 3.5Q166 19 134 51Q97 88 86 135Q75 182 75 231V678H166V213Q166 187 172 156Q178 125 204 99Q225 78 254.5 68Q284 58 333 58Q382 58 411.5 68Q441 78 462 99Q488 125 494 156Q500 187 500 213V678H591V231Q591 182 580 135Q569 88 532 51Q500 19 452.5 3.5Q405 -12 333 -12Z" glyph-name="Utilde" horiz-adv-x="666" unicode="&#360;" /><glyph d="M591 678 357 0H243L9 678H105L237 286Q255 232 272 179Q289 126 300 90H304Q315 126 332 179Q349 232 367 286L499 678Z" glyph-name="V" horiz-adv-x="600" unicode="V" /><glyph d="M468 451Q461 430 451.5 402.5Q442 375 431.5 345Q421 315 410.5 286Q400 257 392 234L307 0H208L14 678H103L187 373Q205 306 223 237.5Q241 169 258 101H262Q284 167 307.5 234.5Q331 302 354 367L424 568L384 678H475L577 388Q602 318 627 246Q652 174 675 103H679Q699 175 717.5 247Q736 319 758 399L835 678H924L730 0H631L547 234Q539 256 528.5 285.5Q518 315 507.5 345Q497 375 487.5 403Q478 431 471 451Z" glyph-name="W" horiz-adv-x="938" unicode="W" /><glyph d="M467 734H390L498 846H607ZM468 451Q461 430 451.5 402.5Q442 375 431.5 345Q421 315 410.5 286Q400 257 392 234L307 0H208L14 678H103L187 373Q205 306 223 237.5Q241 169 258 101H262Q284 167 307.5 234.5Q331 302 354 367L424 568L384 678H475L577 388Q602 318 627 246Q652 174 675 103H679Q699 175 717.5 247Q736 319 758 399L835 678H924L730 0H631L547 234Q539 256 528.5 285.5Q518 315 507.5 345Q497 375 487.5 403Q478 431 471 451Z" glyph-name="Wacute" horiz-adv-x="938" unicode="&#7810;" /><glyph d="M618 734H537L469 804L401 734H320L430 850H509ZM468 451Q461 430 451.5 402.5Q442 375 431.5 345Q421 315 410.5 286Q400 257 392 234L307 0H208L14 678H103L187 373Q205 306 223 237.5Q241 169 258 101H262Q284 167 307.5 234.5Q331 302 354 367L424 568L384 678H475L577 388Q602 318 627 246Q652 174 675 103H679Q699 175 717.5 247Q736 319 758 399L835 678H924L730 0H631L547 234Q539 256 528.5 285.5Q518 315 507.5 345Q497 375 487.5 403Q478 431 471 451Z" glyph-name="Wcircumflex" horiz-adv-x="938" unicode="&#372;" /><glyph d="M609 755H520V841H609ZM419 755H330V841H419ZM468 451Q461 430 451.5 402.5Q442 375 431.5 345Q421 315 410.5 286Q400 257 392 234L307 0H208L14 678H103L187 373Q205 306 223 237.5Q241 169 258 101H262Q284 167 307.5 234.5Q331 302 354 367L424 568L384 678H475L577 388Q602 318 627 246Q652 174 675 103H679Q699 175 717.5 247Q736 319 758 399L835 678H924L730 0H631L547 234Q539 256 528.5 285.5Q518 315 507.5 345Q497 375 487.5 403Q478 431 471 451Z" glyph-name="Wdieresis" horiz-adv-x="938" unicode="&#7812;" /><glyph d="M247 846H356L464 734H387ZM468 451Q461 430 451.5 402.5Q442 375 431.5 345Q421 315 410.5 286Q400 257 392 234L307 0H208L14 678H103L187 373Q205 306 223 237.5Q241 169 258 101H262Q284 167 307.5 234.5Q331 302 354 367L424 568L384 678H475L577 388Q602 318 627 246Q652 174 675 103H679Q699 175 717.5 247Q736 319 758 399L835 678H924L730 0H631L547 234Q539 256 528.5 285.5Q518 315 507.5 345Q497 375 487.5 403Q478 431 471 451Z" glyph-name="Wgrave" horiz-adv-x="938" unicode="&#7808;" /><glyph d="M117 678 283 418 450 678H551L334 344L558 0H457L283 271L110 0H9L233 344L16 678Z" glyph-name="X" horiz-adv-x="567" unicode="X" /><glyph d="M289 344H290L477 678H571L333 264V0H242V263L4 678H103Z" glyph-name="Y" horiz-adv-x="575" unicode="Y" /><glyph d="M317 734H240L348 846H457ZM289 344H290L477 678H571L333 264V0H242V263L4 678H103Z" glyph-name="Yacute" horiz-adv-x="575" unicode="&#221;" /><glyph d="M439 734H358L290 804L222 734H141L251 850H330ZM289 344H290L477 678H571L333 264V0H242V263L4 678H103Z" glyph-name="Ycircumflex" horiz-adv-x="575" unicode="&#374;" /><glyph d="M429 755H340V841H429ZM239 755H150V841H239ZM289 344H290L477 678H571L333 264V0H242V263L4 678H103Z" glyph-name="Ydieresis" horiz-adv-x="575" unicode="&#376;" /><glyph d="M118 846H227L335 734H258ZM289 344H290L477 678H571L333 264V0H242V263L4 678H103Z" glyph-name="Ygrave" horiz-adv-x="575" unicode="&#7922;" /><glyph d="M455 767H124V835H455ZM289 344H290L477 678H571L333 264V0H242V263L4 678H103Z" glyph-name="Ymacron" horiz-adv-x="575" unicode="&#562;" /><glyph d="M134 329 363 605V607H33V678H471V603L252 343Q305 339 350.5 324Q396 309 430 280.5Q464 252 483 208.5Q502 165 502 105Q502 40 477.5 -4.5Q453 -49 412.5 -77Q372 -105 321 -117.5Q270 -130 217 -130Q193 -130 164 -128Q135 -126 107 -122.5Q79 -119 54 -113.5Q29 -108 12 -101V-19Q37 -28 66.5 -34Q96 -40 124.5 -43Q153 -46 177.5 -47.5Q202 -49 219 -49Q269 -49 304 -36.5Q339 -24 361.5 -3.5Q384 17 394.5 43.5Q405 70 405 99Q405 184 354 220.5Q303 257 197 258Q183 258 168 257.5Q153 257 139 255Z" glyph-name="Yogh" horiz-adv-x="554" unicode="&#439;" /><glyph d="M125 846H206L274 776L342 846H423L313 730H234ZM134 329 363 605V607H33V678H471V603L252 343Q305 339 350.5 324Q396 309 430 280.5Q464 252 483 208.5Q502 165 502 105Q502 40 477.5 -4.5Q453 -49 412.5 -77Q372 -105 321 -117.5Q270 -130 217 -130Q193 -130 164 -128Q135 -126 107 -122.5Q79 -119 54 -113.5Q29 -108 12 -101V-19Q37 -28 66.5 -34Q96 -40 124.5 -43Q153 -46 177.5 -47.5Q202 -49 219 -49Q269 -49 304 -36.5Q339 -24 361.5 -3.5Q384 17 394.5 43.5Q405 70 405 99Q405 184 354 220.5Q303 257 197 258Q183 258 168 257.5Q153 257 139 255Z" glyph-name="Yoghcaron" horiz-adv-x="549" unicode="&#59526;" /><glyph d="M364 830Q386 830 411 841Q436 852 456 866V800Q441 789 415 777Q389 765 365 765Q346 765 326.5 770Q307 775 288.5 781.5Q270 788 251.5 793Q233 798 215 798Q193 798 168 787Q143 776 123 762V828Q138 839 164 851.5Q190 864 214 864Q233 864 252 858.5Q271 853 289.5 847Q308 841 326.5 835.5Q345 830 364 830ZM289 344H290L477 678H571L333 264V0H242V263L4 678H103Z" glyph-name="Ytilde" horiz-adv-x="575" unicode="&#7928;" /><glyph d="M494 611 145 72V71H495V0H41V66L390 606V607H56V678H494Z" glyph-name="Z" horiz-adv-x="536" unicode="Z" /><glyph d="M293 734H216L324 846H433ZM494 611 145 72V71H495V0H41V66L390 606V607H56V678H494Z" glyph-name="Zacute" horiz-adv-x="536" unicode="&#377;" /><glyph d="M128 846H209L277 776L345 846H426L316 730H237ZM494 611 145 72V71H495V0H41V66L390 606V607H56V678H494Z" glyph-name="Zcaron" horiz-adv-x="536" unicode="&#381;" /><glyph d="M324 755H232V844H324ZM494 611 145 72V71H495V0H41V66L390 606V607H56V678H494Z" glyph-name="Zdotaccent" horiz-adv-x="536" unicode="&#379;" /><glyph d="M372 235Q342 238 316 239Q290 240 282 240Q250 240 229.5 238Q209 236 194.5 232Q180 228 171 221.5Q162 215 153 207Q145 199 140 184.5Q135 170 135 144Q135 120 143 104Q151 88 165.5 79Q180 70 199 66Q218 62 240 62Q292 62 322.5 79.5Q353 97 372 125ZM277 305Q285 305 313 304Q341 303 372 301V364Q372 393 366 410.5Q360 428 345.5 437Q331 446 306.5 449Q282 452 244 452Q217 452 177.5 448.5Q138 445 89 434V504Q107 509 130 512.5Q153 516 175.5 518Q198 520 219.5 521Q241 522 256 522Q305 522 342.5 516Q380 510 404.5 493.5Q429 477 441.5 447.5Q454 418 454 371V0H397L385 53H384Q352 23 312 7Q272 -9 225 -9Q186 -9 149.5 2Q113 13 89 36Q69 56 59 85Q49 114 49 146Q49 183 59 209Q69 235 88 254Q120 286 170 295.5Q220 305 277 305Z" glyph-name="a" horiz-adv-x="530" unicode="a" /><glyph d="M420 413Q408 423 390 431Q375 438 352.5 444Q330 450 301 450Q220 450 181 404.5Q142 359 142 254Q142 200 151 163Q160 126 177.5 103.5Q195 81 221.5 71Q248 61 283 61Q308 61 329.5 68Q351 75 368 86.5Q385 98 398 111Q411 124 420 136ZM447 510H502V0H443L433 60H432Q401 30 364 10.5Q327 -9 269 -9Q163 -9 109 53Q55 115 55 255Q55 393 115.5 456Q176 519 293 519Q327 519 353.5 512.5Q380 506 398 498Q419 488 435 477H437Z" glyph-name="a.hist" horiz-adv-x="587" unicode="&#59153;" /><glyph d="M164 196H356L291 379Q281 407 273.5 429.5Q266 452 261 471H259Q254 452 247 429.5Q240 407 230 380ZM381 131H140L93 0H6L211 541H309L515 0H429Z" glyph-name="a.small" horiz-adv-x="521" unicode="&#63329;" /><glyph d="M227 426Q211 428 198 428Q185 428 180 428Q148 428 133 423Q118 418 108 408Q97 397 97 372Q97 345 113 336Q129 327 154 327Q183 327 199.5 335.5Q216 344 227 361ZM177 478Q182 478 195.5 478Q209 478 227 476V509Q227 542 212.5 550Q198 558 157 558Q140 558 114 555.5Q88 553 53 545V598Q66 601 81.5 604Q97 607 112 608.5Q127 610 140.5 611Q154 612 163 612Q196 612 220.5 608Q245 604 261.5 593Q278 582 286 563Q294 544 294 513V279H243L237 308H236Q223 293 198 283Q173 273 145 273Q119 273 94.5 280Q70 287 55 301Q41 315 34.5 334Q28 353 28 374Q28 397 35 414.5Q42 432 54 444Q76 466 108 472Q140 478 177 478Z" glyph-name="a.superior" horiz-adv-x="346" unicode="&#58209;" /><glyph d="M288 566H211L319 678H428ZM372 235Q342 238 316 239Q290 240 282 240Q250 240 229.5 238Q209 236 194.5 232Q180 228 171 221.5Q162 215 153 207Q145 199 140 184.5Q135 170 135 144Q135 120 143 104Q151 88 165.5 79Q180 70 199 66Q218 62 240 62Q292 62 322.5 79.5Q353 97 372 125ZM277 305Q285 305 313 304Q341 303 372 301V364Q372 393 366 410.5Q360 428 345.5 437Q331 446 306.5 449Q282 452 244 452Q217 452 177.5 448.5Q138 445 89 434V504Q107 509 130 512.5Q153 516 175.5 518Q198 520 219.5 521Q241 522 256 522Q305 522 342.5 516Q380 510 404.5 493.5Q429 477 441.5 447.5Q454 418 454 371V0H397L385 53H384Q352 23 312 7Q272 -9 225 -9Q186 -9 149.5 2Q113 13 89 36Q69 56 59 85Q49 114 49 146Q49 183 59 209Q69 235 88 254Q120 286 170 295.5Q220 305 277 305Z" glyph-name="aacute" horiz-adv-x="530" unicode="&#225;" /><glyph d="M319 566H242L350 678H459ZM420 413Q408 423 390 431Q375 438 352.5 444Q330 450 301 450Q220 450 181 404.5Q142 359 142 254Q142 200 151 163Q160 126 177.5 103.5Q195 81 221.5 71Q248 61 283 61Q308 61 329.5 68Q351 75 368 86.5Q385 98 398 111Q411 124 420 136ZM447 510H502V0H443L433 60H432Q401 30 364 10.5Q327 -9 269 -9Q163 -9 109 53Q55 115 55 255Q55 393 115.5 456Q176 519 293 519Q327 519 353.5 512.5Q380 506 398 498Q419 488 435 477H437Z" glyph-name="aacute.hist" horiz-adv-x="587" unicode="&#59154;" /><glyph d="M299 598H222L330 710H439ZM164 196H356L291 379Q281 407 273.5 429.5Q266 452 261 471H259Q254 452 247 429.5Q240 407 230 380ZM381 131H140L93 0H6L211 541H309L515 0H429Z" glyph-name="aacute.small" horiz-adv-x="521" unicode="&#63457;" /><glyph d="M271 618Q286 618 302 620.5Q318 623 331.5 630Q345 637 355 648.5Q365 660 368 678H439Q429 615 384 587.5Q339 560 271 560Q203 560 158 587.5Q113 615 103 678H174Q177 660 187 648.5Q197 637 210.5 630Q224 623 240 620.5Q256 618 271 618ZM372 235Q342 238 316 239Q290 240 282 240Q250 240 229.5 238Q209 236 194.5 232Q180 228 171 221.5Q162 215 153 207Q145 199 140 184.5Q135 170 135 144Q135 120 143 104Q151 88 165.5 79Q180 70 199 66Q218 62 240 62Q292 62 322.5 79.5Q353 97 372 125ZM277 305Q285 305 313 304Q341 303 372 301V364Q372 393 366 410.5Q360 428 345.5 437Q331 446 306.5 449Q282 452 244 452Q217 452 177.5 448.5Q138 445 89 434V504Q107 509 130 512.5Q153 516 175.5 518Q198 520 219.5 521Q241 522 256 522Q305 522 342.5 516Q380 510 404.5 493.5Q429 477 441.5 447.5Q454 418 454 371V0H397L385 53H384Q352 23 312 7Q272 -9 225 -9Q186 -9 149.5 2Q113 13 89 36Q69 56 59 85Q49 114 49 146Q49 183 59 209Q69 235 88 254Q120 286 170 295.5Q220 305 277 305Z" glyph-name="abreve" horiz-adv-x="530" unicode="&#259;" /><glyph d="M289 618Q304 618 320 620.5Q336 623 349.5 630Q363 637 373 648.5Q383 660 386 678H457Q447 615 402 587.5Q357 560 289 560Q221 560 176 587.5Q131 615 121 678H192Q195 660 205 648.5Q215 637 228.5 630Q242 623 258 620.5Q274 618 289 618ZM420 413Q408 423 390 431Q375 438 352.5 444Q330 450 301 450Q220 450 181 404.5Q142 359 142 254Q142 200 151 163Q160 126 177.5 103.5Q195 81 221.5 71Q248 61 283 61Q308 61 329.5 68Q351 75 368 86.5Q385 98 398 111Q411 124 420 136ZM447 510H502V0H443L433 60H432Q401 30 364 10.5Q327 -9 269 -9Q163 -9 109 53Q55 115 55 255Q55 393 115.5 456Q176 519 293 519Q327 519 353.5 512.5Q380 506 398 498Q419 488 435 477H437Z" glyph-name="abreve.hist" horiz-adv-x="587" unicode="&#59155;" /><glyph d="M258 650Q273 650 289 652.5Q305 655 318.5 662Q332 669 342 680.5Q352 692 355 710H426Q416 647 371 619.5Q326 592 258 592Q190 592 145 619.5Q100 647 90 710H161Q164 692 174 680.5Q184 669 197.5 662Q211 655 227 652.5Q243 650 258 650ZM164 196H356L291 379Q281 407 273.5 429.5Q266 452 261 471H259Q254 452 247 429.5Q240 407 230 380ZM381 131H140L93 0H6L211 541H309L515 0H429Z" glyph-name="abreve.small" horiz-adv-x="521" unicode="&#63040;" /><glyph d="M117 678H198L266 608L334 678H415L305 562H226ZM372 235Q342 238 316 239Q290 240 282 240Q250 240 229.5 238Q209 236 194.5 232Q180 228 171 221.5Q162 215 153 207Q145 199 140 184.5Q135 170 135 144Q135 120 143 104Q151 88 165.5 79Q180 70 199 66Q218 62 240 62Q292 62 322.5 79.5Q353 97 372 125ZM277 305Q285 305 313 304Q341 303 372 301V364Q372 393 366 410.5Q360 428 345.5 437Q331 446 306.5 449Q282 452 244 452Q217 452 177.5 448.5Q138 445 89 434V504Q107 509 130 512.5Q153 516 175.5 518Q198 520 219.5 521Q241 522 256 522Q305 522 342.5 516Q380 510 404.5 493.5Q429 477 441.5 447.5Q454 418 454 371V0H397L385 53H384Q352 23 312 7Q272 -9 225 -9Q186 -9 149.5 2Q113 13 89 36Q69 56 59 85Q49 114 49 146Q49 183 59 209Q69 235 88 254Q120 286 170 295.5Q220 305 277 305Z" glyph-name="acaron" horiz-adv-x="530" unicode="&#462;" /><glyph d="M146 678H227L295 608L363 678H444L334 562H255ZM420 413Q408 423 390 431Q375 438 352.5 444Q330 450 301 450Q220 450 181 404.5Q142 359 142 254Q142 200 151 163Q160 126 177.5 103.5Q195 81 221.5 71Q248 61 283 61Q308 61 329.5 68Q351 75 368 86.5Q385 98 398 111Q411 124 420 136ZM447 510H502V0H443L433 60H432Q401 30 364 10.5Q327 -9 269 -9Q163 -9 109 53Q55 115 55 255Q55 393 115.5 456Q176 519 293 519Q327 519 353.5 512.5Q380 506 398 498Q419 488 435 477H437Z" glyph-name="acaron.hist" horiz-adv-x="587" unicode="&#59156;" /><glyph d="M111 710H192L260 640L328 710H409L299 594H220ZM164 196H356L291 379Q281 407 273.5 429.5Q266 452 261 471H259Q254 452 247 429.5Q240 407 230 380ZM381 131H140L93 0H6L211 541H309L515 0H429Z" glyph-name="acaron.small" horiz-adv-x="521" unicode="&#59157;" /><glyph d="M418 566H337L269 636L201 566H120L230 682H309ZM372 235Q342 238 316 239Q290 240 282 240Q250 240 229.5 238Q209 236 194.5 232Q180 228 171 221.5Q162 215 153 207Q145 199 140 184.5Q135 170 135 144Q135 120 143 104Q151 88 165.5 79Q180 70 199 66Q218 62 240 62Q292 62 322.5 79.5Q353 97 372 125ZM277 305Q285 305 313 304Q341 303 372 301V364Q372 393 366 410.5Q360 428 345.5 437Q331 446 306.5 449Q282 452 244 452Q217 452 177.5 448.5Q138 445 89 434V504Q107 509 130 512.5Q153 516 175.5 518Q198 520 219.5 521Q241 522 256 522Q305 522 342.5 516Q380 510 404.5 493.5Q429 477 441.5 447.5Q454 418 454 371V0H397L385 53H384Q352 23 312 7Q272 -9 225 -9Q186 -9 149.5 2Q113 13 89 36Q69 56 59 85Q49 114 49 146Q49 183 59 209Q69 235 88 254Q120 286 170 295.5Q220 305 277 305Z" glyph-name="acircumflex" horiz-adv-x="530" unicode="&#226;" /><glyph d="M438 566H357L289 636L221 566H140L250 682H329ZM420 413Q408 423 390 431Q375 438 352.5 444Q330 450 301 450Q220 450 181 404.5Q142 359 142 254Q142 200 151 163Q160 126 177.5 103.5Q195 81 221.5 71Q248 61 283 61Q308 61 329.5 68Q351 75 368 86.5Q385 98 398 111Q411 124 420 136ZM447 510H502V0H443L433 60H432Q401 30 364 10.5Q327 -9 269 -9Q163 -9 109 53Q55 115 55 255Q55 393 115.5 456Q176 519 293 519Q327 519 353.5 512.5Q380 506 398 498Q419 488 435 477H437Z" glyph-name="acircumflex.hist" horiz-adv-x="587" unicode="&#59158;" /><glyph d="M409 595H328L260 665L192 595H111L221 711H300ZM164 196H356L291 379Q281 407 273.5 429.5Q266 452 261 471H259Q254 452 247 429.5Q240 407 230 380ZM381 131H140L93 0H6L211 541H309L515 0H429Z" glyph-name="acircumflex.small" horiz-adv-x="521" unicode="&#63458;" /><glyph d="M317 566H240L348 678H457Z" glyph-name="acute" horiz-adv-x="600" unicode="&#180;" /><glyph d="M296 734H219L327 846H436Z" glyph-name="acute.cap" horiz-adv-x="600" unicode="&#58402;" /><glyph d="M296 598H219L327 710H436Z" glyph-name="acute.small" horiz-adv-x="600" unicode="&#63412;" /><glyph d="M403 587H314V673H403ZM213 587H124V673H213ZM372 235Q342 238 316 239Q290 240 282 240Q250 240 229.5 238Q209 236 194.5 232Q180 228 171 221.5Q162 215 153 207Q145 199 140 184.5Q135 170 135 144Q135 120 143 104Q151 88 165.5 79Q180 70 199 66Q218 62 240 62Q292 62 322.5 79.5Q353 97 372 125ZM277 305Q285 305 313 304Q341 303 372 301V364Q372 393 366 410.5Q360 428 345.5 437Q331 446 306.5 449Q282 452 244 452Q217 452 177.5 448.5Q138 445 89 434V504Q107 509 130 512.5Q153 516 175.5 518Q198 520 219.5 521Q241 522 256 522Q305 522 342.5 516Q380 510 404.5 493.5Q429 477 441.5 447.5Q454 418 454 371V0H397L385 53H384Q352 23 312 7Q272 -9 225 -9Q186 -9 149.5 2Q113 13 89 36Q69 56 59 85Q49 114 49 146Q49 183 59 209Q69 235 88 254Q120 286 170 295.5Q220 305 277 305Z" glyph-name="adieresis" horiz-adv-x="530" unicode="&#228;" /><glyph d="M429 587H340V673H429ZM239 587H150V673H239ZM420 413Q408 423 390 431Q375 438 352.5 444Q330 450 301 450Q220 450 181 404.5Q142 359 142 254Q142 200 151 163Q160 126 177.5 103.5Q195 81 221.5 71Q248 61 283 61Q308 61 329.5 68Q351 75 368 86.5Q385 98 398 111Q411 124 420 136ZM447 510H502V0H443L433 60H432Q401 30 364 10.5Q327 -9 269 -9Q163 -9 109 53Q55 115 55 255Q55 393 115.5 456Q176 519 293 519Q327 519 353.5 512.5Q380 506 398 498Q419 488 435 477H437Z" glyph-name="adieresis.hist" horiz-adv-x="587" unicode="&#59159;" /><glyph d="M400 619H311V705H400ZM210 619H121V705H210ZM164 196H356L291 379Q281 407 273.5 429.5Q266 452 261 471H259Q254 452 247 429.5Q240 407 230 380ZM381 131H140L93 0H6L211 541H309L515 0H429Z" glyph-name="adieresis.small" horiz-adv-x="521" unicode="&#63460;" /><glyph d="M429 737H98V805H429ZM403 587H314V673H403ZM213 587H124V673H213ZM372 235Q342 238 316 239Q290 240 282 240Q250 240 229.5 238Q209 236 194.5 232Q180 228 171 221.5Q162 215 153 207Q145 199 140 184.5Q135 170 135 144Q135 120 143 104Q151 88 165.5 79Q180 70 199 66Q218 62 240 62Q292 62 322.5 79.5Q353 97 372 125ZM277 305Q285 305 313 304Q341 303 372 301V364Q372 393 366 410.5Q360 428 345.5 437Q331 446 306.5 449Q282 452 244 452Q217 452 177.5 448.5Q138 445 89 434V504Q107 509 130 512.5Q153 516 175.5 518Q198 520 219.5 521Q241 522 256 522Q305 522 342.5 516Q380 510 404.5 493.5Q429 477 441.5 447.5Q454 418 454 371V0H397L385 53H384Q352 23 312 7Q272 -9 225 -9Q186 -9 149.5 2Q113 13 89 36Q69 56 59 85Q49 114 49 146Q49 183 59 209Q69 235 88 254Q120 286 170 295.5Q220 305 277 305Z" glyph-name="adieresismacron" horiz-adv-x="530" unicode="&#479;" /><glyph d="M431 587H342V673H431ZM241 587H152V673H241ZM457 737H126V805H457ZM420 413Q408 423 390 431Q375 438 352.5 444Q330 450 301 450Q220 450 181 404.5Q142 359 142 254Q142 200 151 163Q160 126 177.5 103.5Q195 81 221.5 71Q248 61 283 61Q308 61 329.5 68Q351 75 368 86.5Q385 98 398 111Q411 124 420 136ZM447 510H502V0H443L433 60H432Q401 30 364 10.5Q327 -9 269 -9Q163 -9 109 53Q55 115 55 255Q55 393 115.5 456Q176 519 293 519Q327 519 353.5 512.5Q380 506 398 498Q419 488 435 477H437Z" glyph-name="adieresismacron.hist" horiz-adv-x="587" unicode="&#59160;" /><glyph d="M426 766H95V834H426ZM400 618H311V704H400ZM210 618H121V704H210ZM164 196H356L291 379Q281 407 273.5 429.5Q266 452 261 471H259Q254 452 247 429.5Q240 407 230 380ZM381 131H140L93 0H6L211 541H309L515 0H429Z" glyph-name="adieresismacron.small" horiz-adv-x="521" unicode="&#59161;" /><glyph d="M308 587H216V676H308ZM372 235Q342 238 316 239Q290 240 282 240Q250 240 229.5 238Q209 236 194.5 232Q180 228 171 221.5Q162 215 153 207Q145 199 140 184.5Q135 170 135 144Q135 120 143 104Q151 88 165.5 79Q180 70 199 66Q218 62 240 62Q292 62 322.5 79.5Q353 97 372 125ZM277 305Q285 305 313 304Q341 303 372 301V364Q372 393 366 410.5Q360 428 345.5 437Q331 446 306.5 449Q282 452 244 452Q217 452 177.5 448.5Q138 445 89 434V504Q107 509 130 512.5Q153 516 175.5 518Q198 520 219.5 521Q241 522 256 522Q305 522 342.5 516Q380 510 404.5 493.5Q429 477 441.5 447.5Q454 418 454 371V0H397L385 53H384Q352 23 312 7Q272 -9 225 -9Q186 -9 149.5 2Q113 13 89 36Q69 56 59 85Q49 114 49 146Q49 183 59 209Q69 235 88 254Q120 286 170 295.5Q220 305 277 305Z" glyph-name="adotabove" horiz-adv-x="530" unicode="&#551;" /><glyph d="M322 587H230V676H322ZM420 413Q408 423 390 431Q375 438 352.5 444Q330 450 301 450Q220 450 181 404.5Q142 359 142 254Q142 200 151 163Q160 126 177.5 103.5Q195 81 221.5 71Q248 61 283 61Q308 61 329.5 68Q351 75 368 86.5Q385 98 398 111Q411 124 420 136ZM447 510H502V0H443L433 60H432Q401 30 364 10.5Q327 -9 269 -9Q163 -9 109 53Q55 115 55 255Q55 393 115.5 456Q176 519 293 519Q327 519 353.5 512.5Q380 506 398 498Q419 488 435 477H437Z" glyph-name="adotabove.hist" horiz-adv-x="587" unicode="&#59168;" /><glyph d="M306 619H214V708H306ZM164 196H356L291 379Q281 407 273.5 429.5Q266 452 261 471H259Q254 452 247 429.5Q240 407 230 380ZM381 131H140L93 0H6L211 541H309L515 0H429Z" glyph-name="adotabove.small" horiz-adv-x="521" unicode="&#59169;" /><glyph d="M39 678H135L243 566H179ZM179 678H275L383 566H319ZM372 235Q342 238 316 239Q290 240 282 240Q250 240 229.5 238Q209 236 194.5 232Q180 228 171 221.5Q162 215 153 207Q145 199 140 184.5Q135 170 135 144Q135 120 143 104Q151 88 165.5 79Q180 70 199 66Q218 62 240 62Q292 62 322.5 79.5Q353 97 372 125ZM277 305Q285 305 313 304Q341 303 372 301V364Q372 393 366 410.5Q360 428 345.5 437Q331 446 306.5 449Q282 452 244 452Q217 452 177.5 448.5Q138 445 89 434V504Q107 509 130 512.5Q153 516 175.5 518Q198 520 219.5 521Q241 522 256 522Q305 522 342.5 516Q380 510 404.5 493.5Q429 477 441.5 447.5Q454 418 454 371V0H397L385 53H384Q352 23 312 7Q272 -9 225 -9Q186 -9 149.5 2Q113 13 89 36Q69 56 59 85Q49 114 49 146Q49 183 59 209Q69 235 88 254Q120 286 170 295.5Q220 305 277 305Z" glyph-name="adoublegrave" horiz-adv-x="530" unicode="&#59170;" /><glyph d="M67 678H163L271 566H207ZM207 678H303L411 566H347ZM420 413Q408 423 390 431Q375 438 352.5 444Q330 450 301 450Q220 450 181 404.5Q142 359 142 254Q142 200 151 163Q160 126 177.5 103.5Q195 81 221.5 71Q248 61 283 61Q308 61 329.5 68Q351 75 368 86.5Q385 98 398 111Q411 124 420 136ZM447 510H502V0H443L433 60H432Q401 30 364 10.5Q327 -9 269 -9Q163 -9 109 53Q55 115 55 255Q55 393 115.5 456Q176 519 293 519Q327 519 353.5 512.5Q380 506 398 498Q419 488 435 477H437Z" glyph-name="adoublegrave.hist" horiz-adv-x="587" unicode="&#59171;" /><glyph d="M28 710H124L232 598H168ZM168 710H264L372 598H308ZM164 196H356L291 379Q281 407 273.5 429.5Q266 452 261 471H259Q254 452 247 429.5Q240 407 230 380ZM381 131H140L93 0H6L211 541H309L515 0H429Z" glyph-name="adoublegrave.small" horiz-adv-x="521" unicode="&#59172;" /><glyph d="M602 452Q576 452 551.5 445.5Q527 439 508 420Q475 387 467 305H723Q724 315 724 319.5Q724 324 724 326Q724 358 717.5 383Q711 408 695 424Q680 439 656 445.5Q632 452 602 452ZM388 140Q383 160 380.5 182Q378 204 376 230V233Q346 236 318 238Q290 240 282 240Q250 240 229.5 238Q209 236 194.5 232Q180 228 171 221.5Q162 215 153 207Q145 199 140 184.5Q135 170 135 144Q135 120 143 104Q151 88 165.5 79Q180 70 199 66Q218 62 240 62Q292 62 331 86Q370 110 389 138ZM465 238Q467 190 476 154Q485 118 508 95Q545 58 632 58Q664 58 704 62.5Q744 67 783 82V12Q765 5 743 0.5Q721 -4 699 -7Q677 -10 656 -11Q635 -12 618 -12Q473 -12 417 73Q400 50 376.5 34Q353 18 327 8.5Q301 -1 274.5 -5Q248 -9 225 -9Q186 -9 149.5 2Q113 13 89 36Q69 56 59 85Q49 114 49 146Q49 183 59 209Q69 235 88 254Q120 286 170 295.5Q220 305 277 305Q285 305 313 304Q341 303 372 301V364Q372 393 366 410.5Q360 428 345.5 437Q331 446 306.5 449Q282 452 244 452Q217 452 177.5 448.5Q138 445 89 434V504Q107 509 130 512.5Q153 516 175.5 518Q198 520 219.5 521Q241 522 256 522Q295 522 324 519Q353 516 374 508.5Q395 501 410 489Q425 477 436 459Q468 493 509.5 507.5Q551 522 603 522Q710 522 757.5 467.5Q805 413 805 308Q805 299 803.5 277Q802 255 800 238Z" glyph-name="ae" horiz-adv-x="857" unicode="&#230;" /><glyph d="M193 196H403V463H401Q384 440 367 416Q350 392 329 366ZM756 0H403V131H143L37 0H-67L377 541H750V477H484V309H715V243H484V66H756Z" glyph-name="ae.small" horiz-adv-x="798" unicode="&#63462;" /><glyph d="M474 569H397L505 681H614ZM602 452Q576 452 551.5 445.5Q527 439 508 420Q475 387 467 305H723Q724 315 724 319.5Q724 324 724 326Q724 358 717.5 383Q711 408 695 424Q680 439 656 445.5Q632 452 602 452ZM388 140Q383 160 380.5 182Q378 204 376 230V233Q346 236 318 238Q290 240 282 240Q250 240 229.5 238Q209 236 194.5 232Q180 228 171 221.5Q162 215 153 207Q145 199 140 184.5Q135 170 135 144Q135 120 143 104Q151 88 165.5 79Q180 70 199 66Q218 62 240 62Q292 62 331 86Q370 110 389 138ZM465 238Q467 190 476 154Q485 118 508 95Q545 58 632 58Q664 58 704 62.5Q744 67 783 82V12Q765 5 743 0.5Q721 -4 699 -7Q677 -10 656 -11Q635 -12 618 -12Q473 -12 417 73Q400 50 376.5 34Q353 18 327 8.5Q301 -1 274.5 -5Q248 -9 225 -9Q186 -9 149.5 2Q113 13 89 36Q69 56 59 85Q49 114 49 146Q49 183 59 209Q69 235 88 254Q120 286 170 295.5Q220 305 277 305Q285 305 313 304Q341 303 372 301V364Q372 393 366 410.5Q360 428 345.5 437Q331 446 306.5 449Q282 452 244 452Q217 452 177.5 448.5Q138 445 89 434V504Q107 509 130 512.5Q153 516 175.5 518Q198 520 219.5 521Q241 522 256 522Q295 522 324 519Q353 516 374 508.5Q395 501 410 489Q425 477 436 459Q468 493 509.5 507.5Q551 522 603 522Q710 522 757.5 467.5Q805 413 805 308Q805 299 803.5 277Q802 255 800 238Z" glyph-name="aeacute" horiz-adv-x="857" unicode="&#509;" /><glyph d="M493 598H416L524 710H633ZM193 196H403V463H401Q384 440 367 416Q350 392 329 366ZM756 0H403V131H143L37 0H-67L377 541H750V477H484V309H715V243H484V66H756Z" glyph-name="aeacute.small" horiz-adv-x="798" unicode="&#63012;" /><glyph d="M606 599H275V667H606ZM602 452Q576 452 551.5 445.5Q527 439 508 420Q475 387 467 305H723Q724 315 724 319.5Q724 324 724 326Q724 358 717.5 383Q711 408 695 424Q680 439 656 445.5Q632 452 602 452ZM388 140Q383 160 380.5 182Q378 204 376 230V233Q346 236 318 238Q290 240 282 240Q250 240 229.5 238Q209 236 194.5 232Q180 228 171 221.5Q162 215 153 207Q145 199 140 184.5Q135 170 135 144Q135 120 143 104Q151 88 165.5 79Q180 70 199 66Q218 62 240 62Q292 62 331 86Q370 110 389 138ZM465 238Q467 190 476 154Q485 118 508 95Q545 58 632 58Q664 58 704 62.5Q744 67 783 82V12Q765 5 743 0.5Q721 -4 699 -7Q677 -10 656 -11Q635 -12 618 -12Q473 -12 417 73Q400 50 376.5 34Q353 18 327 8.5Q301 -1 274.5 -5Q248 -9 225 -9Q186 -9 149.5 2Q113 13 89 36Q69 56 59 85Q49 114 49 146Q49 183 59 209Q69 235 88 254Q120 286 170 295.5Q220 305 277 305Q285 305 313 304Q341 303 372 301V364Q372 393 366 410.5Q360 428 345.5 437Q331 446 306.5 449Q282 452 244 452Q217 452 177.5 448.5Q138 445 89 434V504Q107 509 130 512.5Q153 516 175.5 518Q198 520 219.5 521Q241 522 256 522Q295 522 324 519Q353 516 374 508.5Q395 501 410 489Q425 477 436 459Q468 493 509.5 507.5Q551 522 603 522Q710 522 757.5 467.5Q805 413 805 308Q805 299 803.5 277Q802 255 800 238Z" glyph-name="aemacron" horiz-adv-x="857" unicode="&#483;" /><glyph d="M612 631H281V699H612ZM193 196H403V463H401Q384 440 367 416Q350 392 329 366ZM756 0H403V131H143L37 0H-67L377 541H750V477H484V309H715V243H484V66H756Z" glyph-name="aemacron.small" horiz-adv-x="798" unicode="&#59173;" /><glyph d="M195 336Q223 376 244 436.5Q265 497 265 566Q265 593 259.5 608Q254 623 239 623Q219 623 207 592.5Q195 562 195 484ZM63 224Q75 230 90 239.5Q105 249 116 258V488Q116 548 125.5 587Q135 626 151.5 649Q168 672 190.5 681Q213 690 239 690Q290 690 316 655Q342 620 342 563Q342 514 328 465Q314 416 292.5 372.5Q271 329 245 292.5Q219 256 195 232V125Q195 90 205 75.5Q215 61 243 61Q257 61 272.5 64Q288 67 299 71V0Q285 -4 268.5 -6Q252 -8 243 -8Q183 -8 149.5 18Q116 44 116 108V173Q110 168 93 159.5Q76 151 63 146Z" glyph-name="afii61289" horiz-adv-x="394" unicode="&#8467;" /><glyph d="M107 678H216L324 566H247ZM372 235Q342 238 316 239Q290 240 282 240Q250 240 229.5 238Q209 236 194.5 232Q180 228 171 221.5Q162 215 153 207Q145 199 140 184.5Q135 170 135 144Q135 120 143 104Q151 88 165.5 79Q180 70 199 66Q218 62 240 62Q292 62 322.5 79.5Q353 97 372 125ZM277 305Q285 305 313 304Q341 303 372 301V364Q372 393 366 410.5Q360 428 345.5 437Q331 446 306.5 449Q282 452 244 452Q217 452 177.5 448.5Q138 445 89 434V504Q107 509 130 512.5Q153 516 175.5 518Q198 520 219.5 521Q241 522 256 522Q305 522 342.5 516Q380 510 404.5 493.5Q429 477 441.5 447.5Q454 418 454 371V0H397L385 53H384Q352 23 312 7Q272 -9 225 -9Q186 -9 149.5 2Q113 13 89 36Q69 56 59 85Q49 114 49 146Q49 183 59 209Q69 235 88 254Q120 286 170 295.5Q220 305 277 305Z" glyph-name="agrave" horiz-adv-x="530" unicode="&#224;" /><glyph d="M113 678H222L330 566H253ZM420 413Q408 423 390 431Q375 438 352.5 444Q330 450 301 450Q220 450 181 404.5Q142 359 142 254Q142 200 151 163Q160 126 177.5 103.5Q195 81 221.5 71Q248 61 283 61Q308 61 329.5 68Q351 75 368 86.5Q385 98 398 111Q411 124 420 136ZM447 510H502V0H443L433 60H432Q401 30 364 10.5Q327 -9 269 -9Q163 -9 109 53Q55 115 55 255Q55 393 115.5 456Q176 519 293 519Q327 519 353.5 512.5Q380 506 398 498Q419 488 435 477H437Z" glyph-name="agrave.hist" horiz-adv-x="587" unicode="&#59174;" /><glyph d="M78 710H187L295 598H218ZM164 196H356L291 379Q281 407 273.5 429.5Q266 452 261 471H259Q254 452 247 429.5Q240 407 230 380ZM381 131H140L93 0H6L211 541H309L515 0H429Z" glyph-name="agrave.small" horiz-adv-x="521" unicode="&#63456;" /><glyph d="M265 626Q250 626 234 623.5Q218 621 204.5 614Q191 607 181 595.5Q171 584 168 566H97Q107 629 152 656.5Q197 684 265 684Q333 684 378 656.5Q423 629 433 566H362Q359 584 349 595.5Q339 607 325.5 614Q312 621 296 623.5Q280 626 265 626ZM372 235Q342 238 316 239Q290 240 282 240Q250 240 229.5 238Q209 236 194.5 232Q180 228 171 221.5Q162 215 153 207Q145 199 140 184.5Q135 170 135 144Q135 120 143 104Q151 88 165.5 79Q180 70 199 66Q218 62 240 62Q292 62 322.5 79.5Q353 97 372 125ZM277 305Q285 305 313 304Q341 303 372 301V364Q372 393 366 410.5Q360 428 345.5 437Q331 446 306.5 449Q282 452 244 452Q217 452 177.5 448.5Q138 445 89 434V504Q107 509 130 512.5Q153 516 175.5 518Q198 520 219.5 521Q241 522 256 522Q305 522 342.5 516Q380 510 404.5 493.5Q429 477 441.5 447.5Q454 418 454 371V0H397L385 53H384Q352 23 312 7Q272 -9 225 -9Q186 -9 149.5 2Q113 13 89 36Q69 56 59 85Q49 114 49 146Q49 183 59 209Q69 235 88 254Q120 286 170 295.5Q220 305 277 305Z" glyph-name="ainvertedbreve" horiz-adv-x="530" unicode="&#515;" /><glyph d="M287 626Q272 626 256 623.5Q240 621 226.5 614Q213 607 203 595.5Q193 584 190 566H119Q129 629 174 656.5Q219 684 287 684Q355 684 400 656.5Q445 629 455 566H384Q381 584 371 595.5Q361 607 347.5 614Q334 621 318 623.5Q302 626 287 626ZM420 413Q408 423 390 431Q375 438 352.5 444Q330 450 301 450Q220 450 181 404.5Q142 359 142 254Q142 200 151 163Q160 126 177.5 103.5Q195 81 221.5 71Q248 61 283 61Q308 61 329.5 68Q351 75 368 86.5Q385 98 398 111Q411 124 420 136ZM447 510H502V0H443L433 60H432Q401 30 364 10.5Q327 -9 269 -9Q163 -9 109 53Q55 115 55 255Q55 393 115.5 456Q176 519 293 519Q327 519 353.5 512.5Q380 506 398 498Q419 488 435 477H437Z" glyph-name="ainvertedbreve.hist" horiz-adv-x="587" unicode="&#59175;" /><glyph d="M260 658Q245 658 229 655.5Q213 653 199.5 646Q186 639 176 627.5Q166 616 163 598H92Q102 661 147 688.5Q192 716 260 716Q328 716 373 688.5Q418 661 428 598H357Q354 616 344 627.5Q334 639 320.5 646Q307 653 291 655.5Q275 658 260 658ZM164 196H356L291 379Q281 407 273.5 429.5Q266 452 261 471H259Q254 452 247 429.5Q240 407 230 380ZM381 131H140L93 0H6L211 541H309L515 0H429Z" glyph-name="ainvertedbreve.small" horiz-adv-x="521" unicode="&#59176;" /><glyph d="M291 -34Q353 -39 376.5 -59Q400 -79 400 -103Q400 -139 366.5 -156.5Q333 -174 282 -174Q269 -174 247.5 -172.5Q226 -171 203 -164V-110Q219 -115 236.5 -117Q254 -119 269 -119Q292 -119 307 -114.5Q322 -110 322 -99Q322 -85 305 -81Q288 -77 271 -75Z" glyph-name="altcedilla" horiz-adv-x="600" unicode="&#58390;" /><glyph d="M432 599H101V667H432ZM372 235Q342 238 316 239Q290 240 282 240Q250 240 229.5 238Q209 236 194.5 232Q180 228 171 221.5Q162 215 153 207Q145 199 140 184.5Q135 170 135 144Q135 120 143 104Q151 88 165.5 79Q180 70 199 66Q218 62 240 62Q292 62 322.5 79.5Q353 97 372 125ZM277 305Q285 305 313 304Q341 303 372 301V364Q372 393 366 410.5Q360 428 345.5 437Q331 446 306.5 449Q282 452 244 452Q217 452 177.5 448.5Q138 445 89 434V504Q107 509 130 512.5Q153 516 175.5 518Q198 520 219.5 521Q241 522 256 522Q305 522 342.5 516Q380 510 404.5 493.5Q429 477 441.5 447.5Q454 418 454 371V0H397L385 53H384Q352 23 312 7Q272 -9 225 -9Q186 -9 149.5 2Q113 13 89 36Q69 56 59 85Q49 114 49 146Q49 183 59 209Q69 235 88 254Q120 286 170 295.5Q220 305 277 305Z" glyph-name="amacron" horiz-adv-x="530" unicode="&#257;" /><glyph d="M455 599H124V667H455ZM420 413Q408 423 390 431Q375 438 352.5 444Q330 450 301 450Q220 450 181 404.5Q142 359 142 254Q142 200 151 163Q160 126 177.5 103.5Q195 81 221.5 71Q248 61 283 61Q308 61 329.5 68Q351 75 368 86.5Q385 98 398 111Q411 124 420 136ZM447 510H502V0H443L433 60H432Q401 30 364 10.5Q327 -9 269 -9Q163 -9 109 53Q55 115 55 255Q55 393 115.5 456Q176 519 293 519Q327 519 353.5 512.5Q380 506 398 498Q419 488 435 477H437Z" glyph-name="amacron.hist" horiz-adv-x="587" unicode="&#59177;" /><glyph d="M426 631H95V699H426ZM164 196H356L291 379Q281 407 273.5 429.5Q266 452 261 471H259Q254 452 247 429.5Q240 407 230 380ZM381 131H140L93 0H6L211 541H309L515 0H429Z" glyph-name="amacron.small" horiz-adv-x="521" unicode="&#63041;" /><glyph d="M458 310H311Q277 310 249 300.5Q221 291 198 268Q166 236 166 180Q166 120 201 94Q236 68 301 68Q349 68 391 87.5Q433 107 458 141ZM475 60Q443 28 394.5 8Q346 -12 296 -12Q250 -12 209 -1Q168 10 137.5 33Q107 56 89 92.5Q71 129 71 179Q71 213 81.5 240.5Q92 268 108.5 289Q125 310 145 324.5Q165 339 185 347V348Q143 374 115 414.5Q87 455 87 515Q87 600 143.5 644Q200 688 306 690Q318 690 333.5 689Q349 688 365.5 686.5Q382 685 398 682Q414 679 427 676V602Q400 608 370.5 611.5Q341 615 319 615Q278 615 251 606Q224 597 208.5 582Q193 567 187 546.5Q181 526 181 502Q181 477 190.5 456Q200 435 215 420Q236 399 262 390Q288 381 320 381H466L486 484H541L540 381H668V310H540V147Q540 121 543.5 104.5Q547 88 557 78.5Q567 69 584.5 65.5Q602 62 631 62Q645 62 661 64.5Q677 67 690 71V3Q669 -4 647 -6Q625 -8 604 -8Q548 -8 518.5 11Q489 30 477 60Z" glyph-name="ampersand" horiz-adv-x="730" unicode="&amp;" /><glyph d="M255 439Q245 409 231.5 368Q218 327 204 289L98 0H14L207 510H309L502 0H414L308 289Q294 327 280.5 368Q267 409 257 439Z" glyph-name="anocross" horiz-adv-x="516" unicode="&#59184;" /><glyph d="M93 0H6L211 541H309L515 0H429L312 321Q298 360 284.5 400.5Q271 441 261 471H259Q249 441 235.5 400Q222 359 208 321Z" glyph-name="anocross.small" horiz-adv-x="521" unicode="&#59186;" /><glyph d="M372 235Q342 238 316 239Q290 240 282 240Q250 240 229.5 238Q209 236 194.5 232Q180 228 171 221.5Q162 215 153 207Q145 199 140 184.5Q135 170 135 144Q135 120 143 104Q151 88 165.5 79Q180 70 199 66Q218 62 240 62Q292 62 322.5 79.5Q353 97 372 125ZM277 305Q285 305 313 304Q341 303 372 301V364Q372 393 366 410.5Q360 428 345.5 437Q331 446 306.5 449Q282 452 244 452Q217 452 177.5 448.5Q138 445 89 434V504Q107 509 130 512.5Q153 516 175.5 518Q198 520 219.5 521Q241 522 256 522Q305 522 342.5 516Q380 510 404.5 493.5Q429 477 441.5 447.5Q454 418 454 371V0Q429 -14 414 -37Q399 -60 399 -80Q399 -96 409 -107Q419 -118 443 -118Q457 -118 473 -116Q489 -114 506 -109V-164Q491 -170 469.5 -172Q448 -174 431 -174Q373 -174 348.5 -151Q324 -128 324 -93Q324 -67 343 -38.5Q362 -10 394 10L385 53H384Q352 23 312 7Q272 -9 225 -9Q186 -9 149.5 2Q113 13 89 36Q69 56 59 85Q49 114 49 146Q49 183 59 209Q69 235 88 254Q120 286 170 295.5Q220 305 277 305Z" glyph-name="aogonek" horiz-adv-x="530" unicode="&#261;" /><glyph d="M420 413Q408 423 390 431Q375 438 352.5 444Q330 450 301 450Q220 450 181 404.5Q142 359 142 254Q142 200 151 163Q160 126 177.5 103.5Q195 81 221.5 71Q248 61 283 61Q308 61 329.5 68Q351 75 368 86.5Q385 98 398 111Q411 124 420 136ZM447 510H502V0Q477 -14 462 -37Q447 -60 447 -80Q447 -96 457 -107Q467 -118 491 -118Q505 -118 521 -116Q537 -114 554 -109V-164Q539 -170 517.5 -172Q496 -174 479 -174Q421 -174 396.5 -151Q372 -128 372 -93Q372 -67 390.5 -38.5Q409 -10 441 10L433 60H432Q401 30 364 10.5Q327 -9 269 -9Q163 -9 109 53Q55 115 55 255Q55 393 115.5 456Q176 519 293 519Q327 519 353.5 512.5Q380 506 398 498Q419 488 435 477H437Z" glyph-name="aogonek.hist" horiz-adv-x="587" unicode="&#59187;" /><glyph d="M515 0Q490 -14 475 -37Q460 -60 460 -80Q460 -96 470 -107Q480 -118 504 -118Q518 -118 534 -116Q550 -114 567 -109V-164Q552 -170 530.5 -172Q509 -174 492 -174Q434 -174 409.5 -151Q385 -128 385 -93Q385 -65 403 -39.5Q421 -14 443 0ZM164 196H356L291 379Q281 407 273.5 429.5Q266 452 261 471H259Q254 452 247 429.5Q240 407 230 380ZM381 131H140L93 0H6L211 541H309L515 0H429Z" glyph-name="aogonek.small" horiz-adv-x="521" unicode="&#63042;" /><glyph d="M415 189Q447 189 483 200Q519 211 552 231V158Q526 141 489.5 129.5Q453 118 416 118Q388 118 360 124.5Q332 131 304 139.5Q276 148 248 154.5Q220 161 193 161Q161 161 125 150Q89 139 56 119V190Q82 207 119 219.5Q156 232 192 232Q220 232 248 225.5Q276 219 304 210.5Q332 202 359.5 195.5Q387 189 415 189ZM415 389Q447 389 483 400Q519 411 552 431V358Q526 341 489.5 329.5Q453 318 416 318Q388 318 360 324.5Q332 331 304 339.5Q276 348 248 354.5Q220 361 193 361Q161 361 125 350Q89 339 56 319V390Q82 407 119 419.5Q156 432 192 432Q220 432 248 425.5Q276 419 304 410.5Q332 402 359.5 395.5Q387 389 415 389Z" glyph-name="approxequal" horiz-adv-x="608" unicode="&#8776;" /><glyph d="M359 640Q359 601 336 584Q313 567 270 567Q227 567 203.5 584Q180 601 180 640Q180 679 203.5 696Q227 713 270 713Q313 713 336 696Q359 679 359 640ZM306 640Q306 673 270 673Q233 673 233 640Q233 608 270 608Q306 608 306 640ZM372 235Q342 238 316 239Q290 240 282 240Q250 240 229.5 238Q209 236 194.5 232Q180 228 171 221.5Q162 215 153 207Q145 199 140 184.5Q135 170 135 144Q135 120 143 104Q151 88 165.5 79Q180 70 199 66Q218 62 240 62Q292 62 322.5 79.5Q353 97 372 125ZM277 305Q285 305 313 304Q341 303 372 301V364Q372 393 366 410.5Q360 428 345.5 437Q331 446 306.5 449Q282 452 244 452Q217 452 177.5 448.5Q138 445 89 434V504Q107 509 130 512.5Q153 516 175.5 518Q198 520 219.5 521Q241 522 256 522Q305 522 342.5 516Q380 510 404.5 493.5Q429 477 441.5 447.5Q454 418 454 371V0H397L385 53H384Q352 23 312 7Q272 -9 225 -9Q186 -9 149.5 2Q113 13 89 36Q69 56 59 85Q49 114 49 146Q49 183 59 209Q69 235 88 254Q120 286 170 295.5Q220 305 277 305Z" glyph-name="aring" horiz-adv-x="530" unicode="&#229;" /><glyph d="M316 640Q316 673 280 673Q243 673 243 640Q243 608 280 608Q316 608 316 640ZM369 640Q369 601 346 584Q323 567 280 567Q237 567 213.5 584Q190 601 190 640Q190 679 213.5 696Q237 713 280 713Q323 713 346 696Q369 679 369 640ZM420 413Q408 423 390 431Q375 438 352.5 444Q330 450 301 450Q220 450 181 404.5Q142 359 142 254Q142 200 151 163Q160 126 177.5 103.5Q195 81 221.5 71Q248 61 283 61Q308 61 329.5 68Q351 75 368 86.5Q385 98 398 111Q411 124 420 136ZM447 510H502V0H443L433 60H432Q401 30 364 10.5Q327 -9 269 -9Q163 -9 109 53Q55 115 55 255Q55 393 115.5 456Q176 519 293 519Q327 519 353.5 512.5Q380 506 398 498Q419 488 435 477H437Z" glyph-name="aring.hist" horiz-adv-x="587" unicode="&#59188;" /><glyph d="M350 672Q350 633 327 616Q304 599 261 599Q218 599 194.5 616Q171 633 171 672Q171 711 194.5 728Q218 745 261 745Q304 745 327 728Q350 711 350 672ZM297 672Q297 705 261 705Q224 705 224 672Q224 640 261 640Q297 640 297 672ZM164 196H356L291 379Q281 407 273.5 429.5Q266 452 261 471H259Q254 452 247 429.5Q240 407 230 380ZM381 131H140L93 0H6L211 541H309L515 0H429Z" glyph-name="aring.small" horiz-adv-x="521" unicode="&#63461;" /><glyph d="M308 639Q308 672 272 672Q235 672 235 639Q235 607 272 607Q308 607 308 639ZM361 640Q361 601 338 584Q315 567 272 567Q229 567 205.5 584Q182 601 182 640Q182 661 195.5 678.5Q209 696 232 719L304 791H366L286 711Q315 711 338 691.5Q361 672 361 640ZM372 235Q342 238 316 239Q290 240 282 240Q250 240 229.5 238Q209 236 194.5 232Q180 228 171 221.5Q162 215 153 207Q145 199 140 184.5Q135 170 135 144Q135 120 143 104Q151 88 165.5 79Q180 70 199 66Q218 62 240 62Q292 62 322.5 79.5Q353 97 372 125ZM277 305Q285 305 313 304Q341 303 372 301V364Q372 393 366 410.5Q360 428 345.5 437Q331 446 306.5 449Q282 452 244 452Q217 452 177.5 448.5Q138 445 89 434V504Q107 509 130 512.5Q153 516 175.5 518Q198 520 219.5 521Q241 522 256 522Q305 522 342.5 516Q380 510 404.5 493.5Q429 477 441.5 447.5Q454 418 454 371V0H397L385 53H384Q352 23 312 7Q272 -9 225 -9Q186 -9 149.5 2Q113 13 89 36Q69 56 59 85Q49 114 49 146Q49 183 59 209Q69 235 88 254Q120 286 170 295.5Q220 305 277 305Z" glyph-name="aringacute" horiz-adv-x="530" unicode="&#507;" /><glyph d="M316 639Q316 672 280 672Q243 672 243 639Q243 607 280 607Q316 607 316 639ZM369 640Q369 601 346 584Q323 567 280 567Q237 567 213.5 584Q190 601 190 640Q190 661 203.5 678.5Q217 696 240 719L312 791H374L294 711Q323 711 346 691.5Q369 672 369 640ZM420 413Q408 423 390 431Q375 438 352.5 444Q330 450 301 450Q220 450 181 404.5Q142 359 142 254Q142 200 151 163Q160 126 177.5 103.5Q195 81 221.5 71Q248 61 283 61Q308 61 329.5 68Q351 75 368 86.5Q385 98 398 111Q411 124 420 136ZM447 510H502V0H443L433 60H432Q401 30 364 10.5Q327 -9 269 -9Q163 -9 109 53Q55 115 55 255Q55 393 115.5 456Q176 519 293 519Q327 519 353.5 512.5Q380 506 398 498Q419 488 435 477H437Z" glyph-name="aringacute.hist" horiz-adv-x="587" unicode="&#59189;" /><glyph d="M294 671Q294 704 258 704Q221 704 221 671Q221 639 258 639Q294 639 294 671ZM347 672Q347 633 324 616Q301 599 258 599Q215 599 191.5 616Q168 633 168 672Q168 693 181.5 710.5Q195 728 218 751L290 823H352L272 743Q301 743 324 723.5Q347 704 347 672ZM164 196H356L291 379Q281 407 273.5 429.5Q266 452 261 471H259Q254 452 247 429.5Q240 407 230 380ZM381 131H140L93 0H6L211 541H309L515 0H429Z" glyph-name="aringacute.small" horiz-adv-x="521" unicode="&#63013;" /><glyph d="M531 678V118L828 404V316L512 0H479L163 316V404L460 119V678Z" glyph-name="arrowdown" horiz-adv-x="990" unicode="&#8595;" /><glyph d="M840 310H280L566 13H478L162 329V362L478 678H566L281 381H840Z" glyph-name="arrowleft" horiz-adv-x="990" unicode="&#8592;" /><glyph d="M150 381H709L424 678H512L828 362V329L512 13H424L710 310H150Z" glyph-name="arrowright" horiz-adv-x="990" unicode="&#8594;" /><glyph d="M460 0V559L163 274V362L479 678H512L828 362V274L531 560V0Z" glyph-name="arrowup" horiz-adv-x="990" unicode="&#8593;" /><glyph d="M250 613 118 387H50L222 678H277L449 387H380Z" glyph-name="asciicircum" horiz-adv-x="499" unicode="^" /><glyph d="M415 358Q447 358 483 369Q519 380 552 400V327Q526 310 489.5 298.5Q453 287 416 287Q388 287 360 293.5Q332 300 304 308.5Q276 317 248 323.5Q220 330 193 330Q161 330 125 319Q89 308 56 288V359Q82 376 119 388.5Q156 401 192 401Q220 401 248 394.5Q276 388 304 379.5Q332 371 359.5 364.5Q387 358 415 358Z" glyph-name="asciitilde" horiz-adv-x="608" unicode="~" /><glyph d="M274 729H328L329 586L464 629L480 577L345 532L427 417L383 386L301 496L219 386L175 417L258 532L121 577L137 629L272 586Z" glyph-name="asterisk" horiz-adv-x="600" unicode="*" /><glyph d="M473 313Q462 315 451 315.5Q440 316 432 316Q406 316 385 305.5Q364 295 350 277Q336 259 328.5 236Q321 213 321 188Q321 158 331.5 143Q342 128 373 128Q383 128 393.5 130.5Q404 133 414 141Q424 149 432.5 163Q441 177 447 201ZM466 112Q451 93 435.5 83Q420 73 405.5 68.5Q391 64 379.5 63.5Q368 63 360 63Q338 63 317.5 70Q297 77 281.5 92.5Q266 108 257 131.5Q248 155 248 188Q248 228 260 263Q272 298 296 323.5Q320 349 355.5 363.5Q391 378 437 378Q472 378 502.5 373Q533 368 555 363L529 230Q526 213 523 192.5Q520 172 523 154.5Q526 137 538.5 125Q551 113 578 113Q627 113 649.5 149Q672 185 672 244Q672 302 657 351.5Q642 401 611 437Q580 473 532 493.5Q484 514 418 514Q350 514 297 492Q244 470 208 431Q172 392 153 337.5Q134 283 134 219Q134 151 153.5 97.5Q173 44 209.5 7Q246 -30 298.5 -49.5Q351 -69 418 -69Q446 -69 480.5 -62Q515 -55 541 -43V-106Q519 -117 484.5 -123Q450 -129 418 -129Q336 -129 271 -106.5Q206 -84 160.5 -39.5Q115 5 91 70Q67 135 67 219Q67 299 90.5 364.5Q114 430 158.5 476.5Q203 523 268.5 548Q334 573 418 573Q500 573 561 549Q622 525 662 482.5Q702 440 721.5 380Q741 320 741 248Q741 149 694 101.5Q647 54 572 54Q540 54 509.5 67.5Q479 81 468 112Z" glyph-name="at" horiz-adv-x="796" unicode="@" /><glyph d="M473 430Q462 432 451 432.5Q440 433 432 433Q406 433 385 422.5Q364 412 350 394Q336 376 328.5 353Q321 330 321 305Q321 275 331.5 260Q342 245 373 245Q383 245 393.5 247.5Q404 250 414 258Q424 266 432.5 280Q441 294 447 318ZM466 229Q451 210 435.5 200Q420 190 405.5 185.5Q391 181 379.5 180.5Q368 180 360 180Q338 180 317.5 187Q297 194 281.5 209.5Q266 225 257 248.5Q248 272 248 305Q248 345 260 380Q272 415 296 440.5Q320 466 355.5 480.5Q391 495 437 495Q472 495 502.5 490Q533 485 555 480L529 347Q526 330 523 309.5Q520 289 523 271.5Q526 254 538.5 242Q551 230 578 230Q627 230 649.5 266Q672 302 672 361Q672 419 657 468.5Q642 518 611 554Q580 590 532 610.5Q484 631 418 631Q350 631 297 609Q244 587 208 548Q172 509 153 454.5Q134 400 134 336Q134 268 153.5 214.5Q173 161 209.5 124Q246 87 298.5 67.5Q351 48 418 48Q446 48 480.5 55Q515 62 541 74V11Q519 0 484.5 -6Q450 -12 418 -12Q336 -12 271 10.5Q206 33 160.5 77.5Q115 122 91 187Q67 252 67 336Q67 416 90.5 481.5Q114 547 158.5 593.5Q203 640 268.5 665Q334 690 418 690Q500 690 561 666Q622 642 662 599.5Q702 557 721.5 497Q741 437 741 365Q741 266 694 218.5Q647 171 572 171Q540 171 509.5 184.5Q479 198 468 229Z" glyph-name="at.cap" horiz-adv-x="796" unicode="&#58643;" /><glyph d="M349 656Q371 656 396 667Q421 678 441 692V626Q426 615 400 603Q374 591 350 591Q331 591 311.5 596Q292 601 273.5 607.5Q255 614 236.5 619Q218 624 200 624Q178 624 153 613Q128 602 108 588V654Q123 665 149 677.5Q175 690 199 690Q218 690 237 684.5Q256 679 274.5 673Q293 667 311.5 661.5Q330 656 349 656ZM372 235Q342 238 316 239Q290 240 282 240Q250 240 229.5 238Q209 236 194.5 232Q180 228 171 221.5Q162 215 153 207Q145 199 140 184.5Q135 170 135 144Q135 120 143 104Q151 88 165.5 79Q180 70 199 66Q218 62 240 62Q292 62 322.5 79.5Q353 97 372 125ZM277 305Q285 305 313 304Q341 303 372 301V364Q372 393 366 410.5Q360 428 345.5 437Q331 446 306.5 449Q282 452 244 452Q217 452 177.5 448.5Q138 445 89 434V504Q107 509 130 512.5Q153 516 175.5 518Q198 520 219.5 521Q241 522 256 522Q305 522 342.5 516Q380 510 404.5 493.5Q429 477 441.5 447.5Q454 418 454 371V0H397L385 53H384Q352 23 312 7Q272 -9 225 -9Q186 -9 149.5 2Q113 13 89 36Q69 56 59 85Q49 114 49 146Q49 183 59 209Q69 235 88 254Q120 286 170 295.5Q220 305 277 305Z" glyph-name="atilde" horiz-adv-x="530" unicode="&#227;" /><glyph d="M355 656Q377 656 402 667Q427 678 447 692V626Q432 615 406 603Q380 591 356 591Q337 591 317.5 596Q298 601 279.5 607.5Q261 614 242.5 619Q224 624 206 624Q184 624 159 613Q134 602 114 588V654Q129 665 155 677.5Q181 690 205 690Q224 690 243 684.5Q262 679 280.5 673Q299 667 317.5 661.5Q336 656 355 656ZM420 413Q408 423 390 431Q375 438 352.5 444Q330 450 301 450Q220 450 181 404.5Q142 359 142 254Q142 200 151 163Q160 126 177.5 103.5Q195 81 221.5 71Q248 61 283 61Q308 61 329.5 68Q351 75 368 86.5Q385 98 398 111Q411 124 420 136ZM447 510H502V0H443L433 60H432Q401 30 364 10.5Q327 -9 269 -9Q163 -9 109 53Q55 115 55 255Q55 393 115.5 456Q176 519 293 519Q327 519 353.5 512.5Q380 506 398 498Q419 488 435 477H437Z" glyph-name="atilde.hist" horiz-adv-x="587" unicode="&#59190;" /><glyph d="M335 688Q357 688 382 699Q407 710 427 724V658Q412 647 386 635Q360 623 336 623Q317 623 297.5 628Q278 633 259.5 639.5Q241 646 222.5 651Q204 656 186 656Q164 656 139 645Q114 634 94 620V686Q109 697 135 709.5Q161 722 185 722Q204 722 223 716.5Q242 711 260.5 705Q279 699 297.5 693.5Q316 688 335 688ZM164 196H356L291 379Q281 407 273.5 429.5Q266 452 261 471H259Q254 452 247 429.5Q240 407 230 380ZM381 131H140L93 0H6L211 541H309L515 0H429Z" glyph-name="atilde.small" horiz-adv-x="521" unicode="&#63459;" /><glyph d="M167 99Q189 79 221 70Q253 61 285 61Q322 61 352 70.5Q382 80 402.5 102.5Q423 125 434 162Q445 199 445 255Q445 362 410.5 405.5Q376 449 304 449Q265 449 230.5 429.5Q196 410 167 374ZM150 35 140 0H85V678H167V460H169Q204 492 242 505.5Q280 519 318 519Q426 519 479 457.5Q532 396 532 259Q532 123 472.5 57Q413 -9 295 -9Q282 -9 264 -7Q246 -5 226.5 0.5Q207 6 187.5 14.5Q168 23 152 35Z" glyph-name="b" horiz-adv-x="587" unicode="b" /><glyph d="M409 279Q424 273 438.5 262Q453 251 464.5 235Q476 219 483 198.5Q490 178 490 152Q490 115 479 88Q468 61 450 43Q422 15 378 7.5Q334 0 277 0H83V541H277Q329 541 369.5 534Q410 527 436 501Q452 485 462.5 460Q473 435 473 401Q473 352 454 325Q435 298 409 281ZM281 309Q310 309 331.5 312Q353 315 370 332Q381 343 384.5 358Q388 373 388 393Q388 433 370 453Q354 469 333.5 473Q313 477 281 477H165V309ZM292 66Q323 66 346.5 69.5Q370 73 386 89Q397 100 401 117Q405 134 405 156Q405 198 385 218Q368 235 345.5 239Q323 243 292 243H165V66Z" glyph-name="b.small" horiz-adv-x="534" unicode="&#63330;" /><glyph d="M122 345Q135 337 153 331.5Q171 326 187 326Q230 326 254 350.5Q278 375 278 442Q278 505 258.5 531Q239 557 197 557Q176 557 156 546.5Q136 536 122 516ZM193 273Q177 273 152.5 277.5Q128 282 108 295L104 279H56V708H122V581H123Q142 596 164 603Q186 610 207 610Q278 610 312.5 570.5Q347 531 347 443Q347 273 193 273Z" glyph-name="b.superior" horiz-adv-x="380" unicode="&#58210;" /><glyph d="M-11 763H65L358 -85H282Z" glyph-name="backslash" horiz-adv-x="347" unicode="\" /><glyph d="M288 -85H218V763H288Z" glyph-name="bar" horiz-adv-x="506" unicode="|" /><glyph d="M345 63Q398 63 434 77.5Q470 92 492.5 121.5Q515 151 525.5 196Q536 241 538 301H151Q153 241 163.5 196Q174 151 196.5 121.5Q219 92 255.5 77.5Q292 63 345 63ZM345 615Q291 615 255 600Q219 585 196.5 555Q174 525 163.5 479Q153 433 151 372H538Q536 433 526 479Q516 525 493.5 555Q471 585 435 600Q399 615 345 615ZM634 339Q634 257 620.5 192Q607 127 574 81.5Q541 36 485.5 12Q430 -12 345 -12Q260 -12 204.5 12Q149 36 116 81.5Q83 127 69.5 192Q56 257 56 339Q56 421 69.5 486Q83 551 116 596.5Q149 642 204.5 666Q260 690 345 690Q430 690 485.5 666Q541 642 574 596.5Q607 551 620.5 486Q634 421 634 339Z" glyph-name="barredO" horiz-adv-x="690" unicode="&#59192;" /><glyph d="M402 95Q438 131 444 221H142Q146 131 184 95Q204 75 231 66.5Q258 58 293 58Q328 58 355 66.5Q382 75 402 95ZM184 415Q146 377 142 288H444Q438 379 402 415Q382 435 355 443.5Q328 452 293 452Q258 452 231 443.5Q204 435 184 415ZM531 255Q531 179 514 128Q497 77 465.5 46Q434 15 390.5 1.5Q347 -12 293 -12Q239 -12 195.5 1.5Q152 15 120.5 46Q89 77 72 128Q55 179 55 255Q55 331 72 382Q89 433 120.5 464Q152 495 195.5 508.5Q239 522 293 522Q347 522 390.5 508.5Q434 495 465.5 464Q497 433 514 382Q531 331 531 255Z" glyph-name="barredo" horiz-adv-x="586" unicode="&#59191;" /><glyph d="M297 57Q340 57 369 68Q398 79 416.5 101.5Q435 124 444 158Q453 192 455 237H138Q140 192 149 158Q158 124 177 101.5Q196 79 225 68Q254 57 297 57ZM297 485Q211 485 176.5 439.5Q142 394 138 303H455Q453 349 444.5 383Q436 417 417.5 439.5Q399 462 369.5 473.5Q340 485 297 485ZM540 271Q540 205 528.5 153Q517 101 489.5 64Q462 27 415 7.5Q368 -12 297 -12Q226 -12 179 7.5Q132 27 104 64Q76 101 64.5 153Q53 205 53 271Q53 336 64.5 388.5Q76 441 104 477.5Q132 514 179 533.5Q226 553 297 553Q368 553 415 533.5Q462 514 489.5 477.5Q517 441 528.5 388.5Q540 336 540 271Z" glyph-name="barredo.small" horiz-adv-x="593" unicode="&#59193;" /><glyph d="M495 693Q568 693 632.5 665Q697 637 745 589Q793 541 821 476.5Q849 412 849 339Q849 266 821 201.5Q793 137 745 89Q697 41 632.5 13Q568 -15 495 -15Q422 -15 357.5 13Q293 41 245 89Q197 137 169 201.5Q141 266 141 339Q141 412 169 476.5Q197 541 245 589Q293 637 357.5 665Q422 693 495 693Z" glyph-name="blackcircle" horiz-adv-x="990" unicode="&#9679;" /><glyph d="M240 510H750V0H240Z" glyph-name="blacksmallsquare" horiz-adv-x="990" unicode="&#9642;" /><glyph d="M156 678H834V0H156Z" glyph-name="blacksquare" horiz-adv-x="990" unicode="&#59200;" /><glyph d="M68 303V323L120 374Q119 405 116 435Q113 465 110 491.5Q107 518 105 540Q103 562 103 577Q103 615 109.5 644Q116 673 133.5 692Q151 711 181.5 720.5Q212 730 259 730Q266 730 273 730Q280 730 288 729V662H275Q241 662 222.5 657.5Q204 653 195.5 643.5Q187 634 185.5 618Q184 602 184 580Q184 526 191 478Q198 430 198 391Q198 366 193 346.5Q188 327 174 313Q188 299 193 277.5Q198 256 198 230Q198 188 191 137Q184 86 184 32Q184 9 185.5 -6.5Q187 -22 195.5 -31.5Q204 -41 222.5 -45.5Q241 -50 275 -50H288V-117Q280 -118 273 -118Q266 -118 259 -118Q212 -118 181.5 -108.5Q151 -99 133.5 -80Q116 -61 109.5 -32Q103 -3 103 35Q103 50 105.5 74Q108 98 111 127.5Q114 157 116.5 189Q119 221 120 252Z" glyph-name="braceleft" horiz-adv-x="332" unicode="{" /><glyph d="M68 336V356L120 407Q119 438 116 468Q113 498 110 524.5Q107 551 105 573Q103 595 103 610Q103 648 109.5 677Q116 706 133.5 725Q151 744 181.5 753.5Q212 763 259 763Q266 763 273 763Q280 763 288 762V695H275Q241 695 222.5 690.5Q204 686 195.5 676.5Q187 667 185.5 651Q184 635 184 613Q184 559 191 511Q198 463 198 424Q198 399 193 379.5Q188 360 174 346Q188 332 193 310.5Q198 289 198 263Q198 221 191 170Q184 119 184 65Q184 42 185.5 26.5Q187 11 195.5 1.5Q204 -8 222.5 -12.5Q241 -17 275 -17H288V-84Q280 -85 273 -85Q266 -85 259 -85Q212 -85 181.5 -75.5Q151 -66 133.5 -47Q116 -28 109.5 1Q103 30 103 68Q103 83 105.5 107Q108 131 111 160.5Q114 190 116.5 222Q119 254 120 285Z" glyph-name="braceleft.cap" horiz-adv-x="332" unicode="&#58517;" /><glyph d="M212 252Q213 221 215.5 189Q218 157 221 127.5Q224 98 226.5 74Q229 50 229 35Q229 -3 222.5 -32Q216 -61 198.5 -80Q181 -99 150.5 -108.5Q120 -118 73 -118Q66 -118 59 -118Q52 -118 44 -117V-50H57Q91 -50 109.5 -45.5Q128 -41 136.5 -31.5Q145 -22 146.5 -6.5Q148 9 148 32Q148 86 141 137Q134 188 134 230Q134 256 139 277.5Q144 299 158 313Q144 327 139 346.5Q134 366 134 391Q134 430 141 478Q148 526 148 580Q148 602 146.5 618Q145 634 136.5 643.5Q128 653 109.5 657.5Q91 662 57 662H44V729Q52 730 59 730Q66 730 73 730Q120 730 150.5 720.5Q181 711 198.5 692Q216 673 222.5 644Q229 615 229 577Q229 562 227 540Q225 518 222 491.5Q219 465 216 435Q213 405 212 374L264 323V303Z" glyph-name="braceright" horiz-adv-x="332" unicode="}" /><glyph d="M212 285Q213 254 215.5 222Q218 190 221 160.5Q224 131 226.5 107Q229 83 229 68Q229 30 222.5 1Q216 -28 198.5 -47Q181 -66 150.5 -75.5Q120 -85 73 -85Q66 -85 59 -85Q52 -85 44 -84V-17H57Q91 -17 109.5 -12.5Q128 -8 136.5 1.5Q145 11 146.5 26.5Q148 42 148 65Q148 119 141 170Q134 221 134 263Q134 289 139 310.5Q144 332 158 346Q144 360 139 379.5Q134 399 134 424Q134 463 141 511Q148 559 148 613Q148 635 146.5 651Q145 667 136.5 676.5Q128 686 109.5 690.5Q91 695 57 695H44V762Q52 763 59 763Q66 763 73 763Q120 763 150.5 753.5Q181 744 198.5 725Q216 706 222.5 677Q229 648 229 610Q229 595 227 573Q225 551 222 524.5Q219 498 216 468Q213 438 212 407L264 356V336Z" glyph-name="braceright.cap" horiz-adv-x="332" unicode="&#58518;" /><glyph d="M288 -118H102V730H288V663H184V-51H288Z" glyph-name="bracketleft" horiz-adv-x="332" unicode="[" /><glyph d="M288 -85H102V763H288V696H184V-18H288Z" glyph-name="bracketleft.cap" horiz-adv-x="332" unicode="&#58515;" /><glyph d="M44 -51H148V663H44V730H230V-118H44Z" glyph-name="bracketright" horiz-adv-x="332" unicode="]" /><glyph d="M44 -18H148V696H44V763H230V-85H44Z" glyph-name="bracketright.cap" horiz-adv-x="332" unicode="&#58516;" /><glyph d="M300 618Q315 618 331 620.5Q347 623 360.5 630Q374 637 384 648.5Q394 660 397 678H468Q458 615 413 587.5Q368 560 300 560Q232 560 187 587.5Q142 615 132 678H203Q206 660 216 648.5Q226 637 239.5 630Q253 623 269 620.5Q285 618 300 618Z" glyph-name="breve" horiz-adv-x="600" unicode="&#728;" /><glyph d="M300 786Q315 786 331 788.5Q347 791 360.5 798Q374 805 384 816.5Q394 828 397 846H468Q458 783 413 755.5Q368 728 300 728Q232 728 187 755.5Q142 783 132 846H203Q206 828 216 816.5Q226 805 239.5 798Q253 791 269 788.5Q285 786 300 786Z" glyph-name="breve.cap" horiz-adv-x="600" unicode="&#58406;" /><glyph d="M300 650Q315 650 331 652.5Q347 655 360.5 662Q374 669 384 680.5Q394 692 397 710H468Q458 647 413 619.5Q368 592 300 592Q232 592 187 619.5Q142 647 132 710H203Q206 692 216 680.5Q226 669 239.5 662Q253 655 269 652.5Q285 650 300 650Z" glyph-name="breve.small" horiz-adv-x="600" unicode="&#63220;" /><glyph d="M218 381V763H288V381ZM288 310V-85H218V310Z" glyph-name="brokenbar" horiz-adv-x="506" unicode="&#166;" /><glyph d="M174 342Q174 368 183.5 391Q193 414 210 431Q227 448 250 458Q273 468 299 468Q325 468 348 458Q371 448 388 431Q405 414 415 391Q425 368 425 342Q425 316 415 293Q405 270 388 253Q371 236 348 226.5Q325 217 299 217Q273 217 250 226.5Q227 236 210 253Q193 270 183.5 293Q174 316 174 342Z" glyph-name="bullet" horiz-adv-x="600" unicode="&#8226;" /><glyph d="M434 12Q394 -2 360 -7Q326 -12 294 -12Q170 -12 112.5 52Q55 116 55 255Q55 315 66 364Q77 413 104 448.5Q131 484 177 503Q223 522 294 522Q320 522 352 519Q384 516 419 504V434Q387 446 357.5 449Q328 452 303 452Q264 452 235.5 444Q207 436 187 416Q164 393 153 352Q142 311 142 255Q142 198 152.5 160Q163 122 189 96Q209 76 237 69Q265 62 303 62Q329 62 363.5 67Q398 72 434 86Z" glyph-name="c" horiz-adv-x="470" unicode="c" /><glyph d="M53 270Q53 348 68.5 402Q84 456 114 489.5Q144 523 188.5 538Q233 553 291 553Q317 553 352 550Q387 547 430 535V466Q393 477 360.5 481Q328 485 304 485Q264 485 233 475Q202 465 181 441Q160 417 149.5 375.5Q139 334 139 271Q139 207 149.5 166.5Q160 126 181 102.5Q202 79 233 70Q264 61 304 61Q334 61 371.5 66.5Q409 72 441 83V12Q424 4 403.5 -0.5Q383 -5 362.5 -7.5Q342 -10 323 -11Q304 -12 291 -12Q233 -12 188.5 3Q144 18 114 51Q84 84 68.5 138Q53 192 53 270Z" glyph-name="c.small" horiz-adv-x="475" unicode="&#63331;" /><glyph d="M282 287Q254 277 231 274Q208 271 188 271Q107 271 70 311.5Q33 352 33 440Q33 478 40 510Q47 542 64.5 564.5Q82 587 112 599.5Q142 612 188 612Q205 612 226.5 609.5Q248 607 273 598V543Q247 553 227.5 555.5Q208 558 194 558Q149 558 128 537Q114 523 108 499Q102 475 102 440Q102 405 107.5 383.5Q113 362 129 346Q140 335 156 331Q172 327 194 327Q208 327 230.5 330.5Q253 334 282 345Z" glyph-name="c.superior" horiz-adv-x="304" unicode="&#58211;" /><glyph d="M299 566H222L330 678H439ZM434 12Q394 -2 360 -7Q326 -12 294 -12Q170 -12 112.5 52Q55 116 55 255Q55 315 66 364Q77 413 104 448.5Q131 484 177 503Q223 522 294 522Q320 522 352 519Q384 516 419 504V434Q387 446 357.5 449Q328 452 303 452Q264 452 235.5 444Q207 436 187 416Q164 393 153 352Q142 311 142 255Q142 198 152.5 160Q163 122 189 96Q209 76 237 69Q265 62 303 62Q329 62 363.5 67Q398 72 434 86Z" glyph-name="cacute" horiz-adv-x="470" unicode="&#263;" /><glyph d="M301 598H224L332 710H441ZM53 270Q53 348 68.5 402Q84 456 114 489.5Q144 523 188.5 538Q233 553 291 553Q317 553 352 550Q387 547 430 535V466Q393 477 360.5 481Q328 485 304 485Q264 485 233 475Q202 465 181 441Q160 417 149.5 375.5Q139 334 139 271Q139 207 149.5 166.5Q160 126 181 102.5Q202 79 233 70Q264 61 304 61Q334 61 371.5 66.5Q409 72 441 83V12Q424 4 403.5 -0.5Q383 -5 362.5 -7.5Q342 -10 323 -11Q304 -12 291 -12Q233 -12 188.5 3Q144 18 114 51Q84 84 68.5 138Q53 192 53 270Z" glyph-name="cacute.small" horiz-adv-x="475" unicode="&#63043;" /><glyph d="M157 678H238L306 608L374 678H455L345 562H266Z" glyph-name="caron" horiz-adv-x="600" unicode="&#711;" /><glyph d="M157 846H238L306 776L374 846H455L345 730H266Z" glyph-name="caron.cap" horiz-adv-x="600" unicode="&#58413;" /><glyph d="M157 710H238L306 640L374 710H455L345 594H266Z" glyph-name="caron.small" horiz-adv-x="600" unicode="&#63221;" /><glyph d="M394 678H486L412 507H357Z" glyph-name="caronSlovak" horiz-adv-x="600" unicode="&#58387;" /><glyph d="M115 678H196L264 608L332 678H413L303 562H224ZM434 12Q394 -2 360 -7Q326 -12 294 -12Q170 -12 112.5 52Q55 116 55 255Q55 315 66 364Q77 413 104 448.5Q131 484 177 503Q223 522 294 522Q320 522 352 519Q384 516 419 504V434Q387 446 357.5 449Q328 452 303 452Q264 452 235.5 444Q207 436 187 416Q164 393 153 352Q142 311 142 255Q142 198 152.5 160Q163 122 189 96Q209 76 237 69Q265 62 303 62Q329 62 363.5 67Q398 72 434 86Z" glyph-name="ccaron" horiz-adv-x="470" unicode="&#269;" /><glyph d="M118 710H199L267 640L335 710H416L306 594H227ZM53 270Q53 348 68.5 402Q84 456 114 489.5Q144 523 188.5 538Q233 553 291 553Q317 553 352 550Q387 547 430 535V466Q393 477 360.5 481Q328 485 304 485Q264 485 233 475Q202 465 181 441Q160 417 149.5 375.5Q139 334 139 271Q139 207 149.5 166.5Q160 126 181 102.5Q202 79 233 70Q264 61 304 61Q334 61 371.5 66.5Q409 72 441 83V12Q424 4 403.5 -0.5Q383 -5 362.5 -7.5Q342 -10 323 -11Q304 -12 291 -12Q233 -12 188.5 3Q144 18 114 51Q84 84 68.5 138Q53 192 53 270Z" glyph-name="ccaron.small" horiz-adv-x="475" unicode="&#63044;" /><glyph d="M245 -9Q146 2 100.5 66Q55 130 55 255Q55 315 66 364Q77 413 104 448.5Q131 484 177 503Q223 522 294 522Q320 522 352 519Q384 516 419 504V434Q387 446 357.5 449Q328 452 303 452Q264 452 235.5 444Q207 436 187 416Q164 393 153 352Q142 311 142 255Q142 198 152.5 160Q163 122 189 96Q209 76 237 69Q265 62 303 62Q329 62 363.5 67Q398 72 434 86V12Q401 0 372 -5Q343 -10 316 -11L305 -37Q335 -45 350.5 -59.5Q366 -74 366 -100Q366 -138 331.5 -156Q297 -174 242 -174Q231 -174 211.5 -172Q192 -170 169 -164V-110Q186 -115 204 -116.5Q222 -118 234 -118Q263 -118 275.5 -112.5Q288 -107 288 -94Q288 -81 270.5 -75.5Q253 -70 235 -68L229 -44Z" glyph-name="ccedilla" horiz-adv-x="470" unicode="&#231;" /><glyph d="M245 -9Q150 1 101.5 65.5Q53 130 53 270Q53 348 68.5 402Q84 456 114 489.5Q144 523 188.5 538Q233 553 291 553Q317 553 352 550Q387 547 430 535V466Q393 477 360.5 481Q328 485 304 485Q264 485 233 475Q202 465 181 441Q160 417 149.5 375.5Q139 334 139 271Q139 207 149.5 166.5Q160 126 181 102.5Q202 79 233 70Q264 61 304 61Q334 61 371.5 66.5Q409 72 441 83V12Q414 0 379 -5Q344 -10 316 -11L305 -37Q335 -45 350.5 -59.5Q366 -74 366 -100Q366 -138 331.5 -156Q297 -174 242 -174Q231 -174 211.5 -172Q192 -170 169 -164V-110Q186 -115 204 -116.5Q222 -118 234 -118Q263 -118 275.5 -112.5Q288 -107 288 -94Q288 -81 270.5 -75.5Q253 -70 235 -68L229 -44Z" glyph-name="ccedilla.small" horiz-adv-x="475" unicode="&#63463;" /><glyph d="M413 566H332L264 636L196 566H115L225 682H304ZM434 12Q394 -2 360 -7Q326 -12 294 -12Q170 -12 112.5 52Q55 116 55 255Q55 315 66 364Q77 413 104 448.5Q131 484 177 503Q223 522 294 522Q320 522 352 519Q384 516 419 504V434Q387 446 357.5 449Q328 452 303 452Q264 452 235.5 444Q207 436 187 416Q164 393 153 352Q142 311 142 255Q142 198 152.5 160Q163 122 189 96Q209 76 237 69Q265 62 303 62Q329 62 363.5 67Q398 72 434 86Z" glyph-name="ccircumflex" horiz-adv-x="470" unicode="&#265;" /><glyph d="M416 595H335L267 665L199 595H118L228 711H307ZM53 270Q53 348 68.5 402Q84 456 114 489.5Q144 523 188.5 538Q233 553 291 553Q317 553 352 550Q387 547 430 535V466Q393 477 360.5 481Q328 485 304 485Q264 485 233 475Q202 465 181 441Q160 417 149.5 375.5Q139 334 139 271Q139 207 149.5 166.5Q160 126 181 102.5Q202 79 233 70Q264 61 304 61Q334 61 371.5 66.5Q409 72 441 83V12Q424 4 403.5 -0.5Q383 -5 362.5 -7.5Q342 -10 323 -11Q304 -12 291 -12Q233 -12 188.5 3Q144 18 114 51Q84 84 68.5 138Q53 192 53 270Z" glyph-name="ccircumflex.small" horiz-adv-x="475" unicode="&#63016;" /><glyph d="M434 12Q394 -2 360 -7Q326 -12 294 -12Q170 -12 112.5 52Q55 116 55 255Q55 315 66 364Q77 413 104 448.5Q131 484 177 503Q223 522 294 522Q320 522 352 519Q384 516 419 504V434Q387 446 357.5 449Q328 452 303 452Q264 452 235.5 444Q207 436 187 416Q164 393 153 352Q142 311 142 255Q142 198 152.5 160Q163 122 189 96Q209 76 237 69Q265 62 303 62Q329 62 363.5 67Q398 72 434 86ZM310 587H218V676H310Z" glyph-name="cdotaccent" horiz-adv-x="470" unicode="&#267;" /><glyph d="M323 619H231V708H323ZM53 270Q53 348 68.5 402Q84 456 114 489.5Q144 523 188.5 538Q233 553 291 553Q317 553 352 550Q387 547 430 535V466Q393 477 360.5 481Q328 485 304 485Q264 485 233 475Q202 465 181 441Q160 417 149.5 375.5Q139 334 139 271Q139 207 149.5 166.5Q160 126 181 102.5Q202 79 233 70Q264 61 304 61Q334 61 371.5 66.5Q409 72 441 83V12Q424 4 403.5 -0.5Q383 -5 362.5 -7.5Q342 -10 323 -11Q304 -12 291 -12Q233 -12 188.5 3Q144 18 114 51Q84 84 68.5 138Q53 192 53 270Z" glyph-name="cdotaccent.small" horiz-adv-x="475" unicode="&#63017;" /><glyph d="M287 0H359L343 -37Q373 -45 388.5 -59.5Q404 -74 404 -100Q404 -138 369.5 -156Q335 -174 280 -174Q269 -174 249.5 -172Q230 -170 207 -164V-110Q224 -115 242 -116.5Q260 -118 272 -118Q301 -118 313.5 -112.5Q326 -107 326 -94Q326 -81 308.5 -75.5Q291 -70 273 -68L267 -44Z" glyph-name="cedilla" horiz-adv-x="600" unicode="&#184;" /><glyph d="M366 566Q382 564 398.5 560.5Q415 557 432 551V481Q400 493 370.5 496Q341 499 316 499Q269 499 238 485Q207 471 188.5 443Q170 415 162.5 374Q155 333 155 278Q155 225 162.5 184.5Q170 144 189 117Q208 90 238.5 76Q269 62 316 62Q342 62 376.5 67Q411 72 447 86V12Q407 -2 373 -7Q339 -12 307 -12Q296 -12 287 -11.5Q278 -11 268 -10L242 -118H164L195 7Q129 34 98.5 100Q68 166 68 278Q68 341 78 393.5Q88 446 113.5 484Q139 522 182 544Q225 566 290 569L317 678H394Z" glyph-name="cent" horiz-adv-x="492" unicode="&#162;" /><glyph d="M443 635Q459 633 475.5 629.5Q492 626 509 620V550Q477 562 447.5 565Q418 568 393 568Q346 568 315 554Q284 540 265.5 512Q247 484 239.5 443Q232 402 232 347Q232 294 239.5 253.5Q247 213 266 186Q285 159 315.5 145Q346 131 393 131Q419 131 453.5 136Q488 141 524 155V81Q484 67 450 62Q416 57 384 57Q373 57 364 57.5Q355 58 345 59L319 -49H241L272 76Q206 103 175.5 169Q145 235 145 347Q145 410 155 462.5Q165 515 190.5 553Q216 591 259 613Q302 635 367 638L394 747H471Z" glyph-name="cent.LP" horiz-adv-x="660" unicode="&#58659;" /><glyph d="M495 525Q551 525 600 503.5Q649 482 686 445.5Q723 409 744 359.5Q765 310 765 254Q765 198 744 149Q723 100 686 63Q649 26 600 5Q551 -16 495 -16Q439 -16 390 5Q341 26 304 63Q267 100 246 149Q225 198 225 254Q225 310 246 359.5Q267 409 304 445.5Q341 482 390 503.5Q439 525 495 525Z" glyph-name="circle" horiz-adv-x="990" unicode="&#59201;" /><glyph d="M455 566H374L306 636L238 566H157L267 682H346Z" glyph-name="circumflex" horiz-adv-x="600" unicode="&#710;" /><glyph d="M455 734H374L306 804L238 734H157L267 850H346Z" glyph-name="circumflex.cap" horiz-adv-x="600" unicode="&#58403;" /><glyph d="M455 595H374L306 665L238 595H157L267 711H346Z" glyph-name="circumflex.small" horiz-adv-x="600" unicode="&#63222;" /><glyph d="M189 0H83V107H189ZM189 403H83V510H189Z" glyph-name="colon" horiz-adv-x="272" unicode=":" /><glyph d="M100 117H208L107 -118H44Z" glyph-name="comma" horiz-adv-x="272" unicode="," /><glyph d="M326 678H418L344 507H289Z" glyph-name="commaabovecmb" horiz-adv-x="600" unicode="&#787;" /><glyph d="M255 -76H347L273 -247H218Z" glyph-name="commaaccent" horiz-adv-x="600" unicode="&#63171;" /><glyph d="M553 566H461L535 737H590Z" glyph-name="commaturnedabove" horiz-adv-x="700" unicode="&#59202;" /><glyph d="M286 342Q286 439 324 481.5Q362 524 440 524Q459 524 481.5 521Q504 518 527 510V458Q508 465 487 468Q466 471 448 471Q397 471 374.5 443.5Q352 416 352 342Q352 268 374.5 240.5Q397 213 448 213Q466 213 487 216Q508 219 527 226V174Q504 166 481.5 163Q459 160 440 160Q362 160 324 202.5Q286 245 286 342ZM137 339Q137 272 155 218Q173 164 209 126Q245 88 299 67.5Q353 47 426 47Q499 47 553 67.5Q607 88 643 126Q679 164 697 218Q715 272 715 339Q715 406 697 460Q679 514 643 552Q607 590 553 610.5Q499 631 426 631Q353 631 299 610.5Q245 590 209 552Q173 514 155 460Q137 406 137 339ZM782 339Q782 257 758.5 192Q735 127 690 81.5Q645 36 578.5 12Q512 -12 426 -12Q340 -12 273.5 12Q207 36 162 81.5Q117 127 93.5 192Q70 257 70 339Q70 421 93.5 486Q117 551 162 596.5Q207 642 273.5 666Q340 690 426 690Q512 690 578.5 666Q645 642 690 596.5Q735 551 758.5 486Q782 421 782 339Z" glyph-name="copyright" horiz-adv-x="852" unicode="&#169;" /><glyph d="M336 292Q304 280 277.5 276.5Q251 273 225 273Q130 273 85.5 320.5Q41 368 41 474Q41 519 49.5 556.5Q58 594 79 620Q100 646 135.5 660.5Q171 675 225 675Q245 675 271 672.5Q297 670 326 658V596Q295 607 272 610Q249 613 232 613Q206 613 186.5 607.5Q167 602 153 588Q122 557 122 474Q122 432 129 406Q136 380 155 361Q168 348 187 343Q206 338 232 338Q250 338 277 341Q304 344 336 356Z" glyph-name="cordinal" horiz-adv-x="361" unicode="&#57729;" /><glyph d="M40 485Q40 602 87 650.5Q134 699 223 699Q243 699 271 696.5Q299 694 334 683V620Q304 631 277 634Q250 637 233 637Q206 637 185 630Q164 623 150 605.5Q136 588 128.5 559Q121 530 121 486Q121 441 128.5 412Q136 383 150 366.5Q164 350 185 344Q206 338 233 338Q254 338 283.5 341.5Q313 345 342 356V293Q327 286 310.5 282Q294 278 277.5 276Q261 274 247 273.5Q233 273 223 273Q178 273 144 284Q110 295 87 320Q64 345 52 385.5Q40 426 40 485Z" glyph-name="cordinal.small" horiz-adv-x="367" unicode="&#59203;" /><glyph d="M192 155Q167 190 154 235Q141 280 141 340Q141 400 154.5 444.5Q168 489 192 523L85 630L138 683L244 577Q281 605 329 618Q377 631 429 631Q480 631 528 618Q576 605 614 577L719 683L773 630L666 523Q690 489 703.5 444.5Q717 400 717 340Q717 280 703.5 235Q690 190 666 155L773 49L719 -4L614 101Q576 74 528.5 61Q481 48 429 48Q377 48 329.5 61Q282 74 244 101L138 -4L85 49ZM429 118Q468 118 505 128.5Q542 139 570.5 164.5Q599 190 616.5 233Q634 276 634 340Q634 404 616.5 446.5Q599 489 570.5 514.5Q542 540 505 550.5Q468 561 429 561Q390 561 353 550.5Q316 540 287.5 514.5Q259 489 241.5 446.5Q224 404 224 340Q224 276 241.5 233Q259 190 287.5 164.5Q316 139 353 128.5Q390 118 429 118Z" glyph-name="currency" horiz-adv-x="858" unicode="&#164;" /><glyph d="M420 413Q398 433 366 441Q334 449 302 449Q264 449 234.5 439.5Q205 430 184.5 407.5Q164 385 153 348Q142 311 142 255Q142 148 177.5 104.5Q213 61 285 61Q324 61 357.5 80.5Q391 100 420 136ZM432 60Q396 22 353.5 6.5Q311 -9 269 -9Q160 -9 107.5 54Q55 117 55 255Q55 391 114.5 455Q174 519 292 519Q306 519 323.5 517.5Q341 516 358.5 512.5Q376 509 392 503.5Q408 498 420 490V678H502V0H443L433 60Z" glyph-name="d" horiz-adv-x="587" unicode="d" /><glyph d="M525 271Q525 195 507 141.5Q489 88 455 54Q426 25 385.5 12.5Q345 0 288 0H83V541H288Q346 541 385.5 529.5Q425 518 455 488Q491 452 508 400.5Q525 349 525 271ZM439 271Q439 337 427 377.5Q415 418 389 444Q369 464 344 470.5Q319 477 284 477H165V66H284Q318 66 344.5 72.5Q371 79 389 97Q415 123 427 164Q439 205 439 271Z" glyph-name="d.small" horiz-adv-x="578" unicode="&#63332;" /><glyph d="M269 309H268Q248 289 222 281Q196 273 172 273Q102 273 67.5 313.5Q33 354 33 441Q33 528 72 569Q111 610 187 610Q203 610 222 606.5Q241 603 258 594V708H324V279H273ZM258 538Q245 546 227 551.5Q209 557 193 557Q150 557 126 532.5Q102 508 102 441Q102 378 121.5 352Q141 326 183 326Q204 326 224 336.5Q244 347 258 367Z" glyph-name="d.superior" horiz-adv-x="380" unicode="&#58212;" /><glyph d="M245 -85H193L186 405L32 396V472L186 463L178 678H259L251 463L406 472V396L251 404Z" glyph-name="dagger" horiz-adv-x="438" unicode="&#8224;" /><glyph d="M249 257 378 264V200L248 206L245 -85H193L188 207L60 200V264L188 257L186 405L32 396V472L186 463L178 678H259L251 463L406 472V396L251 404Z" glyph-name="daggerdbl" horiz-adv-x="438" unicode="&#8225;" /><glyph d="M627 678H719L645 507H590ZM420 413Q398 433 366 441Q334 449 302 449Q264 449 234.5 439.5Q205 430 184.5 407.5Q164 385 153 348Q142 311 142 255Q142 148 177.5 104.5Q213 61 285 61Q324 61 357.5 80.5Q391 100 420 136ZM432 60Q396 22 353.5 6.5Q311 -9 269 -9Q160 -9 107.5 54Q55 117 55 255Q55 391 114.5 455Q174 519 292 519Q306 519 323.5 517.5Q341 516 358.5 512.5Q376 509 392 503.5Q408 498 420 490V678H502V0H443L433 60Z" glyph-name="dcaron" horiz-adv-x="714" unicode="&#271;" /><glyph d="M127 710H208L276 640L344 710H425L315 594H236ZM525 271Q525 195 507 141.5Q489 88 455 54Q426 25 385.5 12.5Q345 0 288 0H83V541H288Q346 541 385.5 529.5Q425 518 455 488Q491 452 508 400.5Q525 349 525 271ZM439 271Q439 337 427 377.5Q415 418 389 444Q369 464 344 470.5Q319 477 284 477H165V66H284Q318 66 344.5 72.5Q371 79 389 97Q415 123 427 164Q439 205 439 271Z" glyph-name="dcaron.small" horiz-adv-x="578" unicode="&#63045;" /><glyph d="M274 -34Q336 -39 359.5 -59Q383 -79 383 -103Q383 -139 349.5 -156.5Q316 -174 265 -174Q252 -174 230.5 -172.5Q209 -171 186 -164V-110Q202 -115 219.5 -117Q237 -119 252 -119Q275 -119 290 -114.5Q305 -110 305 -99Q305 -85 288 -81Q271 -77 254 -75ZM420 413Q398 433 366 441Q334 449 302 449Q264 449 234.5 439.5Q205 430 184.5 407.5Q164 385 153 348Q142 311 142 255Q142 148 177.5 104.5Q213 61 285 61Q324 61 357.5 80.5Q391 100 420 136ZM432 60Q396 22 353.5 6.5Q311 -9 269 -9Q160 -9 107.5 54Q55 117 55 255Q55 391 114.5 455Q174 519 292 519Q306 519 323.5 517.5Q341 516 358.5 512.5Q376 509 392 503.5Q408 498 420 490V678H502V0H443L433 60Z" glyph-name="dcedilla" horiz-adv-x="587" unicode="&#7697;" /><glyph d="M258 -34Q320 -39 343.5 -59Q367 -79 367 -103Q367 -139 333.5 -156.5Q300 -174 249 -174Q236 -174 214.5 -172.5Q193 -171 170 -164V-110Q186 -115 203.5 -117Q221 -119 236 -119Q259 -119 274 -114.5Q289 -110 289 -99Q289 -85 272 -81Q255 -77 238 -75ZM525 271Q525 195 507 141.5Q489 88 455 54Q426 25 385.5 12.5Q345 0 288 0H83V541H288Q346 541 385.5 529.5Q425 518 455 488Q491 452 508 400.5Q525 349 525 271ZM439 271Q439 337 427 377.5Q415 418 389 444Q369 464 344 470.5Q319 477 284 477H165V66H284Q318 66 344.5 72.5Q371 79 389 97Q415 123 427 164Q439 205 439 271Z" glyph-name="dcedilla.small" horiz-adv-x="578" unicode="&#59207;" /><glyph d="M420 413Q398 433 366 441Q334 449 302 449Q264 449 234.5 439.5Q205 430 184.5 407.5Q164 385 153 348Q142 311 142 255Q142 148 177.5 104.5Q213 61 285 61Q324 61 357.5 80.5Q391 100 420 136ZM607 556H502V0H443L433 60H432Q396 22 353.5 6.5Q311 -9 269 -9Q160 -9 107.5 54Q55 117 55 255Q55 391 114.5 455Q174 519 292 519Q306 519 323.5 517.5Q341 516 358.5 512.5Q376 509 392 503.5Q408 498 420 490V556H273V623H420V678H502V623H607Z" glyph-name="dcroat" horiz-adv-x="587" unicode="&#273;" /><glyph d="M451 271Q451 337 439 377.5Q427 418 401 444Q381 464 356 470.5Q331 477 296 477H177V309H347V243H177V66H296Q330 66 356.5 72.5Q383 79 401 97Q427 123 439 164Q451 205 451 271ZM537 271Q537 195 519 141.5Q501 88 467 54Q438 25 397.5 12.5Q357 0 300 0H95V243H14V309H95V541H300Q358 541 397.5 529.5Q437 518 467 488Q503 452 520 400.5Q537 349 537 271Z" glyph-name="dcroat.small" horiz-adv-x="590" unicode="&#63046;" /><glyph d="M340 -181H251V-96H340ZM420 413Q398 433 366 441Q334 449 302 449Q264 449 234.5 439.5Q205 430 184.5 407.5Q164 385 153 348Q142 311 142 255Q142 148 177.5 104.5Q213 61 285 61Q324 61 357.5 80.5Q391 100 420 136ZM432 60Q396 22 353.5 6.5Q311 -9 269 -9Q160 -9 107.5 54Q55 117 55 255Q55 391 114.5 455Q174 519 292 519Q306 519 323.5 517.5Q341 516 358.5 512.5Q376 509 392 503.5Q408 498 420 490V678H502V0H443L433 60Z" glyph-name="ddotbelow" horiz-adv-x="587" unicode="&#7693;" /><glyph d="M319 -181H230V-96H319ZM525 271Q525 195 507 141.5Q489 88 455 54Q426 25 385.5 12.5Q345 0 288 0H83V541H288Q346 541 385.5 529.5Q425 518 455 488Q491 452 508 400.5Q525 349 525 271ZM439 271Q439 337 427 377.5Q415 418 389 444Q369 464 344 470.5Q319 477 284 477H165V66H284Q318 66 344.5 72.5Q371 79 389 97Q415 123 427 164Q439 205 439 271Z" glyph-name="ddotbelow.small" horiz-adv-x="578" unicode="&#59208;" /><glyph d="M217 366Q179 366 147 376Q115 386 91.5 406Q68 426 54.5 456.5Q41 487 41 528Q41 569 54.5 599.5Q68 630 91.5 650Q115 670 147 680Q179 690 217 690Q254 690 286.5 680Q319 670 342.5 650Q366 630 379.5 599.5Q393 569 393 528Q393 487 379.5 456.5Q366 426 342.5 406Q319 386 286.5 376Q254 366 217 366ZM217 431Q262 431 288 454Q314 477 314 528Q314 579 288 603Q262 627 217 627Q172 627 146 603Q120 579 120 528Q120 477 146 454Q172 431 217 431Z" glyph-name="degree" horiz-adv-x="434" unicode="&#176;" /><glyph d="M455 587H366V673H455ZM265 587H176V673H265Z" glyph-name="dieresis" horiz-adv-x="600" unicode="&#168;" /><glyph d="M455 755H366V841H455ZM265 755H176V841H265Z" glyph-name="dieresis.cap" horiz-adv-x="600" unicode="&#58409;" /><glyph d="M455 619H366V705H455ZM265 619H176V705H265Z" glyph-name="dieresis.small" horiz-adv-x="600" unicode="&#63400;" /><glyph d="M421 737H90V805H421ZM395 587H306V673H395ZM205 587H116V673H205Z" glyph-name="dieresismacron" horiz-adv-x="0" unicode="&#59209;" /><glyph d="M481 905H150V973H481ZM455 755H366V841H455ZM265 755H176V841H265Z" glyph-name="dieresismacron.cap" horiz-adv-x="0" unicode="&#59216;" /><glyph d="M340 51H244V144H340ZM526 236H56V307H526ZM340 402H244V495H340Z" glyph-name="divide" horiz-adv-x="582" unicode="&#247;" /><glyph d="M356 123H260V216H356ZM557 310H56V381H557ZM356 474H260V567H356Z" glyph-name="divide.cap" horiz-adv-x="613" unicode="&#58772;" /><glyph d="M334 564Q352 562 370 558Q388 554 405 548V478Q366 492 328.5 495Q291 498 265 498Q141 498 141 402Q141 377 150.5 362.5Q160 348 176.5 340.5Q193 333 214 330.5Q235 328 258 327Q285 325 318 321Q351 317 379 301.5Q407 286 426 255.5Q445 225 445 171Q445 121 427 86.5Q409 52 378.5 30Q348 8 307 -1.5Q266 -11 221 -11H216L190 -118H112L140 -4Q119 -1 98 3Q77 7 61 13V87Q81 80 104 75.5Q127 71 149 68Q171 65 190.5 64Q210 63 223 63Q263 63 289.5 69.5Q316 76 332 89Q348 102 354 121Q360 140 360 165Q360 192 350.5 207.5Q341 223 324.5 231Q308 239 287 241.5Q266 244 243 245Q217 246 185 250.5Q153 255 124 270.5Q95 286 75.5 316.5Q56 347 56 400Q56 448 73.5 480Q91 512 119.5 531.5Q148 551 184 559Q220 567 258 568L286 678H363Z" glyph-name="dollar" horiz-adv-x="496" unicode="$" /><glyph d="M277 -118H199L233 20Q207 23 179 28.5Q151 34 131 44V123Q153 114 178.5 108.5Q204 103 228 100Q252 97 273.5 96Q295 95 310 95Q394 95 429 124Q464 153 464 200Q464 231 455 250.5Q446 270 429 281.5Q412 293 386 297.5Q360 302 327 304Q288 306 251.5 313.5Q215 321 187 340.5Q159 360 142 394.5Q125 429 125 484Q125 532 143.5 565Q162 598 193 619.5Q224 641 265.5 651Q307 661 352 662L385 795H462L428 658Q448 656 470 651.5Q492 647 511 639V564Q469 580 429.5 583.5Q390 587 362 587Q294 587 257.5 560.5Q221 534 221 485Q221 453 232 435.5Q243 418 261.5 409Q280 400 305 397Q330 394 359 392Q392 389 428 382Q464 375 493 355.5Q522 336 541 301Q560 266 560 207Q560 154 539 117.5Q518 81 483.5 58.5Q449 36 404 26Q359 16 310 16Z" glyph-name="dollar.LP" horiz-adv-x="660" unicode="&#58658;" /><glyph d="M339 587H247V676H339ZM459 742H128V810H459Z" glyph-name="dotabovemacron" horiz-adv-x="0" unicode="&#59218;" /><glyph d="M406 755H314V844H406ZM524 923H193V991H524Z" glyph-name="dotabovemacron.cap" horiz-adv-x="0" unicode="&#59219;" /><glyph d="M346 619H254V708H346ZM466 767H135V835H466Z" glyph-name="dotabovemacron.small" horiz-adv-x="0" unicode="&#59220;" /><glyph d="M346 587H254V676H346Z" glyph-name="dotaccent" horiz-adv-x="600" unicode="&#729;" /><glyph d="M346 755H254V844H346Z" glyph-name="dotaccent.cap" horiz-adv-x="600" unicode="&#58408;" /><glyph d="M346 619H254V708H346Z" glyph-name="dotaccent.small" horiz-adv-x="600" unicode="&#63223;" /><glyph d="M181 0H90V678H181Z" glyph-name="dotlessI" horiz-adv-x="271" unicode="&#59221;" /><glyph d="M14 -118Q56 -52 75 16.5Q94 85 94 172V678H185V193Q185 143 181 101Q177 59 167 21.5Q157 -16 141.5 -50Q126 -84 102 -118Z" glyph-name="dotlessJ" horiz-adv-x="275" unicode="&#59223;" /><glyph d="M167 0H85V510H167Z" glyph-name="dotlessi" horiz-adv-x="252" unicode="&#305;" /><glyph d="M164 0H83V541H164Z" glyph-name="dotlessi.small" horiz-adv-x="247" unicode="&#59222;" /><glyph d="M33 -168Q61 -126 77 -72Q93 -18 93 41V510H175V103Q175 59 173 22Q171 -15 164.5 -47.5Q158 -80 146 -109.5Q134 -139 114 -168Z" glyph-name="dotlessj" horiz-adv-x="257" unicode="&#567;" /><glyph d="M15 -91Q51 -37 69 18.5Q87 74 87 141V541H169V157Q169 118 165.5 84.5Q162 51 153.5 21Q145 -9 131 -36.5Q117 -64 96 -91Z" glyph-name="dotlessj.small" horiz-adv-x="252" unicode="&#59224;" /><glyph d="M351 -85H298V763H351ZM271 -85H218V763H271Z" glyph-name="doublebar" horiz-adv-x="569" unicode="&#8214;" /><glyph d="M75 678H171L279 566H215ZM215 678H311L419 566H355Z" glyph-name="doublegrave" horiz-adv-x="600" unicode="&#58386;" /><glyph d="M75 846H171L279 734H215ZM215 846H311L419 734H355Z" glyph-name="doublegrave.cap" horiz-adv-x="600" unicode="&#58412;" /><glyph d="M75 710H171L279 598H215ZM215 710H311L419 598H355Z" glyph-name="doublegrave.small" horiz-adv-x="600" unicode="&#59225;" /><glyph d="M281 452Q255 452 230.5 445.5Q206 439 187 420Q154 387 146 305H402Q403 315 403 319.5Q403 324 403 326Q403 358 396.5 383Q390 408 374 424Q359 439 335 445.5Q311 452 281 452ZM144 238Q146 190 155 154Q164 118 187 95Q224 58 311 58Q343 58 383 62.5Q423 67 462 82V12Q444 5 422 0.5Q400 -4 378 -7Q356 -10 335 -11Q314 -12 297 -12Q169 -12 112 52.5Q55 117 55 255Q55 330 72 381Q89 432 119 463.5Q149 495 190.5 508.5Q232 522 282 522Q389 522 436.5 467.5Q484 413 484 308Q484 299 482.5 277Q481 255 479 238Z" glyph-name="e" horiz-adv-x="536" unicode="e" /><glyph d="M436 0H83V541H430V477H164V309H395V243H164V66H436Z" glyph-name="e.small" horiz-adv-x="478" unicode="&#63333;" /><glyph d="M180 558Q166 558 151 554Q136 550 125 539Q115 529 111 514.5Q107 500 105 477H248V490Q248 526 232 542Q216 558 180 558ZM104 426Q105 397 109.5 379.5Q114 362 128 348Q149 327 199 327Q217 327 243 330Q269 333 300 344V287Q274 278 243 274.5Q212 271 190 271Q106 271 69.5 311.5Q33 352 33 440Q33 488 44 521Q55 554 74.5 574Q94 594 121 603Q148 612 181 612Q252 612 283 576.5Q314 541 314 474Q314 469 313 454.5Q312 440 310 426Z" glyph-name="e.superior" horiz-adv-x="348" unicode="&#58213;" /><glyph d="M320 566H243L351 678H460ZM281 452Q255 452 230.5 445.5Q206 439 187 420Q154 387 146 305H402Q403 315 403 319.5Q403 324 403 326Q403 358 396.5 383Q390 408 374 424Q359 439 335 445.5Q311 452 281 452ZM144 238Q146 190 155 154Q164 118 187 95Q224 58 311 58Q343 58 383 62.5Q423 67 462 82V12Q444 5 422 0.5Q400 -4 378 -7Q356 -10 335 -11Q314 -12 297 -12Q169 -12 112 52.5Q55 117 55 255Q55 330 72 381Q89 432 119 463.5Q149 495 190.5 508.5Q232 522 282 522Q389 522 436.5 467.5Q484 413 484 308Q484 299 482.5 277Q481 255 479 238Z" glyph-name="eacute" horiz-adv-x="536" unicode="&#233;" /><glyph d="M288 598H211L319 710H428ZM436 0H83V541H430V477H164V309H395V243H164V66H436Z" glyph-name="eacute.small" horiz-adv-x="478" unicode="&#63465;" /><glyph d="M320 566H243L351 678H460ZM281 452Q255 452 230.5 445.5Q206 439 187 420Q154 387 146 305H402Q403 315 403 319.5Q403 324 403 326Q403 358 396.5 383Q390 408 374 424Q359 439 335 445.5Q311 452 281 452ZM144 238Q146 190 155 154Q164 118 187 95Q224 58 311 58Q343 58 383 62.5Q423 67 462 82V12Q444 5 422 0.5Q400 -4 378 -7Q356 -10 335 -11Q314 -12 297 -12Q169 -12 112 52.5Q55 117 55 255Q55 330 72 381Q89 432 119 463.5Q149 495 190.5 508.5Q232 522 282 522Q389 522 436.5 467.5Q484 413 484 308Q484 299 482.5 277Q481 255 479 238ZM337 -181H248V-96H337Z" glyph-name="eacutedotbelow" horiz-adv-x="536" unicode="&#59232;" /><glyph d="M288 598H211L319 710H428ZM304 -181H215V-96H304ZM436 0H83V541H430V477H164V309H395V243H164V66H436Z" glyph-name="eacutedotbelow.small" horiz-adv-x="478" unicode="&#59234;" /><glyph d="M281 452Q255 452 230.5 445.5Q206 439 187 420Q154 387 146 305H402Q403 315 403 319.5Q403 324 403 326Q403 358 396.5 383Q390 408 374 424Q359 439 335 445.5Q311 452 281 452ZM144 238Q146 190 155 154Q164 118 187 95Q224 58 311 58Q343 58 383 62.5Q423 67 462 82V12Q444 5 422 0.5Q400 -4 378 -7Q356 -10 335 -11Q314 -12 297 -12Q169 -12 112 52.5Q55 117 55 255Q55 330 72 381Q89 432 119 463.5Q149 495 190.5 508.5Q232 522 282 522Q389 522 436.5 467.5Q484 413 484 308Q484 299 482.5 277Q481 255 479 238ZM289 618Q304 618 320 620.5Q336 623 349.5 630Q363 637 373 648.5Q383 660 386 678H457Q447 615 402 587.5Q357 560 289 560Q221 560 176 587.5Q131 615 121 678H192Q195 660 205 648.5Q215 637 228.5 630Q242 623 258 620.5Q274 618 289 618Z" glyph-name="ebreve" horiz-adv-x="536" unicode="&#277;" /><glyph d="M258 650Q273 650 289 652.5Q305 655 318.5 662Q332 669 342 680.5Q352 692 355 710H426Q416 647 371 619.5Q326 592 258 592Q190 592 145 619.5Q100 647 90 710H161Q164 692 174 680.5Q184 669 197.5 662Q211 655 227 652.5Q243 650 258 650ZM436 0H83V541H430V477H164V309H395V243H164V66H436Z" glyph-name="ebreve.small" horiz-adv-x="478" unicode="&#63018;" /><glyph d="M139 678H220L288 608L356 678H437L327 562H248ZM281 452Q255 452 230.5 445.5Q206 439 187 420Q154 387 146 305H402Q403 315 403 319.5Q403 324 403 326Q403 358 396.5 383Q390 408 374 424Q359 439 335 445.5Q311 452 281 452ZM144 238Q146 190 155 154Q164 118 187 95Q224 58 311 58Q343 58 383 62.5Q423 67 462 82V12Q444 5 422 0.5Q400 -4 378 -7Q356 -10 335 -11Q314 -12 297 -12Q169 -12 112 52.5Q55 117 55 255Q55 330 72 381Q89 432 119 463.5Q149 495 190.5 508.5Q232 522 282 522Q389 522 436.5 467.5Q484 413 484 308Q484 299 482.5 277Q481 255 479 238Z" glyph-name="ecaron" horiz-adv-x="536" unicode="&#283;" /><glyph d="M109 710H190L258 640L326 710H407L297 594H218ZM436 0H83V541H430V477H164V309H395V243H164V66H436Z" glyph-name="ecaron.small" horiz-adv-x="478" unicode="&#63047;" /><glyph d="M429 566H348L280 636L212 566H131L241 682H320ZM281 452Q255 452 230.5 445.5Q206 439 187 420Q154 387 146 305H402Q403 315 403 319.5Q403 324 403 326Q403 358 396.5 383Q390 408 374 424Q359 439 335 445.5Q311 452 281 452ZM144 238Q146 190 155 154Q164 118 187 95Q224 58 311 58Q343 58 383 62.5Q423 67 462 82V12Q444 5 422 0.5Q400 -4 378 -7Q356 -10 335 -11Q314 -12 297 -12Q169 -12 112 52.5Q55 117 55 255Q55 330 72 381Q89 432 119 463.5Q149 495 190.5 508.5Q232 522 282 522Q389 522 436.5 467.5Q484 413 484 308Q484 299 482.5 277Q481 255 479 238Z" glyph-name="ecircumflex" horiz-adv-x="536" unicode="&#234;" /><glyph d="M407 595H326L258 665L190 595H109L219 711H298ZM436 0H83V541H430V477H164V309H395V243H164V66H436Z" glyph-name="ecircumflex.small" horiz-adv-x="478" unicode="&#63466;" /><glyph d="M420 587H331V673H420ZM230 587H141V673H230ZM281 452Q255 452 230.5 445.5Q206 439 187 420Q154 387 146 305H402Q403 315 403 319.5Q403 324 403 326Q403 358 396.5 383Q390 408 374 424Q359 439 335 445.5Q311 452 281 452ZM144 238Q146 190 155 154Q164 118 187 95Q224 58 311 58Q343 58 383 62.5Q423 67 462 82V12Q444 5 422 0.5Q400 -4 378 -7Q356 -10 335 -11Q314 -12 297 -12Q169 -12 112 52.5Q55 117 55 255Q55 330 72 381Q89 432 119 463.5Q149 495 190.5 508.5Q232 522 282 522Q389 522 436.5 467.5Q484 413 484 308Q484 299 482.5 277Q481 255 479 238Z" glyph-name="edieresis" horiz-adv-x="536" unicode="&#235;" /><glyph d="M398 619H309V705H398ZM208 619H119V705H208ZM436 0H83V541H430V477H164V309H395V243H164V66H436Z" glyph-name="edieresis.small" horiz-adv-x="478" unicode="&#63467;" /><glyph d="M332 587H240V676H332ZM281 452Q255 452 230.5 445.5Q206 439 187 420Q154 387 146 305H402Q403 315 403 319.5Q403 324 403 326Q403 358 396.5 383Q390 408 374 424Q359 439 335 445.5Q311 452 281 452ZM144 238Q146 190 155 154Q164 118 187 95Q224 58 311 58Q343 58 383 62.5Q423 67 462 82V12Q444 5 422 0.5Q400 -4 378 -7Q356 -10 335 -11Q314 -12 297 -12Q169 -12 112 52.5Q55 117 55 255Q55 330 72 381Q89 432 119 463.5Q149 495 190.5 508.5Q232 522 282 522Q389 522 436.5 467.5Q484 413 484 308Q484 299 482.5 277Q481 255 479 238Z" glyph-name="edotaccent" horiz-adv-x="536" unicode="&#279;" /><glyph d="M304 619H212V708H304ZM436 0H83V541H430V477H164V309H395V243H164V66H436Z" glyph-name="edotaccent.small" horiz-adv-x="478" unicode="&#63048;" /><glyph d="M51 678H147L255 566H191ZM191 678H287L395 566H331ZM281 452Q255 452 230.5 445.5Q206 439 187 420Q154 387 146 305H402Q403 315 403 319.5Q403 324 403 326Q403 358 396.5 383Q390 408 374 424Q359 439 335 445.5Q311 452 281 452ZM144 238Q146 190 155 154Q164 118 187 95Q224 58 311 58Q343 58 383 62.5Q423 67 462 82V12Q444 5 422 0.5Q400 -4 378 -7Q356 -10 335 -11Q314 -12 297 -12Q169 -12 112 52.5Q55 117 55 255Q55 330 72 381Q89 432 119 463.5Q149 495 190.5 508.5Q232 522 282 522Q389 522 436.5 467.5Q484 413 484 308Q484 299 482.5 277Q481 255 479 238Z" glyph-name="edoublegrave" horiz-adv-x="536" unicode="&#513;" /><glyph d="M25 710H121L229 598H165ZM165 710H261L369 598H305ZM436 0H83V541H430V477H164V309H395V243H164V66H436Z" glyph-name="edoublegrave.small" horiz-adv-x="478" unicode="&#59235;" /><glyph d="M109 678H218L326 566H249ZM281 452Q255 452 230.5 445.5Q206 439 187 420Q154 387 146 305H402Q403 315 403 319.5Q403 324 403 326Q403 358 396.5 383Q390 408 374 424Q359 439 335 445.5Q311 452 281 452ZM144 238Q146 190 155 154Q164 118 187 95Q224 58 311 58Q343 58 383 62.5Q423 67 462 82V12Q444 5 422 0.5Q400 -4 378 -7Q356 -10 335 -11Q314 -12 297 -12Q169 -12 112 52.5Q55 117 55 255Q55 330 72 381Q89 432 119 463.5Q149 495 190.5 508.5Q232 522 282 522Q389 522 436.5 467.5Q484 413 484 308Q484 299 482.5 277Q481 255 479 238Z" glyph-name="egrave" horiz-adv-x="536" unicode="&#232;" /><glyph d="M79 710H188L296 598H219ZM436 0H83V541H430V477H164V309H395V243H164V66H436Z" glyph-name="egrave.small" horiz-adv-x="478" unicode="&#63464;" /><glyph d="M337 -181H248V-96H337ZM109 678H218L326 566H249ZM281 452Q255 452 230.5 445.5Q206 439 187 420Q154 387 146 305H402Q403 315 403 319.5Q403 324 403 326Q403 358 396.5 383Q390 408 374 424Q359 439 335 445.5Q311 452 281 452ZM144 238Q146 190 155 154Q164 118 187 95Q224 58 311 58Q343 58 383 62.5Q423 67 462 82V12Q444 5 422 0.5Q400 -4 378 -7Q356 -10 335 -11Q314 -12 297 -12Q169 -12 112 52.5Q55 117 55 255Q55 330 72 381Q89 432 119 463.5Q149 495 190.5 508.5Q232 522 282 522Q389 522 436.5 467.5Q484 413 484 308Q484 299 482.5 277Q481 255 479 238Z" glyph-name="egravedotbelow" horiz-adv-x="536" unicode="&#59236;" /><glyph d="M79 710H188L296 598H219ZM304 -181H215V-96H304ZM436 0H83V541H430V477H164V309H395V243H164V66H436Z" glyph-name="egravedotbelow.small" horiz-adv-x="478" unicode="&#59238;" /><glyph d="M319 384Q357 384 383.5 393Q410 402 433 425Q462 454 462 504Q462 529 456 550.5Q450 572 434 588Q418 604 390 612.5Q362 621 319 621Q275 621 247.5 612.5Q220 604 204 588Q188 572 182 550.5Q176 529 176 504Q176 454 205 425Q228 402 254.5 393Q281 384 319 384ZM319 56Q344 56 372 61.5Q400 67 422.5 80.5Q445 94 460 118Q475 142 475 180Q475 212 466.5 234Q458 256 444 270Q424 290 394.5 301Q365 312 319 312Q273 312 243.5 301Q214 290 194 270Q180 256 171.5 234Q163 212 163 180Q163 142 178 118Q193 94 215.5 80.5Q238 67 265.5 61.5Q293 56 319 56ZM318 690Q370 690 412.5 678.5Q455 667 485.5 645Q516 623 532.5 590Q549 557 549 514Q549 480 540.5 453Q532 426 518 406Q504 386 486.5 371.5Q469 357 452 348V346Q503 326 532.5 283Q562 240 562 179Q562 128 542.5 92Q523 56 490 32.5Q457 9 412.5 -1.5Q368 -12 318 -12Q268 -12 224 -1.5Q180 9 147 32.5Q114 56 95 92Q76 128 76 179Q76 240 105.5 283Q135 326 186 346V348Q169 357 151.5 371.5Q134 386 120 406Q106 426 97.5 453Q89 480 89 514Q89 557 105.5 590Q122 623 152 645Q182 667 224.5 678.5Q267 690 318 690Z" glyph-name="eight" horiz-adv-x="638" unicode="8" /><glyph d="M317 384Q355 384 381.5 393Q408 402 431 425Q460 454 460 504Q460 529 454 550.5Q448 572 432 588Q416 604 388 612.5Q360 621 317 621Q273 621 245.5 612.5Q218 604 202 588Q186 572 180 550.5Q174 529 174 504Q174 454 203 425Q226 402 252.5 393Q279 384 317 384ZM317 56Q342 56 370 61.5Q398 67 420.5 80.5Q443 94 458 118Q473 142 473 180Q473 212 464.5 234Q456 256 442 270Q422 290 392.5 301Q363 312 317 312Q271 312 241.5 301Q212 290 192 270Q178 256 169.5 234Q161 212 161 180Q161 142 176 118Q191 94 213.5 80.5Q236 67 263.5 61.5Q291 56 317 56ZM316 690Q368 690 410.5 678.5Q453 667 483.5 645Q514 623 530.5 590Q547 557 547 514Q547 480 538.5 453Q530 426 516 406Q502 386 484.5 371.5Q467 357 450 348V346Q501 326 530.5 283Q560 240 560 179Q560 128 540.5 92Q521 56 488 32.5Q455 9 410.5 -1.5Q366 -12 316 -12Q266 -12 222 -1.5Q178 9 145 32.5Q112 56 93 92Q74 128 74 179Q74 240 103.5 283Q133 326 184 346V348Q167 357 149.5 371.5Q132 386 118 406Q104 426 95.5 453Q87 480 87 514Q87 557 103.5 590Q120 623 150 645Q180 667 222.5 678.5Q265 690 316 690Z" glyph-name="eight.LP" horiz-adv-x="634" unicode="&#58685;" /><glyph d="M330 384Q368 384 394.5 393Q421 402 444 425Q473 454 473 504Q473 529 467 550.5Q461 572 445 588Q429 604 401 612.5Q373 621 330 621Q286 621 258.5 612.5Q231 604 215 588Q199 572 193 550.5Q187 529 187 504Q187 454 216 425Q239 402 265.5 393Q292 384 330 384ZM330 56Q355 56 383 61.5Q411 67 433.5 80.5Q456 94 471 118Q486 142 486 180Q486 212 477.5 234Q469 256 455 270Q435 290 405.5 301Q376 312 330 312Q284 312 254.5 301Q225 290 205 270Q191 256 182.5 234Q174 212 174 180Q174 142 189 118Q204 94 226.5 80.5Q249 67 276.5 61.5Q304 56 330 56ZM329 690Q381 690 423.5 678.5Q466 667 496.5 645Q527 623 543.5 590Q560 557 560 514Q560 480 551.5 453Q543 426 529 406Q515 386 497.5 371.5Q480 357 463 348V346Q514 326 543.5 283Q573 240 573 179Q573 128 553.5 92Q534 56 501 32.5Q468 9 423.5 -1.5Q379 -12 329 -12Q279 -12 235 -1.5Q191 9 158 32.5Q125 56 106 92Q87 128 87 179Q87 240 116.5 283Q146 326 197 346V348Q180 357 162.5 371.5Q145 386 131 406Q117 426 108.5 453Q100 480 100 514Q100 557 116.5 590Q133 623 163 645Q193 667 235.5 678.5Q278 690 329 690Z" glyph-name="eight.LT" horiz-adv-x="660" unicode="&#58696;" /><glyph d="M330 384Q368 384 394.5 393Q421 402 444 425Q473 454 473 504Q473 529 467 550.5Q461 572 445 588Q429 604 401 612.5Q373 621 330 621Q286 621 258.5 612.5Q231 604 215 588Q199 572 193 550.5Q187 529 187 504Q187 454 216 425Q239 402 265.5 393Q292 384 330 384ZM330 56Q355 56 383 61.5Q411 67 433.5 80.5Q456 94 471 118Q486 142 486 180Q486 212 477.5 234Q469 256 455 270Q435 290 405.5 301Q376 312 330 312Q284 312 254.5 301Q225 290 205 270Q191 256 182.5 234Q174 212 174 180Q174 142 189 118Q204 94 226.5 80.5Q249 67 276.5 61.5Q304 56 330 56ZM329 690Q381 690 423.5 678.5Q466 667 496.5 645Q527 623 543.5 590Q560 557 560 514Q560 480 551.5 453Q543 426 529 406Q515 386 497.5 371.5Q480 357 463 348V346Q514 326 543.5 283Q573 240 573 179Q573 128 553.5 92Q534 56 501 32.5Q468 9 423.5 -1.5Q379 -12 329 -12Q279 -12 235 -1.5Q191 9 158 32.5Q125 56 106 92Q87 128 87 179Q87 240 116.5 283Q146 326 197 346V348Q180 357 162.5 371.5Q145 386 131 406Q117 426 108.5 453Q100 480 100 514Q100 557 116.5 590Q133 623 163 645Q193 667 235.5 678.5Q278 690 329 690Z" glyph-name="eight.OT" horiz-adv-x="660" unicode="&#58718;" /><glyph d="M174 43Q190 43 200.5 46Q211 49 222 60Q233 71 233 94Q233 116 221.5 130Q210 144 174 144Q138 144 126.5 130Q115 116 115 94Q115 81 118 73Q121 65 126 60Q137 49 147.5 46Q158 43 174 43ZM174 -12Q154 -12 142 -16.5Q130 -21 120 -31Q115 -36 111.5 -45Q108 -54 108 -69Q108 -85 114 -95.5Q120 -106 130 -112Q140 -118 151.5 -120.5Q163 -123 174 -123Q185 -123 196.5 -120.5Q208 -118 218 -112Q228 -106 234 -95.5Q240 -85 240 -69Q240 -54 236.5 -45Q233 -36 228 -31Q218 -21 206 -16.5Q194 -12 174 -12ZM174 -174Q146 -174 121.5 -168Q97 -162 78.5 -149.5Q60 -137 49 -117Q38 -97 38 -69Q38 -42 51.5 -20.5Q65 1 87 15V16Q71 28 58 48.5Q45 69 45 99Q45 147 80.5 171.5Q116 196 173 196Q232 196 267.5 171.5Q303 147 303 99Q303 69 290 48.5Q277 28 261 16V15Q283 1 296.5 -20.5Q310 -42 310 -69Q310 -97 299.5 -117Q289 -137 270.5 -149.5Q252 -162 227 -168Q202 -174 174 -174Z" glyph-name="eight.inf" horiz-adv-x="348" unicode="&#58745;" /><glyph d="M279 626Q264 626 248 623.5Q232 621 218.5 614Q205 607 195 595.5Q185 584 182 566H111Q121 629 166 656.5Q211 684 279 684Q347 684 392 656.5Q437 629 447 566H376Q373 584 363 595.5Q353 607 339.5 614Q326 621 310 623.5Q294 626 279 626ZM281 452Q255 452 230.5 445.5Q206 439 187 420Q154 387 146 305H402Q403 315 403 319.5Q403 324 403 326Q403 358 396.5 383Q390 408 374 424Q359 439 335 445.5Q311 452 281 452ZM144 238Q146 190 155 154Q164 118 187 95Q224 58 311 58Q343 58 383 62.5Q423 67 462 82V12Q444 5 422 0.5Q400 -4 378 -7Q356 -10 335 -11Q314 -12 297 -12Q169 -12 112 52.5Q55 117 55 255Q55 330 72 381Q89 432 119 463.5Q149 495 190.5 508.5Q232 522 282 522Q389 522 436.5 467.5Q484 413 484 308Q484 299 482.5 277Q481 255 479 238Z" glyph-name="einvertedbreve" horiz-adv-x="536" unicode="&#519;" /><glyph d="M258 658Q243 658 227 655.5Q211 653 197.5 646Q184 639 174 627.5Q164 616 161 598H90Q100 661 145 688.5Q190 716 258 716Q326 716 371 688.5Q416 661 426 598H355Q352 616 342 627.5Q332 639 318.5 646Q305 653 289 655.5Q273 658 258 658ZM436 0H83V541H430V477H164V309H395V243H164V66H436Z" glyph-name="einvertedbreve.small" horiz-adv-x="478" unicode="&#59239;" /><glyph d="M995 0H889V107H995ZM572 0H466V107H572ZM148 0H42V107H148Z" glyph-name="ellipsis" horiz-adv-x="1037" unicode="&#8230;" /><glyph d="M453 599H122V667H453ZM281 452Q255 452 230.5 445.5Q206 439 187 420Q154 387 146 305H402Q403 315 403 319.5Q403 324 403 326Q403 358 396.5 383Q390 408 374 424Q359 439 335 445.5Q311 452 281 452ZM144 238Q146 190 155 154Q164 118 187 95Q224 58 311 58Q343 58 383 62.5Q423 67 462 82V12Q444 5 422 0.5Q400 -4 378 -7Q356 -10 335 -11Q314 -12 297 -12Q169 -12 112 52.5Q55 117 55 255Q55 330 72 381Q89 432 119 463.5Q149 495 190.5 508.5Q232 522 282 522Q389 522 436.5 467.5Q484 413 484 308Q484 299 482.5 277Q481 255 479 238Z" glyph-name="emacron" horiz-adv-x="536" unicode="&#275;" /><glyph d="M424 631H93V699H424ZM436 0H83V541H430V477H164V309H395V243H164V66H436Z" glyph-name="emacron.small" horiz-adv-x="478" unicode="&#63049;" /><glyph d="M1089 236H56V307H1089Z" glyph-name="emdash" horiz-adv-x="1145" unicode="&#8212;" /><glyph d="M1089 310H56V381H1089Z" glyph-name="emdash.cap" horiz-adv-x="1145" unicode="&#58502;" /><glyph glyph-name="emspace" horiz-adv-x="1000" unicode="&#8195;" /><glyph d="M552 236H56V307H552Z" glyph-name="endash" horiz-adv-x="608" unicode="&#8211;" /><glyph d="M552 310H56V381H552Z" glyph-name="endash.cap" horiz-adv-x="608" unicode="&#58500;" /><glyph d="M157 438Q201 483 250.5 501Q300 519 351 519Q398 519 429 509Q460 499 479 479.5Q498 460 505.5 430Q513 400 513 360V56Q513 3 501.5 -53.5Q490 -110 450 -168H370Q396 -129 413.5 -76Q431 -23 431 42V343Q431 400 410 423.5Q389 447 331 447Q284 447 241.5 425.5Q199 404 167 363V0H85V510H144L156 438Z" glyph-name="eng" horiz-adv-x="589" unicode="&#331;" /><glyph d="M380 232Q397 206 416 178Q435 150 452 123H454Q453 154 452.5 189.5Q452 225 451.5 261Q451 297 451 331Q451 365 451 393V541H530V80Q530 41 526.5 7.5Q523 -26 514.5 -56Q506 -86 492 -113.5Q478 -141 457 -168H374Q402 -127 419 -86Q436 -45 443 0L233 309Q216 335 197 363Q178 391 161 418H159Q160 387 160.5 351.5Q161 316 161.5 280Q162 244 162 210Q162 176 162 148V0H83V541H169Z" glyph-name="eng.small" horiz-adv-x="613" unicode="&#63019;" /><glyph glyph-name="enspace" horiz-adv-x="500" unicode="&#8194;" /><glyph d="M281 452Q255 452 230.5 445.5Q206 439 187 420Q154 387 146 305H402Q403 315 403 319.5Q403 324 403 326Q403 358 396.5 383Q390 408 374 424Q359 439 335 445.5Q311 452 281 452ZM144 238Q146 190 155 154Q164 118 187 95Q224 58 311 58Q343 58 383 62.5Q423 67 462 82V12Q427 -7 410 -33.5Q393 -60 393 -80Q393 -96 403 -107Q413 -118 437 -118Q451 -118 467 -116Q483 -114 500 -109V-164Q485 -170 463.5 -172Q442 -174 425 -174Q367 -174 342.5 -151Q318 -128 318 -93Q318 -73 329.5 -50.5Q341 -28 363 -8Q345 -10 328 -11Q311 -12 297 -12Q169 -12 112 52.5Q55 117 55 255Q55 330 72 381Q89 432 119 463.5Q149 495 190.5 508.5Q232 522 282 522Q389 522 436.5 467.5Q484 413 484 308Q484 299 482.5 277Q481 255 479 238Z" glyph-name="eogonek" horiz-adv-x="536" unicode="&#281;" /><glyph d="M83 0V541H430V477H164V309H395V243H164V66H436V0Q411 -14 396 -37Q381 -60 381 -80Q381 -96 391 -107Q401 -118 425 -118Q439 -118 455 -116Q471 -114 488 -109V-164Q473 -170 451.5 -172Q430 -174 413 -174Q355 -174 330.5 -151Q306 -128 306 -93Q306 -65 324 -39.5Q342 -14 364 0Z" glyph-name="eogonek.small" horiz-adv-x="478" unicode="&#63050;" /><glyph d="M552 138H56V209H552ZM552 340H56V411H552Z" glyph-name="equal" horiz-adv-x="608" unicode="=" /><glyph d="M612 209H56V280H612ZM612 411H56V482H612Z" glyph-name="equal.cap" horiz-adv-x="668" unicode="&#58773;" /><glyph d="M352 -62H45V-9H352ZM352 40H45V93H352Z" glyph-name="equal.inf" horiz-adv-x="397" unicode="&#58749;" /><glyph d="M459 632Q396 632 354 611Q312 590 286 553.5Q260 517 248 468.5Q236 420 234 366H680Q678 420 667 468.5Q656 517 630.5 553.5Q605 590 563 611Q521 632 459 632ZM786 229Q776 166 749 120.5Q722 75 679.5 45.5Q637 16 581.5 2Q526 -12 459 -12Q383 -12 319.5 12.5Q256 37 210.5 83Q165 129 140 193.5Q115 258 115 338Q115 418 140 483Q165 548 210.5 594Q256 640 319.5 665Q383 690 459 690Q534 690 596.5 665Q659 640 704 594Q749 548 774 483Q799 418 799 338V309H234Q236 255 248 207Q260 159 286 123Q312 87 354 66Q396 45 459 45Q572 45 637.5 88.5Q703 132 719 229Z" glyph-name="estimated" horiz-adv-x="914" unicode="&#8494;" /><glyph d="M444 255Q444 315 433.5 354Q423 393 401 415Q381 435 354 443.5Q327 452 292 452Q257 452 230 443.5Q203 435 183 415Q161 393 150.5 354Q140 315 140 255Q140 195 150.5 156Q161 117 183 95Q203 75 230 66.5Q257 58 292 58Q327 58 354 66.5Q381 75 401 95Q423 117 433.5 156Q444 195 444 255ZM400 490Q402 491 402 491Q388 527 366.5 553.5Q345 580 319 598L174 532L153 580L268 631Q254 639 237.5 647Q221 655 201 661L258 701Q278 695 297 687Q316 679 339 665L449 714L471 666L388 629Q457 569 494 477.5Q531 386 531 253Q531 172 511 120.5Q491 69 457.5 39.5Q424 10 380 -1Q336 -12 287 -12Q242 -12 200 -1Q158 10 126 40Q94 70 74.5 123Q55 176 55 260Q55 342 76 393.5Q97 445 129.5 473.5Q162 502 202 512Q242 522 280 522Q291 522 306.5 520.5Q322 519 338.5 515.5Q355 512 371 506Q387 500 400 490Z" glyph-name="eth" horiz-adv-x="586" unicode="&#240;" /><glyph d="M451 271Q451 337 439 377.5Q427 418 401 444Q381 464 356 470.5Q331 477 296 477H177V309H347V243H177V66H296Q330 66 356.5 72.5Q383 79 401 97Q427 123 439 164Q451 205 451 271ZM537 271Q537 195 519 141.5Q501 88 467 54Q438 25 397.5 12.5Q357 0 300 0H95V243H14V309H95V541H300Q358 541 397.5 529.5Q437 518 467 488Q503 452 520 400.5Q537 349 537 271Z" glyph-name="eth.small" horiz-adv-x="590" unicode="&#59240;" /><glyph d="M170 216H102L89 678H183ZM189 0H83V107H189Z" glyph-name="exclam" horiz-adv-x="272" unicode="!" /><glyph d="M183 -168H89L102 294H170ZM189 403H83V510H189Z" glyph-name="exclamdown" horiz-adv-x="272" unicode="&#161;" /><glyph d="M183 0H89L102 462H170ZM189 571H83V678H189Z" glyph-name="exclamdown.cap" horiz-adv-x="272" unicode="&#58433;" /><glyph d="M201 0H119V443H30V501L119 508V535Q119 580 128 609.5Q137 639 156.5 656Q176 673 206.5 680Q237 687 280 687Q299 687 329.5 685Q360 683 389 676V608Q365 614 337.5 616Q310 618 292 618Q260 618 242 613.5Q224 609 215 599.5Q206 590 203.5 574Q201 558 201 536V510H378V443H201Z" glyph-name="f" horiz-adv-x="371" unicode="f" /><glyph d="M83 0V541H436V477H164V309H395V243H164V0Z" glyph-name="f.small" horiz-adv-x="442" unicode="&#63334;" /><glyph d="M136 279H69V546H14V591L69 596V616Q69 645 74.5 664Q80 683 93 694Q106 705 126 709Q146 713 176 713Q189 713 210 711Q231 709 251 704V654Q235 658 214 659.5Q193 661 180 661Q149 661 142.5 649.5Q136 638 136 613V597H245V546H136Z" glyph-name="f.superior" horiz-adv-x="239" unicode="&#58214;" /><glyph d="M201 0H119V443H30V501L119 508V535Q119 580 128 609.5Q137 639 156.5 656Q176 673 206.5 680Q237 687 280 687Q297 687 319.5 685Q342 683 368 676V608Q346 614 327.5 616Q309 618 292 618Q260 618 242 613.5Q224 609 215 599.5Q206 590 203.5 574Q201 558 201 536V510H368V443H201ZM534 99Q556 79 588 70Q620 61 652 61Q689 61 719 70.5Q749 80 769.5 102.5Q790 125 801 162Q812 199 812 255Q812 362 777.5 405.5Q743 449 671 449Q632 449 597.5 429.5Q563 410 534 374ZM517 35 507 0H452V678H534V460H536Q571 492 609 505.5Q647 519 685 519Q793 519 846 457.5Q899 396 899 259Q899 123 839.5 57Q780 -9 662 -9Q649 -9 631 -7Q613 -5 593.5 0.5Q574 6 554.5 14.5Q535 23 519 35Z" glyph-name="f_b" horiz-adv-x="954" unicode="&#58241;" /><glyph d="M534 0H452V510H534ZM201 0H119V443H30V501L119 508V535Q119 580 128 609.5Q137 639 156.5 656Q176 673 206.5 680Q237 687 280 687Q297 687 319.5 685Q342 683 368 676V608Q346 614 327.5 616Q309 618 292 618Q260 618 242 613.5Q224 609 215 599.5Q206 590 203.5 574Q201 558 201 536V510H368V443H201Z" glyph-name="f_dotlessi" horiz-adv-x="619" unicode="&#59248;" /><glyph d="M562 0H480V443H386V501L480 508V535Q480 580 489 609.5Q498 639 517.5 656Q537 673 567.5 680Q598 687 641 687Q660 687 690.5 685Q721 683 750 676V608Q726 614 698.5 616Q671 618 653 618Q621 618 603 613.5Q585 609 576 599.5Q567 590 564.5 574Q562 558 562 536V510H739V443H562ZM201 0H119V443H30V501L119 508V535Q119 580 128 609.5Q137 639 156 656Q175 673 205 680Q235 687 278 687Q297 687 327 685Q357 683 386 676V608Q362 614 335 616Q308 618 290 618Q259 618 241 613.5Q223 609 214 599.5Q205 590 203 574Q201 558 201 536V510H338V443H201Z" glyph-name="f_f" horiz-adv-x="732" unicode="&#64256;" /><glyph d="M201 0H119V443H30V501L119 508V535Q119 580 128 609.5Q137 639 156 656Q175 673 205 680Q235 687 278 687Q297 687 327 685Q357 683 386 676V608Q362 614 335 616Q308 618 290 618Q259 618 241 613.5Q223 609 214 599.5Q205 590 203 574Q201 558 201 536V510H338V443H201ZM562 0H480V443H386V501L480 508V535Q480 580 489 609.5Q498 639 517.5 656Q537 673 567.5 680Q598 687 641 687Q658 687 680.5 685Q703 683 729 676V608Q707 614 688.5 616Q670 618 653 618Q621 618 603 613.5Q585 609 576 599.5Q567 590 564.5 574Q562 558 562 536V510H729V443H562ZM895 99Q917 79 949 70Q981 61 1013 61Q1050 61 1080 70.5Q1110 80 1130.5 102.5Q1151 125 1162 162Q1173 199 1173 255Q1173 362 1138.5 405.5Q1104 449 1032 449Q993 449 958.5 429.5Q924 410 895 374ZM878 35 868 0H813V678H895V460H897Q932 492 970 505.5Q1008 519 1046 519Q1154 519 1207 457.5Q1260 396 1260 259Q1260 123 1200.5 57Q1141 -9 1023 -9Q1010 -9 992 -7Q974 -5 954.5 0.5Q935 6 915.5 14.5Q896 23 880 35Z" glyph-name="f_f_b" horiz-adv-x="1315" unicode="&#57896;" /><glyph d="M201 0H119V443H30V501L119 508V535Q119 580 128 609.5Q137 639 156 656Q175 673 205 680Q235 687 278 687Q297 687 327 685Q357 683 386 676V608Q362 614 335 616Q308 618 290 618Q259 618 241 613.5Q223 609 214 599.5Q205 590 203 574Q201 558 201 536V510H338V443H201ZM562 0H480V443H386V501L480 508V535Q480 580 489 609.5Q498 639 517.5 656Q537 673 567.5 680Q598 687 641 687Q658 687 680.5 685Q703 683 729 676V608Q707 614 688.5 616Q670 618 653 618Q621 618 603 613.5Q585 609 576 599.5Q567 590 564.5 574Q562 558 562 536V510H729V443H562ZM895 0H813V510H895Z" glyph-name="f_f_dotlessi" horiz-adv-x="980" unicode="&#59249;" /><glyph d="M201 0H119V443H30V501L119 508V535Q119 580 128 609.5Q137 639 156 656Q175 673 205 680Q235 687 278 687Q297 687 327 685Q357 683 386 676V608Q362 614 335 616Q308 618 290 618Q259 618 241 613.5Q223 609 214 599.5Q205 590 203 574Q201 558 201 536V510H338V443H201ZM562 0H480V443H386V501L480 508V535Q480 580 489 609.5Q498 639 517.5 656Q537 673 567.5 680Q598 687 641 687Q658 687 680.5 685Q703 683 729 676V608Q707 614 688.5 616Q670 618 653 618Q621 618 603 613.5Q585 609 576 599.5Q567 590 564.5 574Q562 558 562 536V510H729V443H562ZM896 447Q938 487 984 503Q1030 519 1078 519Q1125 519 1156 509Q1187 499 1206 479.5Q1225 460 1232.5 430Q1240 400 1240 360V0H1158V343Q1158 400 1137 423.5Q1116 447 1058 447Q1011 447 968.5 425.5Q926 404 894 363V0H812V678H894V447Z" glyph-name="f_f_h" horiz-adv-x="1316" unicode="&#57897;" /><glyph d="M201 0H119V443H30V501L119 508V535Q119 580 128 609.5Q137 639 156 656Q175 673 205 680Q235 687 278 687Q297 687 327 685Q357 683 386 676V608Q362 614 335 616Q308 618 290 618Q259 618 241 613.5Q223 609 214 599.5Q205 590 203 574Q201 558 201 536V510H338V443H201ZM562 0H480V443H386V501L480 508V535Q480 580 489 609.5Q498 639 517.5 656Q537 673 567.5 680Q598 687 641 687Q658 687 680.5 685Q703 683 729 676V608Q707 614 688.5 616Q670 618 653 618Q621 618 603 613.5Q585 609 576 599.5Q567 590 564.5 574Q562 558 562 536V510H729V443H562ZM902 585H807V678H902ZM895 0H813V510H895Z" glyph-name="f_f_i" horiz-adv-x="984" unicode="&#64259;" /><glyph d="M902 585H806V678H902ZM753 -168Q781 -126 797 -72Q813 -18 813 41V510H895V103Q895 59 893 22Q891 -15 884.5 -47.5Q878 -80 866 -109.5Q854 -139 834 -168ZM201 0H119V443H30V501L119 508V535Q119 580 128 609.5Q137 639 156 656Q175 673 205 680Q235 687 278 687Q297 687 327 685Q357 683 386 676V608Q362 614 335 616Q308 618 290 618Q259 618 241 613.5Q223 609 214 599.5Q205 590 203 574Q201 558 201 536V510H338V443H201ZM562 0H480V443H386V501L480 508V535Q480 580 489 609.5Q498 639 517.5 656Q537 673 567.5 680Q598 687 641 687Q658 687 680.5 685Q703 683 729 676V608Q707 614 688.5 616Q670 618 653 618Q621 618 603 613.5Q585 609 576 599.5Q567 590 564.5 574Q562 558 562 536V510H729V443H562Z" glyph-name="f_f_j" horiz-adv-x="984" unicode="&#57898;" /><glyph d="M895 305H967L1106 510H1199L1037 274L1232 0H1134L967 238H895V0H813V678H895ZM201 0H119V443H30V501L119 508V535Q119 580 128 609.5Q137 639 156 656Q175 673 205 680Q235 687 278 687Q297 687 327 685Q357 683 386 676V608Q362 614 335 616Q308 618 290 618Q259 618 241 613.5Q223 609 214 599.5Q205 590 203 574Q201 558 201 536V510H338V443H201ZM562 0H480V443H386V501L480 508V535Q480 580 489 609.5Q498 639 517.5 656Q537 673 567.5 680Q598 687 641 687Q658 687 680.5 685Q703 683 729 676V608Q707 614 688.5 616Q670 618 653 618Q621 618 603 613.5Q585 609 576 599.5Q567 590 564.5 574Q562 558 562 536V510H729V443H562Z" glyph-name="f_f_k" horiz-adv-x="1244" unicode="&#58245;" /><glyph d="M201 0H119V443H30V501L119 508V535Q119 580 128 609.5Q137 639 156 656Q175 673 205 680Q235 687 278 687Q297 687 327 685Q357 683 386 676V608Q362 614 335 616Q308 618 290 618Q259 618 241 613.5Q223 609 214 599.5Q205 590 203 574Q201 558 201 536V510H338V443H201ZM562 0H480V443H386V501L480 508V535Q480 580 489 609.5Q498 639 517.5 656Q537 673 567.5 680Q598 687 641 687Q658 687 680.5 685Q703 683 729 676V608Q707 614 688.5 616Q670 618 653 618Q621 618 603 613.5Q585 609 576 599.5Q567 590 564.5 574Q562 558 562 536V510H729V443H562ZM895 0H813V678H895Z" glyph-name="f_f_l" horiz-adv-x="980" unicode="&#64260;" /><glyph d="M1102 12Q1078 1 1045 -3.5Q1012 -8 979 -8Q939 -8 912.5 0Q886 8 870 28Q854 48 847.5 81.5Q841 115 841 167V443H747V501L848 511L869 624H925L924 510H1094V443H923V165Q923 136 925 116Q927 96 935 84Q943 72 959 67Q975 62 1004 62Q1014 62 1027 63.5Q1040 65 1054 67.5Q1068 70 1080.5 73.5Q1093 77 1102 82ZM562 0H480V443H386V501L480 508V535Q480 580 489 609.5Q498 639 517 656Q536 673 566 680Q596 687 639 687Q658 687 688 685Q718 683 747 676V608Q723 614 696 616Q669 618 651 618Q620 618 602 613.5Q584 609 575 599.5Q566 590 564 574Q562 558 562 536V510H699V443H562ZM201 0H119V443H30V501L119 508V535Q119 580 128 609.5Q137 639 156 656Q175 673 205 680Q235 687 278 687Q297 687 327 685Q357 683 386 676V608Q362 614 335 616Q308 618 290 618Q259 618 241 613.5Q223 609 214 599.5Q205 590 203 574Q201 558 201 536V510H338V443H201Z" glyph-name="f_f_t" horiz-adv-x="1126" unicode="&#57904;" /><glyph d="M201 0H119V443H30V501L119 508V535Q119 580 128 609.5Q137 639 156.5 656Q176 673 206.5 680Q237 687 280 687Q297 687 319.5 685Q342 683 368 676V608Q346 614 327.5 616Q309 618 292 618Q260 618 242 613.5Q224 609 215 599.5Q206 590 203.5 574Q201 558 201 536V510H368V443H201ZM536 447Q578 487 624 503Q670 519 718 519Q765 519 796 509Q827 499 846 479.5Q865 460 872.5 430Q880 400 880 360V0H798V343Q798 400 777 423.5Q756 447 698 447Q651 447 608.5 425.5Q566 404 534 363V0H452V678H534V447Z" glyph-name="f_h" horiz-adv-x="956" unicode="&#58246;" /><glyph d="M541 585H445V678H541ZM392 -168Q420 -126 436 -72Q452 -18 452 41V510H534V103Q534 59 532 22Q530 -15 523.5 -47.5Q517 -80 505 -109.5Q493 -139 473 -168ZM201 0H119V443H30V501L119 508V535Q119 580 128 609.5Q137 639 156.5 656Q176 673 206.5 680Q237 687 280 687Q297 687 319.5 685Q342 683 368 676V608Q346 614 327.5 616Q309 618 292 618Q260 618 242 613.5Q224 609 215 599.5Q206 590 203.5 574Q201 558 201 536V510H368V443H201Z" glyph-name="f_j" horiz-adv-x="623" unicode="&#58247;" /><glyph d="M534 305H606L745 510H838L676 274L871 0H773L606 238H534V0H452V678H534ZM201 0H119V443H30V501L119 508V535Q119 580 128 609.5Q137 639 156.5 656Q176 673 206.5 680Q237 687 280 687Q297 687 319.5 685Q342 683 368 676V608Q346 614 327.5 616Q309 618 292 618Q260 618 242 613.5Q224 609 215 599.5Q206 590 203.5 574Q201 558 201 536V510H368V443H201Z" glyph-name="f_k" horiz-adv-x="883" unicode="&#58248;" /><glyph d="M741 12Q717 1 684 -3.5Q651 -8 618 -8Q578 -8 551.5 0Q525 8 509 28Q493 48 486.5 81.5Q480 115 480 167V443H386V501L487 511L508 624H564L563 510H733V443H562V165Q562 136 564 116Q566 96 574 84Q582 72 598 67Q614 62 643 62Q653 62 666 63.5Q679 65 693 67.5Q707 70 719.5 73.5Q732 77 741 82ZM201 0H119V443H30V501L119 508V535Q119 580 128 609.5Q137 639 156 656Q175 673 205 680Q235 687 278 687Q297 687 327 685Q357 683 386 676V608Q362 614 335 616Q308 618 290 618Q259 618 241 613.5Q223 609 214 599.5Q205 590 203 574Q201 558 201 536V510H338V443H201Z" glyph-name="f_t" horiz-adv-x="765" unicode="&#59250;" /><glyph d="M760 12Q735 3 699 -2.5Q663 -8 628 -8Q587 -8 558.5 0Q530 8 512.5 28Q495 48 487.5 81.5Q480 115 480 167V443H386V501L487 511L508 624H564L563 510H732V443H562V165Q562 136 564.5 116Q567 96 576.5 84Q586 72 604 67Q622 62 653 62Q664 62 678.5 63.5Q693 65 708 67.5Q723 70 736.5 73.5Q750 77 760 82ZM1135 12Q1111 1 1078 -3.5Q1045 -8 1012 -8Q972 -8 945.5 0Q919 8 903 28Q887 48 880.5 81.5Q874 115 874 167V443H780V501L881 511L902 624H958L957 510H1127V443H956V165Q956 136 958 116Q960 96 968 84Q976 72 992 67Q1008 62 1037 62Q1047 62 1060 63.5Q1073 65 1087 67.5Q1101 70 1113.5 73.5Q1126 77 1135 82ZM201 0H119V443H30V501L119 508V535Q119 580 128 609.5Q137 639 156 656Q175 673 205 680Q235 687 278 687Q297 687 327 685Q357 683 386 676V608Q362 614 335 616Q308 618 290 618Q259 618 241 613.5Q223 609 214 599.5Q205 590 203 574Q201 558 201 536V510H338V443H201Z" glyph-name="f_t_t" horiz-adv-x="1159" unicode="&#59251;" /><glyph d="M562 0H480V443H386V501L480 508V535Q480 580 489 609.5Q498 639 517.5 656Q537 673 567.5 680Q598 687 641 687Q660 687 690.5 685Q721 683 750 676V608Q726 614 698.5 616Q671 618 653 618Q621 618 603 613.5Q585 609 576 599.5Q567 590 564.5 574Q562 558 562 536V510H739V443H562ZM201 0H119V443H30V501L119 508V535Q119 580 128 609.5Q137 639 156 656Q175 673 205 680Q235 687 278 687Q297 687 327 685Q357 683 386 676V608Q362 614 335 616Q308 618 290 618Q259 618 241 613.5Q223 609 214 599.5Q205 590 203 574Q201 558 201 536V510H338V443H201Z" glyph-name="ff" horiz-adv-x="732" unicode="&#58249;" /><glyph d="M201 0H119V443H30V501L119 508V535Q119 580 128 609.5Q137 639 156 656Q175 673 205 680Q235 687 278 687Q297 687 327 685Q357 683 386 676V608Q362 614 335 616Q308 618 290 618Q259 618 241 613.5Q223 609 214 599.5Q205 590 203 574Q201 558 201 536V510H338V443H201ZM562 0H480V443H386V501L480 508V535Q480 580 489 609.5Q498 639 517.5 656Q537 673 567.5 680Q598 687 641 687Q658 687 680.5 685Q703 683 729 676V608Q707 614 688.5 616Q670 618 653 618Q621 618 603 613.5Q585 609 576 599.5Q567 590 564.5 574Q562 558 562 536V510H729V443H562ZM902 585H807V678H902ZM895 0H813V510H895Z" glyph-name="ffi" horiz-adv-x="984" unicode="&#58250;" /><glyph d="M201 0H119V443H30V501L119 508V535Q119 580 128 609.5Q137 639 156 656Q175 673 205 680Q235 687 278 687Q297 687 327 685Q357 683 386 676V608Q362 614 335 616Q308 618 290 618Q259 618 241 613.5Q223 609 214 599.5Q205 590 203 574Q201 558 201 536V510H338V443H201ZM562 0H480V443H386V501L480 508V535Q480 580 489 609.5Q498 639 517.5 656Q537 673 567.5 680Q598 687 641 687Q658 687 680.5 685Q703 683 729 676V608Q707 614 688.5 616Q670 618 653 618Q621 618 603 613.5Q585 609 576 599.5Q567 590 564.5 574Q562 558 562 536V510H729V443H562ZM895 0H813V678H895Z" glyph-name="ffl" horiz-adv-x="980" unicode="&#58251;" /><glyph d="M541 585H446V678H541ZM534 0H452V510H534ZM201 0H119V443H30V501L119 508V535Q119 580 128 609.5Q137 639 156.5 656Q176 673 206.5 680Q237 687 280 687Q297 687 319.5 685Q342 683 368 676V608Q346 614 327.5 616Q309 618 292 618Q260 618 242 613.5Q224 609 215 599.5Q206 590 203.5 574Q201 558 201 536V510H368V443H201Z" glyph-name="fi" horiz-adv-x="623" unicode="&#64257;" /><glyph d="M821 236H56V307H821Z" glyph-name="figuredash" horiz-adv-x="877" unicode="&#8210;" /><glyph d="M821 310H56V381H821Z" glyph-name="figuredash.cap" horiz-adv-x="877" unicode="&#58503;" /><glyph glyph-name="figurespace" horiz-adv-x="700" unicode="&#8199;" /><glyph d="M205 49H785V629H205ZM156 678H834V0H156ZM529 339 701 166 666 132 495 305 324 132 289 166 461 339 289 512 324 546 495 373 666 546 701 512Z" glyph-name="filledbox" horiz-adv-x="990" unicode="&#9632;" /><glyph d="M287 47H703V463H287ZM240 510H750V0H240ZM357 360 391 394 495 290 599 394 633 360 527 254 633 148 599 114 495 218 391 114 357 148 463 254Z" glyph-name="filledsmallbox" horiz-adv-x="990" unicode="&#59252;" /><glyph d="M508 83Q508 27 489 -13Q470 -53 436 -79Q402 -105 356.5 -117.5Q311 -130 259 -130Q219 -130 170.5 -123Q122 -116 84 -102V-30Q102 -36 126 -41Q150 -46 174 -49.5Q198 -53 220.5 -55Q243 -57 258 -57Q292 -57 321.5 -50Q351 -43 373 -27Q395 -11 408 15.5Q421 42 421 80Q421 125 404.5 151Q388 177 362.5 189.5Q337 202 304.5 205.5Q272 209 241 209Q233 209 221.5 209Q210 209 193.5 208Q177 207 153 206Q129 205 96 204V558H470V491H179V279Q202 280 216 280Q230 280 237 280Q290 280 339 273Q388 266 425.5 245Q463 224 485.5 185.5Q508 147 508 83Z" glyph-name="five" horiz-adv-x="562" unicode="5" /><glyph d="M515 203Q515 147 496 107Q477 67 443 41Q409 15 363.5 2.5Q318 -10 266 -10Q226 -10 177.5 -3Q129 4 91 18V90Q109 84 133 79Q157 74 181 70.5Q205 67 227.5 65Q250 63 265 63Q299 63 328.5 70Q358 77 380 93Q402 109 415 135.5Q428 162 428 200Q428 245 411.5 271Q395 297 369.5 309.5Q344 322 311.5 325.5Q279 329 248 329Q240 329 228.5 329Q217 329 200.5 328Q184 327 160 326Q136 325 103 324V678H477V611H186V399Q209 400 223 400Q237 400 244 400Q297 400 346 393Q395 386 432.5 365Q470 344 492.5 305.5Q515 267 515 203Z" glyph-name="five.LP" horiz-adv-x="563" unicode="&#58682;" /><glyph d="M550 203Q550 147 531 107Q512 67 478 41Q444 15 398.5 2.5Q353 -10 301 -10Q261 -10 212.5 -3Q164 4 126 18V90Q144 84 168 79Q192 74 216 70.5Q240 67 262.5 65Q285 63 300 63Q334 63 363.5 70Q393 77 415 93Q437 109 450 135.5Q463 162 463 200Q463 245 446.5 271Q430 297 404.5 309.5Q379 322 346.5 325.5Q314 329 283 329Q275 329 263.5 329Q252 329 235.5 328Q219 327 195 326Q171 325 138 324V678H512V611H221V399Q244 400 258 400Q272 400 279 400Q332 400 381 393Q430 386 467.5 365Q505 344 527.5 305.5Q550 267 550 203Z" glyph-name="five.LT" horiz-adv-x="660" unicode="&#58693;" /><glyph d="M550 83Q550 27 531 -13Q512 -53 478 -79Q444 -105 398.5 -117.5Q353 -130 301 -130Q261 -130 212.5 -123Q164 -116 126 -102V-30Q144 -36 168 -41Q192 -46 216 -49.5Q240 -53 262.5 -55Q285 -57 300 -57Q334 -57 363.5 -50Q393 -43 415 -27Q437 -11 450 15.5Q463 42 463 80Q463 125 446.5 151Q430 177 404.5 189.5Q379 202 346.5 205.5Q314 209 283 209Q275 209 263.5 209Q252 209 235.5 208Q219 207 195 206Q171 205 138 204V558H512V491H221V279Q244 280 258 280Q272 280 279 280Q332 280 381 273Q430 266 467.5 245Q505 224 527.5 185.5Q550 147 550 83Z" glyph-name="five.OT" horiz-adv-x="660" unicode="&#58715;" /><glyph d="M287 -58Q287 -88 276.5 -110Q266 -132 247 -146Q228 -160 203 -167Q178 -174 149 -174Q126 -174 98 -169.5Q70 -165 47 -156V-101Q72 -111 102.5 -115.5Q133 -120 148 -120Q176 -120 196 -107.5Q216 -95 216 -62Q216 -43 209.5 -31.5Q203 -20 191.5 -14Q180 -8 165 -6Q150 -4 132 -4Q124 -4 105 -4.5Q86 -5 53 -7V190H267V139H122V51H137Q166 51 193 47Q220 43 241 31.5Q262 20 274.5 -1.5Q287 -23 287 -58Z" glyph-name="five.inf" horiz-adv-x="312" unicode="&#58742;" /><glyph d="M534 0H452V678H534ZM201 0H119V443H30V501L119 508V535Q119 580 128 609.5Q137 639 156.5 656Q176 673 206.5 680Q237 687 280 687Q297 687 319.5 685Q342 683 368 676V608Q346 614 327.5 616Q309 618 292 618Q260 618 242 613.5Q224 609 215 599.5Q206 590 203.5 574Q201 558 201 536V510H368V443H201Z" glyph-name="fl" horiz-adv-x="619" unicode="&#64258;" /><glyph d="M7 -59Q21 -62 32 -63Q43 -64 52 -64Q96 -64 111 -38.5Q126 -13 131 33L157 256H85V323H164L177 424Q181 454 191.5 480Q202 506 221.5 526Q241 546 269.5 557.5Q298 569 337 569Q360 569 389.5 564.5Q419 560 443 547V477Q415 493 389.5 496Q364 499 353 499Q305 499 284.5 477.5Q264 456 259 409L249 323H395V256H241L215 13Q212 -18 202 -44.5Q192 -71 174 -90.5Q156 -110 128.5 -121Q101 -132 61 -132Q47 -132 33.5 -131Q20 -130 7 -128Z" glyph-name="florin" horiz-adv-x="478" unicode="&#402;" /><glyph d="M79 -50Q92 -53 104.5 -54Q117 -55 128 -55Q155 -55 173 -47Q191 -39 201.5 -24Q212 -9 217 12.5Q222 34 224 61L248 310H179V381H253L268 523Q271 559 281.5 589.5Q292 620 312 642.5Q332 665 363.5 677.5Q395 690 441 690Q467 690 497 685Q527 680 558 667V591Q526 605 500 610Q474 615 451 615Q424 615 406.5 607Q389 599 378.5 584Q368 569 363 547.5Q358 526 356 499L344 381H505V310H338L312 37Q309 1 298.5 -29.5Q288 -60 267.5 -82.5Q247 -105 215.5 -117.5Q184 -130 138 -130Q124 -130 109 -129Q94 -128 79 -125Z" glyph-name="florin.LP" horiz-adv-x="660" unicode="&#58661;" /><glyph d="M457 -118H374V46H38L34 118L276 558H365L123 113H375L388 340H457V115H542V46H457Z" glyph-name="four" horiz-adv-x="562" unicode="4" /><glyph d="M464 0H381V164H45L41 236L283 676H372L130 231H382L395 458H464V233H549V164H464Z" glyph-name="four.LP" horiz-adv-x="575" unicode="&#58681;" /><glyph d="M519 0H436V164H100L96 236L338 676H427L185 231H437L450 458H519V233H604V164H519Z" glyph-name="four.LT" horiz-adv-x="660" unicode="&#58692;" /><glyph d="M528 -118H445V46H109L105 118L347 558H436L194 113H446L459 340H528V115H613V46H528Z" glyph-name="four.OT" horiz-adv-x="660" unicode="&#58714;" /><glyph d="M261 -168H192V-86H23L21 -41L150 190H221L101 -35V-36L197 -35L205 78H261V-34H303V-86H261Z" glyph-name="four.inf" horiz-adv-x="317" unicode="&#58741;" /><glyph glyph-name="fourperemspace" horiz-adv-x="250" unicode="&#8197;" /><glyph d="M-112 0H-188L291 678H367Z" glyph-name="fraction" horiz-adv-x="179" unicode="&#8260;" /><glyph d="M130 0V196H38V258H130V311H38V373H130V558H483V491H212V373H392V311H212V258H392V196H212V0Z" glyph-name="franc" horiz-adv-x="483" unicode="&#8355;" /><glyph d="M412 411Q391 431 359.5 440Q328 449 297 449Q262 449 233 440.5Q204 432 184 412Q164 392 153 358.5Q142 325 142 275Q142 179 176 140.5Q210 102 278 102Q316 102 351 121Q386 140 412 176ZM494 18Q494 -48 472 -87Q450 -126 416.5 -146.5Q383 -167 341.5 -173.5Q300 -180 261 -180Q224 -180 175.5 -174.5Q127 -169 90 -156V-82Q123 -93 163.5 -99.5Q204 -106 252 -106Q289 -106 318.5 -100.5Q348 -95 369 -81.5Q390 -68 401 -45.5Q412 -23 412 11V90H410Q376 58 339 45Q302 32 264 32Q160 32 107.5 90Q55 148 55 275Q55 400 114.5 459.5Q174 519 287 519Q299 519 316.5 517Q334 515 353.5 510.5Q373 506 392 497.5Q411 489 427 477H429L439 510H494Z" glyph-name="g" horiz-adv-x="579" unicode="g" /><glyph d="M279 309H501V28Q451 5 402.5 -3.5Q354 -12 308 -12Q246 -12 198.5 3Q151 18 119 51Q87 84 70 137.5Q53 191 53 269Q53 350 70.5 404.5Q88 459 122 492Q156 525 205 539Q254 553 317 553Q343 553 385 549.5Q427 546 469 535V466Q431 476 393 480.5Q355 485 329 485Q282 485 246.5 476Q211 467 187 443Q163 419 150.5 377Q138 335 138 269Q138 204 151.5 163Q165 122 187.5 98.5Q210 75 239.5 66Q269 57 302 57Q329 57 357.5 59Q386 61 419 72V243H279Z" glyph-name="g.small" horiz-adv-x="571" unicode="&#63335;" /><glyph d="M257 539Q242 550 225 553.5Q208 557 192 557Q152 557 128 535Q104 513 104 454Q104 397 123 374.5Q142 352 180 352Q200 352 220.5 362.5Q241 373 257 395ZM322 295Q322 253 308 228Q294 203 271.5 189.5Q249 176 222 172Q195 168 170 168Q147 168 115 172Q83 176 57 184V242Q82 234 109 229Q136 224 165 224Q207 224 231.5 237.5Q256 251 256 291V329H255Q238 314 216 306.5Q194 299 171 299Q103 299 69 336Q35 373 35 454Q35 533 73.5 571.5Q112 610 186 610Q202 610 225 606Q248 602 269 589L273 604H322Z" glyph-name="g.superior" horiz-adv-x="378" unicode="&#58215;" /><glyph d="M323 566H246L354 678H463ZM412 411Q391 431 359.5 440Q328 449 297 449Q262 449 233 440.5Q204 432 184 412Q164 392 153 358.5Q142 325 142 275Q142 179 176 140.5Q210 102 278 102Q316 102 351 121Q386 140 412 176ZM494 18Q494 -48 472 -87Q450 -126 416.5 -146.5Q383 -167 341.5 -173.5Q300 -180 261 -180Q224 -180 175.5 -174.5Q127 -169 90 -156V-82Q123 -93 163.5 -99.5Q204 -106 252 -106Q289 -106 318.5 -100.5Q348 -95 369 -81.5Q390 -68 401 -45.5Q412 -23 412 11V90H410Q376 58 339 45Q302 32 264 32Q160 32 107.5 90Q55 148 55 275Q55 400 114.5 459.5Q174 519 287 519Q299 519 316.5 517Q334 515 353.5 510.5Q373 506 392 497.5Q411 489 427 477H429L439 510H494Z" glyph-name="gacute" horiz-adv-x="579" unicode="&#501;" /><glyph d="M333 598H256L364 710H473ZM279 309H501V28Q451 5 402.5 -3.5Q354 -12 308 -12Q246 -12 198.5 3Q151 18 119 51Q87 84 70 137.5Q53 191 53 269Q53 350 70.5 404.5Q88 459 122 492Q156 525 205 539Q254 553 317 553Q343 553 385 549.5Q427 546 469 535V466Q431 476 393 480.5Q355 485 329 485Q282 485 246.5 476Q211 467 187 443Q163 419 150.5 377Q138 335 138 269Q138 204 151.5 163Q165 122 187.5 98.5Q210 75 239.5 66Q269 57 302 57Q329 57 357.5 59Q386 61 419 72V243H279Z" glyph-name="gacute.small" horiz-adv-x="571" unicode="&#59254;" /><glyph d="M285 618Q300 618 316 620.5Q332 623 345.5 630Q359 637 369 648.5Q379 660 382 678H453Q443 615 398 587.5Q353 560 285 560Q217 560 172 587.5Q127 615 117 678H188Q191 660 201 648.5Q211 637 224.5 630Q238 623 254 620.5Q270 618 285 618ZM412 411Q391 431 359.5 440Q328 449 297 449Q262 449 233 440.5Q204 432 184 412Q164 392 153 358.5Q142 325 142 275Q142 179 176 140.5Q210 102 278 102Q316 102 351 121Q386 140 412 176ZM494 18Q494 -48 472 -87Q450 -126 416.5 -146.5Q383 -167 341.5 -173.5Q300 -180 261 -180Q224 -180 175.5 -174.5Q127 -169 90 -156V-82Q123 -93 163.5 -99.5Q204 -106 252 -106Q289 -106 318.5 -100.5Q348 -95 369 -81.5Q390 -68 401 -45.5Q412 -23 412 11V90H410Q376 58 339 45Q302 32 264 32Q160 32 107.5 90Q55 148 55 275Q55 400 114.5 459.5Q174 519 287 519Q299 519 316.5 517Q334 515 353.5 510.5Q373 506 392 497.5Q411 489 427 477H429L439 510H494Z" glyph-name="gbreve" horiz-adv-x="579" unicode="&#287;" /><glyph d="M289 650Q304 650 320 652.5Q336 655 349.5 662Q363 669 373 680.5Q383 692 386 710H457Q447 647 402 619.5Q357 592 289 592Q221 592 176 619.5Q131 647 121 710H192Q195 692 205 680.5Q215 669 228.5 662Q242 655 258 652.5Q274 650 289 650ZM279 309H501V28Q451 5 402.5 -3.5Q354 -12 308 -12Q246 -12 198.5 3Q151 18 119 51Q87 84 70 137.5Q53 191 53 269Q53 350 70.5 404.5Q88 459 122 492Q156 525 205 539Q254 553 317 553Q343 553 385 549.5Q427 546 469 535V466Q431 476 393 480.5Q355 485 329 485Q282 485 246.5 476Q211 467 187 443Q163 419 150.5 377Q138 335 138 269Q138 204 151.5 163Q165 122 187.5 98.5Q210 75 239.5 66Q269 57 302 57Q329 57 357.5 59Q386 61 419 72V243H279Z" glyph-name="gbreve.small" horiz-adv-x="571" unicode="&#63051;" /><glyph d="M137 678H218L286 608L354 678H435L325 562H246ZM412 411Q391 431 359.5 440Q328 449 297 449Q262 449 233 440.5Q204 432 184 412Q164 392 153 358.5Q142 325 142 275Q142 179 176 140.5Q210 102 278 102Q316 102 351 121Q386 140 412 176ZM494 18Q494 -48 472 -87Q450 -126 416.5 -146.5Q383 -167 341.5 -173.5Q300 -180 261 -180Q224 -180 175.5 -174.5Q127 -169 90 -156V-82Q123 -93 163.5 -99.5Q204 -106 252 -106Q289 -106 318.5 -100.5Q348 -95 369 -81.5Q390 -68 401 -45.5Q412 -23 412 11V90H410Q376 58 339 45Q302 32 264 32Q160 32 107.5 90Q55 148 55 275Q55 400 114.5 459.5Q174 519 287 519Q299 519 316.5 517Q334 515 353.5 510.5Q373 506 392 497.5Q411 489 427 477H429L439 510H494Z" glyph-name="gcaron" horiz-adv-x="579" unicode="&#487;" /><glyph d="M149 710H230L298 640L366 710H447L337 594H258ZM279 309H501V28Q451 5 402.5 -3.5Q354 -12 308 -12Q246 -12 198.5 3Q151 18 119 51Q87 84 70 137.5Q53 191 53 269Q53 350 70.5 404.5Q88 459 122 492Q156 525 205 539Q254 553 317 553Q343 553 385 549.5Q427 546 469 535V466Q431 476 393 480.5Q355 485 329 485Q282 485 246.5 476Q211 467 187 443Q163 419 150.5 377Q138 335 138 269Q138 204 151.5 163Q165 122 187.5 98.5Q210 75 239.5 66Q269 57 302 57Q329 57 357.5 59Q386 61 419 72V243H279Z" glyph-name="gcaron.small" horiz-adv-x="571" unicode="&#63014;" /><glyph d="M443 566H362L294 636L226 566H145L255 682H334ZM412 411Q391 431 359.5 440Q328 449 297 449Q262 449 233 440.5Q204 432 184 412Q164 392 153 358.5Q142 325 142 275Q142 179 176 140.5Q210 102 278 102Q316 102 351 121Q386 140 412 176ZM494 18Q494 -48 472 -87Q450 -126 416.5 -146.5Q383 -167 341.5 -173.5Q300 -180 261 -180Q224 -180 175.5 -174.5Q127 -169 90 -156V-82Q123 -93 163.5 -99.5Q204 -106 252 -106Q289 -106 318.5 -100.5Q348 -95 369 -81.5Q390 -68 401 -45.5Q412 -23 412 11V90H410Q376 58 339 45Q302 32 264 32Q160 32 107.5 90Q55 148 55 275Q55 400 114.5 459.5Q174 519 287 519Q299 519 316.5 517Q334 515 353.5 510.5Q373 506 392 497.5Q411 489 427 477H429L439 510H494Z" glyph-name="gcircumflex" horiz-adv-x="579" unicode="&#285;" /><glyph d="M439 595H358L290 665L222 595H141L251 711H330ZM279 309H501V28Q451 5 402.5 -3.5Q354 -12 308 -12Q246 -12 198.5 3Q151 18 119 51Q87 84 70 137.5Q53 191 53 269Q53 350 70.5 404.5Q88 459 122 492Q156 525 205 539Q254 553 317 553Q343 553 385 549.5Q427 546 469 535V466Q431 476 393 480.5Q355 485 329 485Q282 485 246.5 476Q211 467 187 443Q163 419 150.5 377Q138 335 138 269Q138 204 151.5 163Q165 122 187.5 98.5Q210 75 239.5 66Q269 57 302 57Q329 57 357.5 59Q386 61 419 72V243H279Z" glyph-name="gcircumflex.small" horiz-adv-x="571" unicode="&#63020;" /></font>
</defs>
</svg>
